<?xml version="1.0" standalone="no"?>
<!DOCTYPE svg PUBLIC "-//W3C//DTD SVG 1.1//EN" "http://www.w3.org/Graphics/SVG/1.1/DTD/svg11.dtd" >
<svg xmlns="http://www.w3.org/2000/svg" xmlns:xlink="http://www.w3.org/1999/xlink" version="1.1">
<metadata>
Created by FontForge 20170924 at Fri Jan  1 00:00:00 1904
 By www-data
Copyright 1990-1992 Bitstream Inc.  All rights reserved.
</metadata>
<defs>
<font id="CloisterBlackBT-Regular" horiz-adv-x="1024" >
  <font-face 
    font-family="CloisterBlack BT"
    font-weight="400"
    font-stretch="normal"
    units-per-em="2048"
    panose-1="0 0 0 0 0 0 0 0 0 0"
    ascent="1638"
    descent="-410"
    x-height="971"
    cap-height="1333"
    bbox="-342 -483 2185 1896"
    underline-thickness="125"
    underline-position="-222"
    unicode-range="U+0020-F002"
  />
<missing-glyph horiz-adv-x="1229" 
d="M102 -362v1806h1024v-1806h-1024zM217 -248h795v1577h-795v-1577z" />
    <glyph glyph-name=".notdef" horiz-adv-x="1229" 
d="M102 -362v1806h1024v-1806h-1024zM217 -248h795v1577h-795v-1577z" />
    <glyph glyph-name=".null" horiz-adv-x="0" 
 />
    <glyph glyph-name="nonmarkingreturn" horiz-adv-x="473" 
 />
    <glyph glyph-name="space" unicode=" " horiz-adv-x="473" 
 />
    <glyph glyph-name="exclam" unicode="!" horiz-adv-x="473" 
d="M229 1327l156 -178q-42 -124 -76 -319t-57 -449h-45q-24 252 -57.5 447t-75.5 321zM215 -23q-56 49 -92.5 89t-61.5 77l172 160q27 -35 64 -75.5t88 -92.5z" />
    <glyph glyph-name="quotedbl" unicode="&#x22;" horiz-adv-x="686" 
d="M526 860h-34l-70 459q-1 7 -1.5 14.5t-0.5 22.5q0 51 22.5 78.5t65.5 27.5q42 0 66 -27t24 -75q0 -16 -0.5 -24.5t-1.5 -16.5zM195 860h-35l-70 459l-3 25.5t-1 15.5q0 48 24 75t66 27q44 0 67 -27.5t23 -78.5q0 -16 -0.5 -23.5t-1.5 -14.5z" />
    <glyph glyph-name="numbersign" unicode="#" horiz-adv-x="1575" 
d="M702 864l-98 -276h283l96 276h-281zM760 1458h155l-161 -454h276l162 454h156l-162 -454h301l-49 -140h-301l-97 -276h320l-49 -139h-320l-162 -453h-155l162 453h-279l-162 -453h-153l159 453h-313l51 139h312l98 276h-336l51 140h334z" />
    <glyph glyph-name="dollar" unicode="$" horiz-adv-x="948" 
d="M417 655l1 435l-185 38q-23 -32 -35 -73.5t-12 -93.5q0 -131 58.5 -221.5t138.5 -90.5q9 0 17 1.5t17 4.5zM518 154l115 -25q47 55 71.5 129.5t24.5 163.5q0 107 -41 173.5t-104 66.5q-14 0 -29.5 -4t-36.5 -13v-491zM418 10l-375 92l66 154l309 -74v418l-2 -1
q-140 -83 -193 -120q-82 58 -129 151.5t-47 198.5q0 171 99.5 283t271.5 135v127h100v-137l279 -59l-68 -158l-211 47v-362q67 30 122 61.5t101 64.5q73 -59 112.5 -146t39.5 -185q0 -150 -97.5 -283t-277.5 -227v-203h-100v223z" />
    <glyph glyph-name="percent" unicode="%" horiz-adv-x="1456" 
d="M1206 111q42 40 62 94.5t20 128.5q0 105 -72.5 183.5t-197.5 107.5q-42 -44 -63 -92t-21 -101q0 -123 74 -211t198 -110zM1126 -18q-145 42 -225 136t-80 222q0 120 72 222.5t211 180.5q151 -62 223 -149.5t72 -210.5q0 -112 -63.5 -206t-209.5 -195zM305 -18l731 1269
h111l-731 -1269h-111zM444 618q42 41 62 95.5t20 128.5q0 106 -72 184t-196 107q-43 -45 -64.5 -93t-21.5 -100q0 -123 74 -211t198 -111zM365 489q-146 43 -226 137t-80 222q0 119 72.5 221.5t212.5 181.5q151 -62 222 -149.5t71 -210.5q0 -112 -63.5 -206t-208.5 -196z
" />
    <glyph glyph-name="ampersand" unicode="&#x26;" horiz-adv-x="1436" 
d="M635 799l63 51q28 21 44 59t16 82q0 83 -44 138t-108 55q-45 0 -76.5 -30.5t-31.5 -74.5q0 -16 5 -33t15 -34zM496 152l186 151l-190 326l-201 -156zM705 258l-359 -291l-260 402l381 301l-172 288q-10 18 -14.5 32.5t-4.5 27.5q0 34 21 60t72 52l379 197
q81 -51 117 -105.5t36 -125.5q0 -73 -42 -143.5t-124 -135.5l-73 -57l186 -332l239 199q39 -36 82 -55t84 -19q18 0 26.5 1t14.5 3l11 -8q-39 -62 -84 -92.5t-97 -30.5q-33 0 -66 14t-67 43l-119 -92q65 -122 122.5 -170.5t133.5 -48.5q45 0 83.5 17t72.5 51l16 -9
q-25 -109 -99 -170t-179 -61q-97 0 -169 57.5t-148 200.5z" />
    <glyph glyph-name="quotesingle" unicode="'" horiz-adv-x="352" 
d="M195 860h-35l-70 459q0 2 -1 8q-3 19 -3 29q0 50 23.5 78t66.5 28q42 0 66 -27t24 -75q0 -7 -0.5 -15t-3.5 -27z" />
    <glyph glyph-name="parenleft" unicode="(" horiz-adv-x="678" 
d="M633 45l31 -31l-195 -276q-141 152 -216 362.5t-75 454.5q0 281 109.5 549.5t314.5 488.5l29 -26q-144 -198 -217.5 -413t-73.5 -437q0 -196 61.5 -380t182.5 -347z" />
    <glyph glyph-name="parenright" unicode=")" horiz-adv-x="678" 
d="M47 1286l-31 31l195 276q140 -152 214.5 -362t74.5 -455q0 -282 -109 -550.5t-313 -487.5l-29 26q143 197 216 412t73 438q0 196 -61 380t-181 347z" />
    <glyph glyph-name="asterisk" unicode="*" horiz-adv-x="883" 
d="M440 1065q22 0 47 -2h9q46 0 81.5 7.5t65.5 23.5l86 -131l-137 -62q-20 34 -56 64.5t-94 60.5q17 -66 35 -110t41 -74l-102 -111l-97 125q30 27 52 69.5t41 110.5q-58 -27 -95.5 -59t-62.5 -76l-141 57l77 133q34 -13 64.5 -19.5t58.5 -6.5q19 0 65 7q5 1 7 1
q-36 39 -78.5 64t-93.5 37l12 157l148 -37q0 -5 -1 -15t-1 -15q0 -40 11 -81.5t34 -82.5q21 39 32 80t11 82q0 5 -1 14t-1 14l151 33l13 -152q-50 -10 -94.5 -36.5t-86.5 -69.5z" />
    <glyph glyph-name="plus" unicode="+" horiz-adv-x="1706" 
d="M782 1221h142v-541h528v-139h-528v-541h-142v541h-528v139h528v541z" />
    <glyph glyph-name="comma" unicode="," horiz-adv-x="473" 
d="M63 -127q49 42 71 75t22 64q0 27 -21.5 59.5t-71.5 80.5l160 151q24 -29 57.5 -61t94.5 -84q-30 -98 -97 -179.5t-174 -150.5z" />
    <glyph glyph-name="hyphen" unicode="-" horiz-adv-x="635" 
d="M115 399l-21 -57h-39l82 225h377l25 68h39l-82 -236h-381z" />
    <glyph glyph-name="period" unicode="." horiz-adv-x="473" 
d="M221 -23q-56 49 -92.5 89t-60.5 77l170 160q23 -31 58 -69.5t95 -98.5z" />
    <glyph glyph-name="slash" unicode="/" horiz-adv-x="633" 
d="M471 1327h113l-523 -1517h-110z" />
    <glyph glyph-name="zero" unicode="0" horiz-adv-x="948" 
d="M623 166q65 73 96 169t31 228q0 192 -111.5 331t-304.5 189q-66 -82 -97.5 -166.5t-31.5 -177.5q0 -221 113 -376.5t305 -196.5zM500 -18q-207 65 -324 223.5t-117 372.5q0 199 103 369t305 304q218 -100 320 -245t102 -357q0 -192 -92 -350.5t-297 -316.5z" />
    <glyph glyph-name="one" unicode="1" horiz-adv-x="627" 
d="M150 147q34 33 44.5 52.5t10.5 46.5v696q0 50 -19 84.5t-63 65.5l-76 -66l-27 33l224 192q87 -62 120 -118.5t33 -147.5v-772l78 -63l76 67l31 -29l-222 -206z" />
    <glyph glyph-name="two" unicode="2" horiz-adv-x="948" 
d="M4 -18q14 102 76.5 199t193.5 216q17 15 51 44q125 108 183 180q52 64 79 130t27 130q0 63 -27 119t-81 104l-342 -270l-131 129l356 288l434 -272q1 -11 1.5 -24.5t0.5 -39.5q0 -132 -55.5 -230t-183.5 -187q-42 -30 -132 -83q-233 -138 -319 -263q102 43 202.5 64.5
t201.5 21.5q92 0 166 -19t135 -57l-146 -180q-86 40 -171 59.5t-169 19.5t-171.5 -19.5t-178.5 -59.5z" />
    <glyph glyph-name="three" unicode="3" horiz-adv-x="948" 
d="M-2 256l141 137l385 -327q51 54 76 118t25 142q0 137 -90.5 221t-239.5 84q-10 0 -22.5 -1t-36.5 -3v51q165 9 253.5 92.5t88.5 230.5q0 52 -21.5 83.5t-54.5 31.5q-20 0 -50 -22q-8 -6 -11 -8l-242 -179l-115 125l287 217l409 -209q3 -18 4.5 -35t1.5 -32
q0 -103 -61 -181.5t-184 -134.5q144 -44 217 -123.5t73 -191.5q0 -143 -138 -242t-369 -118z" />
    <glyph glyph-name="four" unicode="4" horiz-adv-x="948" 
d="M102 549h398v436q0 17 -11.5 35.5t-31.5 34.5l-361 -488zM430 127l35 39l3 3q34 38 34 73v155h-410l-53 172l496 684q75 -40 112 -93.5t37 -123.5v-487h174l41 -152h-215v-196l76 -58l59 50l25 -33l-193 -178z" />
    <glyph glyph-name="five" unicode="5" horiz-adv-x="948" 
d="M117 528l106 695h543l-57 -181h-459l-60 -401l347 236q145 -53 221 -160t76 -260q0 -176 -119.5 -304.5t-323.5 -170.5l-352 219l123 137l403 -248q67 62 99 128.5t32 141.5q0 126 -77.5 218t-223.5 139z" />
    <glyph glyph-name="six" unicode="6" horiz-adv-x="948" 
d="M612 154q60 40 90.5 97.5t30.5 131.5q0 112 -73.5 197.5t-163.5 85.5q-11 0 -22 -4.5t-25 -14.5l-191 -129q32 -154 119.5 -244t234.5 -120zM496 -18q-203 58 -314.5 203t-111.5 350q0 196 110.5 377.5t325.5 338.5l321 -166l-127 -155l-292 155q-80 -81 -120 -196.5
t-40 -265.5q0 -10 1 -28t1 -28l393 271q119 -52 179.5 -137t60.5 -201q0 -135 -94.5 -261t-292.5 -257z" />
    <glyph glyph-name="seven" unicode="7" horiz-adv-x="801" 
d="M158 -16q18 274 148 541.5t366 516.5h-430q-47 -20 -92.5 -55.5t-92.5 -89.5l-30 18q35 62 71.5 135t81.5 173h658v-47q-211 -251 -319 -520.5t-122 -579.5z" />
    <glyph glyph-name="eight" unicode="8" horiz-adv-x="948" 
d="M590 750q56 40 79 73.5t23 71.5q0 82 -98 124.5t-320 55.5q-31 -42 -47 -80.5t-16 -72.5q0 -125 334 -167q30 -4 45 -5zM307 586q-58 -49 -87.5 -98.5t-29.5 -98.5q0 -95 93 -157t239 -62q117 0 184.5 46.5t67.5 125.5q0 93 -114 152.5t-353 91.5zM483 -18h-22
q-177 0 -288.5 85.5t-111.5 217.5q0 79 51.5 157.5t151.5 151.5q-82 23 -126 77.5t-44 135.5q0 96 75 208.5t220 235.5q195 -11 309.5 -84.5t114.5 -183.5q0 -77 -46 -138.5t-138 -107.5q107 -35 166 -108.5t59 -173.5q0 -128 -94.5 -248.5t-276.5 -224.5z" />
    <glyph glyph-name="nine" unicode="9" horiz-adv-x="948" 
d="M334 1079q-61 -40 -91 -97t-30 -132q0 -112 74 -197.5t164 -85.5q12 0 24 4t25 13l188 129q-32 154 -120 245t-234 121zM451 1251q197 -56 311.5 -200.5t114.5 -337.5q0 -209 -108.5 -390.5t-328.5 -340.5l-321 163l127 156l293 -154q80 82 119.5 196.5t39.5 264.5
q0 9 -1 27.5t-1 28.5l-393 -271q-119 52 -179.5 137t-60.5 201q0 135 95 262t293 258z" />
    <glyph glyph-name="colon" unicode=":" horiz-adv-x="522" 
d="M221 -23q-56 49 -92.5 89t-60.5 77l170 160q23 -31 58 -69.5t95 -98.5zM221 590q-56 49 -92.5 88.5t-60.5 77.5l170 159q23 -31 58 -69.5t95 -97.5z" />
    <glyph glyph-name="semicolon" unicode=";" horiz-adv-x="522" 
d="M244 592q-56 49 -93 88.5t-61 77.5l172 160q27 -35 63.5 -76t88.5 -92zM86 -127q48 42 70 75t22 64q0 28 -21 60.5t-69 79.5l160 151q26 -31 61 -65.5t88 -79.5q-29 -98 -96 -179.5t-174 -150.5z" />
    <glyph glyph-name="less" unicode="&#x3c;" horiz-adv-x="1706" 
d="M1442 1159v-153l-969 -396l969 -393v-154l-1178 484v129z" />
    <glyph glyph-name="equal" unicode="=" horiz-adv-x="1706" 
d="M254 481h1198v-139h-1198v139zM254 879h1198v-140h-1198v140z" />
    <glyph glyph-name="greater" unicode="&#x3e;" horiz-adv-x="1706" 
d="M264 1159l1178 -483v-129l-1178 -484v154l971 393l-971 396v153z" />
    <glyph glyph-name="question" unicode="?" horiz-adv-x="711" 
d="M244 375q-1 4 -1 12q-3 48 -3 68q0 50 7.5 100.5t22.5 99.5q9 27 25 76q63 195 63 252q0 78 -38.5 120t-110.5 42q-21 0 -59.5 -12t-124.5 -48l116 234q26 4 51 6t50 2q138 0 228.5 -80t90.5 -200q0 -45 -15.5 -93t-45.5 -96q-20 -30 -58 -84q-66 -95 -84 -133
q-29 -63 -44 -129t-17 -137h-53zM252 -23q-56 49 -93 89t-61 77l170 160q24 -31 59 -69.5t95 -98.5z" />
    <glyph glyph-name="at" unicode="@" horiz-adv-x="2019" 
d="M1186 332q-62 -105 -138 -156t-169 -51q-129 0 -206 92t-77 246q0 109 49.5 216t140.5 195q68 65 146 99.5t155 34.5q90 0 146 -48.5t76 -142.5l51 174h158l-172 -612l-4 -12q-15 -56 -15 -86q0 -51 23.5 -79t66.5 -28q33 0 80.5 20t89.5 52q119 90 179.5 228.5
t60.5 318.5q0 133 -52.5 245t-156.5 201q-90 77 -214 118.5t-267 41.5q-180 0 -335.5 -61.5t-275.5 -180.5q-126 -124 -190 -287t-64 -358q0 -182 57 -313t179 -234q109 -92 254 -141t307 -49q170 0 327 51.5t300 155.5l33 -41q-147 -110 -312.5 -166t-345.5 -56
q-189 0 -345.5 45.5t-274.5 135.5q-151 113 -230.5 276.5t-79.5 360.5q0 203 86.5 380.5t251.5 313.5q134 111 294.5 167t342.5 56q346 0 555 -188.5t209 -499.5q0 -159 -58.5 -298t-166.5 -237q-59 -52 -126 -80t-134 -28q-96 0 -149 53t-60 156zM1104 961
q-54 0 -98.5 -30.5t-90.5 -99.5q-71 -107 -113 -233.5t-42 -228.5q0 -86 39.5 -138.5t101.5 -52.5q65 0 122.5 43.5t111.5 132.5q55 93 88.5 204t33.5 198q0 92 -42 148.5t-111 56.5z" />
    <glyph glyph-name="A" unicode="A" horiz-adv-x="1233" 
d="M674 133l166 133l-2 158h-502l-74 -105zM434 569h402l-9 443l-36 55h-11zM317 506l269 391q-12 21 -35.5 33t-52.5 12q-56 0 -93.5 -25t-64.5 -79v12q0 90 62.5 149.5t156.5 59.5q28 0 57.5 -5t67.5 -16l49 72q-56 26 -109 38.5t-104 12.5q-160 0 -269.5 -101
t-109.5 -249q0 -82 46.5 -162t129.5 -143zM543 -35l-289 160q-32 18 -48.5 23.5t-33.5 5.5q-23 0 -39 -17.5t-16 -42.5q0 -15 11 -39.5t11 -36.5q0 -21 -14.5 -35t-36.5 -14q-25 0 -39 16t-14 44q0 33 17 73t57 99l182 264q-114 99 -167.5 195.5t-53.5 199.5q0 72 24 139.5
t72 128.5q74 95 184 148t232 53q100 0 193 -33.5t196 -107.5q47 63 103 99t130 50l4 -8q-88 -76 -121.5 -139t-33.5 -152v-8l14 -688q2 -86 14.5 -127t40.5 -65l68 51l33 -39l-234 -199q-60 35 -98.5 95t-50.5 137z" />
    <glyph glyph-name="B" unicode="B" horiz-adv-x="1464" 
d="M535 215q75 14 118 19.5t74 5.5q37 0 76.5 -6.5t85.5 -20.5v731h41v-213q88 48 139 126.5t51 164.5q0 66 -40 123.5t-115 99.5q-78 -18 -115 -64t-37 -124v-398q0 -183 -59 -272.5t-219 -171.5zM1137 575v74q0 22 -28 49.5t-71 44.5q-31 -18 -57 -35.5t-51 -37.5v-97
q33 -9 59 -13.5t47 -4.5q24 0 48.5 5t52.5 15zM930 383q24 7 49 10.5t53 3.5q22 0 48.5 -3.5t56.5 -10.5l-1 147q-26 -7 -50.5 -10.5t-49.5 -3.5t-52 3.5t-54 10.5v-147zM930 197l104 -37q16 9 51 24t52 23v133q-21 9 -46 13.5t-59 4.5q-22 0 -46.5 -3.5t-55.5 -12.5v-145z
M846 -33q-112 49 -207 70.5t-197 21.5q-120 0 -196 -38t-76 -97q0 -16 10 -50.5t10 -51.5q0 -24 -13 -39.5t-34 -15.5q-24 0 -41.5 21.5t-17.5 51.5q0 85 101 201l18 21q68 77 98.5 129t30.5 90q0 28 -14.5 45.5t-36.5 17.5q-31 0 -58.5 -17.5t-56.5 -56.5q-4 14 -6 28
t-2 28q0 61 41.5 100t128.5 60q1 5 1.5 11t0.5 17q0 64 -40 102.5t-106 38.5q-29 0 -64.5 -10t-76.5 -31q12 81 81 132t169 53q6 125 55 217t146 162q-34 -13 -63.5 -19t-59.5 -6q-37 0 -104.5 25.5t-100.5 25.5q-37 0 -67.5 -21.5t-59.5 -68.5l-6 2q19 106 92.5 174
t165.5 68q44 0 139.5 -27.5t147.5 -27.5q28 0 74.5 9t133.5 34l5 -9q-149 -77 -210 -173.5t-61 -256.5v-315q0 -173 -36 -270.5t-122 -192.5q130 75 195.5 180.5t65.5 239.5v340q0 216 114.5 322.5t388.5 146.5q92 -15 146.5 -75.5t54.5 -145.5q0 -74 -51.5 -153.5
t-177.5 -195.5q143 -14 204.5 -66t61.5 -159v-370q-127 -23 -254.5 -78.5t-263.5 -147.5z" />
    <glyph glyph-name="C" unicode="C" horiz-adv-x="1208" 
d="M651 170v979l-84 -70v-381q0 -108 -45 -190.5t-157 -175.5q55 -62 127.5 -103t158.5 -59zM332 365q13 18 18.5 45t5.5 77v23v481l400 336q99 -57 199 -87t194 -30h10l-182 -198q-53 23 -122 49t-157 55v-954q20 -3 41.5 -4.5t44.5 -1.5q105 0 201.5 44t200.5 140l14 -8
q-92 -189 -227 -277t-332 -88q-262 0 -431 171t-169 437q0 218 112.5 387t303.5 238l4 -8q-127 -97 -185.5 -209t-58.5 -256q0 -114 28.5 -204t86.5 -158z" />
    <glyph glyph-name="D" unicode="D" horiz-adv-x="1546" 
d="M836 268q93 -6 186.5 -22.5t189.5 -44.5q1 4 1 12q3 85 4 123v43q-38 39 -84.5 58.5t-104.5 19.5q-54 0 -103.5 -20t-88.5 -58v-111zM836 440q53 30 102.5 45t95.5 15q50 0 95.5 -14t84.5 -42v41q0 58 -3.5 110.5t-10.5 100.5q-41 -31 -85.5 -46t-98.5 -15t-98.5 13.5
t-81.5 41.5v-250zM1192 756q-12 160 -94 236.5t-242 76.5h-20v-313q35 -40 77.5 -59t98.5 -19q58 0 101 18.5t79 59.5zM613 271q20 2 43.5 3.5t48.5 1.5q20 0 41.5 -1.5t41.5 -4.5v799h-43q-26 -35 -38.5 -85t-12.5 -122v-330q0 -99 -19 -156.5t-62 -104.5zM55 2
q110 95 157.5 168.5t47.5 146.5t-37 117.5t-96 44.5q-34 0 -66.5 -18t-60.5 -51q8 89 70 139.5t163 50.5q26 0 38.5 -1t23.5 -3q8 150 82.5 265t217.5 198q-85 -2 -177 -6t-101 -4q-126 0 -200 73t-74 199q0 20 0.5 30t1.5 19l12 2q16 -57 71 -91t134 -34q32 0 224 16.5
t354 16.5q183 0 278.5 -36.5t165.5 -125.5q80 -100 121 -288.5t41 -456.5q0 -41 -1.5 -86.5t-5.5 -96.5q-84 -29 -164 -82t-163 -135q-124 46 -249.5 69.5t-246.5 23.5q-124 0 -260 -43t-282 -127l-19 26q68 46 197 127t184 121q111 78 161 161.5t50 190.5v334
q0 68 10.5 118.5t32.5 88.5q-89 -29 -127.5 -81.5t-38.5 -145.5v-263q0 -76 -22.5 -148.5t-65.5 -135.5q-30 -44 -111 -111t-255 -192z" />
    <glyph glyph-name="E" unicode="E" horiz-adv-x="1208" 
d="M700 764l232 254l-232 92v-346zM653 170v979l-86 -70v-381q0 -108 -45 -190.5t-157 -175.5q56 -63 128.5 -103.5t159.5 -58.5zM332 365q13 18 18.5 45t5.5 77v23v481l394 336q78 -52 172.5 -78t205.5 -26q25 0 37 0.5t22 0.5l-278 -304h215q-17 -38 -51.5 -108.5
t-50.5 -104.5h-322v-545q20 -3 40.5 -4.5t41.5 -1.5q106 0 202.5 44t201.5 140l14 -8q-92 -189 -227 -277t-332 -88q-262 0 -431 171t-169 437q0 218 112.5 387t303.5 238l4 -8q-125 -95 -186.5 -211t-61.5 -256q0 -104 30.5 -196.5t88.5 -163.5z" />
    <glyph glyph-name="F" unicode="F" horiz-adv-x="1319" 
d="M588 1063v-651q0 -205 -47 -321.5t-158 -203.5q165 51 242 164.5t77 304.5v740q-23 -13 -50.5 -21t-63.5 -12zM393 729h-170q-69 0 -116.5 -22.5t-83.5 -73.5h-17q11 127 99.5 204.5t222.5 77.5h65v197q8 -1 16.5 -1.5t26.5 -0.5q118 0 234.5 53t259.5 172
q59 -30 120 -45.5t121 -15.5q51 0 102 11.5t105 35.5l8 -6q-22 -122 -98.5 -188t-193.5 -66q-48 0 -97 12t-100 37v-195h289l-64 -186h-225v-330q0 -238 -93.5 -360t-324.5 -193l-269 -82q-21 -7 -40.5 -10.5t-38.5 -3.5q-50 0 -131.5 32t-112.5 32q-41 0 -65.5 -24
t-38.5 -77h-16v17q0 128 60 203t163 75q70 0 174 -67l3 -2q15 -9 39 -25q64 -41 83 -41q43 0 73.5 76.5t30.5 197.5v582z" />
    <glyph glyph-name="G" unicode="G" horiz-adv-x="1370" 
d="M721 66q117 0 214 52.5t163 151.5q-43 24 -86 35.5t-88 11.5q-42 0 -91 -10.5t-112 -34.5v-206zM721 492v-173q56 21 106 31t97 10q53 0 99.5 -11.5t88.5 -35.5q17 33 25 70t8 80q0 18 -0.5 26.5t-1.5 15.5q-63 -31 -117.5 -47t-99.5 -16q-48 0 -98.5 12.5t-106.5 37.5z
M721 745v-202q56 -31 106 -45.5t99 -14.5q51 0 102 17.5t105 52.5q-14 97 -90.5 158t-184.5 61q-32 0 -66 -6.5t-71 -20.5zM671 68l1 655q-23 -6 -43.5 -15.5t-42.5 -23.5v-158q0 -49 -6.5 -72.5t-22.5 -39.5q-15 -17 -53.5 -51t-130.5 -113q69 -82 144 -127.5t154 -54.5z
M586 750l327 264l-327 131v-395zM377 967q-62 -54 -93.5 -141t-31.5 -203q0 -103 24 -186t70 -142q17 10 24 31t7 82v559zM748 1325q93 -57 184 -85t182 -28q33 0 63.5 2.5t63.5 8.5l6 -11l-293 -233q179 -46 268 -149t89 -263q0 -106 -57.5 -215t-159.5 -194
q-107 -90 -251 -140.5t-294 -50.5q-219 0 -361.5 143t-142.5 361q0 172 95 331t274 285z" />
    <glyph glyph-name="H" unicode="H" horiz-adv-x="1479" 
d="M823 449q54 14 93.5 21t68.5 7q40 0 83 -8.5t93 -26.5v226q-45 -15 -86.5 -22t-81.5 -7q-27 0 -68 6.5t-102 20.5v-217zM823 711q61 -18 103 -25.5t75 -7.5q36 0 76 8.5t82 26.5q-11 77 -46 130.5t-97 84.5l-193 -162v-55zM846 -41q-76 48 -182 74t-222 26
q-120 0 -196 -38t-76 -97q0 -16 10 -50.5t10 -51.5q0 -24 -13 -39.5t-34 -15.5q-24 0 -41.5 21.5t-17.5 51.5q0 85 101 201l18 21q68 77 98.5 129t30.5 90q0 28 -14.5 45.5t-36.5 17.5q-31 0 -58.5 -17.5t-56.5 -56.5q-4 14 -6 28t-2 28q0 61 41.5 100t128.5 60q1 5 1.5 11
t0.5 17q0 64 -40 102.5t-106 38.5q-29 0 -64.5 -10t-76.5 -31q12 81 81 132t169 53q3 117 49.5 205t151.5 174q-34 -13 -63.5 -19t-59.5 -6q-37 0 -104.5 25.5t-100.5 25.5q-37 0 -67.5 -21.5t-59.5 -68.5l-6 2q19 106 92.5 174t165.5 68q42 0 139.5 -27.5t149.5 -27.5
q29 0 75.5 9.5t130.5 33.5l5 -9q-148 -71 -209.5 -168.5t-61.5 -261.5v-315q0 -173 -36 -270.5t-122 -192.5q137 76 199 176t62 244v356q0 188 104.5 296t331.5 153l4 -4q-132 -72 -186 -145.5t-54 -174.5v-209l330 271q128 -88 184 -206t56 -302q0 -104 -10 -169t-31 -124
q-42 -112 -201 -241l-10 -9q-21 -17 -59 -47q-117 -92 -117 -137q0 -15 11 -23t32 -8h24q29 0 42 -11t13 -34q0 -24 -24.5 -42t-61.5 -18q-44 0 -77 34t-33 81q0 36 19.5 76.5t76.5 116.5l8 9q148 193 164 359q-43 19 -84 28t-80 9q-101 0 -215 -56.5t-223 -160.5q15 2 32 3
t48 1q52 0 125 -9t94 -9q45 0 80.5 17.5t67.5 55.5l28 -28z" />
    <glyph glyph-name="I" unicode="I" horiz-adv-x="977" 
d="M53 629q17 83 83.5 130.5t166.5 47.5h6q8 132 51.5 231.5t128.5 184.5q-50 -25 -89 -36t-72 -11q-37 0 -98 12t-85 12q-37 0 -65 -21.5t-53 -70.5l-17 2q23 102 89 160.5t159 58.5q32 0 107.5 -12t117.5 -12q34 0 75 7t93 21l8 -14q-85 -63 -125 -156t-40 -229
q0 -109 23.5 -281.5t23.5 -236.5q0 -115 -51 -166t-166 -54q60 -66 120.5 -102.5t108.5 -36.5q61 0 89 36.5t28 115.5q0 114 -36 355.5t-36 367.5q0 195 76 292.5t231 102.5v-18q-73 -20 -100 -54t-27 -110q0 -127 38 -367.5t38 -355.5q0 -206 -94 -330.5t-248 -124.5
q-74 0 -201 47q-12 4 -19 7q-9 3 -30 11q-108 40 -156 40q-50 0 -86.5 -26t-66.5 -83l-12 4v4q0 113 69 190t166 77q16 0 38.5 -2.5t29.5 -2.5q74 0 102.5 35.5t28.5 132.5q0 141 -41 202t-135 61q-30 0 -66 -9t-80 -26z" />
    <glyph glyph-name="J" unicode="J" horiz-adv-x="1038" 
d="M403 -137q167 26 239.5 133t72.5 332v374q0 177 50 289.5t171 222.5q-168 -82 -247 -193t-79 -265v-463q0 -200 -46.5 -294t-160.5 -136zM-98 -268q26 127 91.5 190.5t170.5 63.5q52 0 128 -19.5t99 -19.5q58 0 84.5 32.5t26.5 102.5q0 138 -98 233t-267 119
q27 30 62.5 45t81.5 15q35 0 71.5 -9.5t73.5 -27.5q-3 110 -74 172.5t-194 62.5q26 37 64 55.5t87 18.5q37 0 71 -7.5t64 -23.5q5 122 81.5 221.5t248.5 204.5q-74 -33 -135.5 -49t-112.5 -16q-69 0 -186.5 40t-165.5 40q-51 0 -82 -21t-31 -55q0 -16 4.5 -25.5t12.5 -9.5
q2 0 24.5 7t40.5 7q40 0 58 -18t18 -57q0 -35 -24 -57.5t-62 -22.5q-49 0 -84 40.5t-35 98.5q0 107 97.5 187.5t234.5 80.5q76 0 228 -38t227 -38q54 0 122.5 17.5t157.5 52.5l4 -35q-100 -81 -141 -176t-41 -297q0 -35 3 -146t3 -188q0 -167 -52 -291.5t-169 -238.5
q-100 -97 -193 -147t-173 -50q-68 0 -162.5 35t-120.5 35q-36 0 -64.5 -23.5t-58.5 -78.5z" />
    <glyph glyph-name="K" unicode="K" horiz-adv-x="1395" 
d="M556 226q7 0 18 0.5t32 0.5q80 0 151.5 -16t137.5 -49l88 98q-74 132 -136 187t-132 55q-4 0 -11.5 -1t-11.5 -1q-6 -89 -39 -155.5t-97 -118.5zM692 563h25q20 16 116.5 95t174.5 143l-136 155q-46 -35 -90.5 -68t-89.5 -63v-262zM68 2l10 10q211 218 211 318
q0 52 -26.5 85.5t-67.5 33.5q-12 0 -32.5 -7t-47.5 -20q8 58 42 89.5t89 31.5q24 0 53.5 -9.5t62.5 -27.5v16q0 105 -48.5 167.5t-129.5 62.5q-15 0 -38 -5t-74 -20q16 64 59.5 98.5t106.5 34.5q27 0 54.5 -8t55.5 -24q2 133 59.5 235t176.5 184q-73 -51 -133.5 -74.5
t-118.5 -23.5q-26 0 -63.5 5t-49.5 5q-73 0 -116.5 -24.5t-77.5 -83.5l-13 4q11 127 79.5 199.5t176.5 72.5q40 0 116.5 -16.5t111.5 -16.5q31 0 72 10t96 31l2 -22q-55 -92 -82 -183t-27 -182v-405q0 -71 -18.5 -127t-53.5 -90q-15 -16 -95.5 -87t-139.5 -124l14 -13
q52 29 100.5 52.5t96.5 42.5q102 68 145 145t43 190v367q0 117 31 226t92 210h43q-62 -110 -92.5 -216.5t-30.5 -213.5v-28q69 44 150.5 113t175.5 163l215 -240q-63 -39 -276 -213l-56 -45q135 -63 308 -344q56 -91 87 -139l52 51l30 -28l-202 -228q-41 42 -80.5 99
t-85.5 143l-215 -246q-107 43 -197 65.5t-152 22.5q-57 0 -145.5 -22.5t-210.5 -67.5z" />
    <glyph glyph-name="L" unicode="L" horiz-adv-x="1190" 
d="M125 -6q112 89 166.5 166.5t54.5 148.5q0 74 -40.5 112t-133.5 52q23 23 47.5 34t52.5 11q12 0 28 -3t44 -11q0 4 1 12t1 10q0 70 -43 108t-121 38q-14 0 -30 -1.5t-33 -4.5q17 45 56.5 70.5t92.5 25.5q15 0 32.5 -3.5t34.5 -8.5q-4 27 -6.5 51t-2.5 45q0 97 41 187
t125 173q-46 -30 -88 -44.5t-82 -14.5q-38 0 -103 18.5t-92 18.5q-36 0 -66 -21.5t-55 -64.5l-22 12q22 107 84.5 163t156.5 56q51 0 138.5 -25.5t123.5 -25.5t78 11t90 34l11 -16q-87 -67 -127.5 -143.5t-40.5 -174.5q0 -53 10 -178.5t10 -200.5q0 -136 -39.5 -248
t-134.5 -241q152 111 217.5 231.5t65.5 292.5q0 56 -9.5 169t-9.5 169q0 178 80 260t254 82h27l2 -26q-96 -10 -140.5 -56.5t-44.5 -136.5q0 -37 8.5 -141.5t8.5 -171.5q0 -208 -70.5 -342t-238.5 -252q95 31 169 46t128 15q42 0 83 -9t99 -34q34 -14 75 -42t52 -28
q7 0 13.5 3t12.5 10l35 30l35 -28l-227 -219q-87 74 -181.5 109.5t-203.5 35.5q-101 0 -212.5 -30.5t-232.5 -90.5z" />
    <glyph glyph-name="M" unicode="M" horiz-adv-x="1774" 
d="M1094 154l63 53v387h-131v-340q0 -50 14.5 -68.5t53.5 -31.5zM350 86q22 -6 39 -9t31 -3q62 0 94.5 39.5t32.5 115.5v752q0 36 9 69t28 68q-63 -41 -90 -96.5t-27 -147.5v-540q0 -98 -28.5 -158.5t-88.5 -89.5zM594 635l76 110h143v349q0 37 -33 59.5t-89 24.5
q-49 -44 -73 -96.5t-24 -114.5v-332zM1026 745h131v385l-131 -86v-299zM-61 -178q0 99 47.5 162.5t133.5 80.5q25 5 67 12q74 12 92 21q49 27 72.5 65t23.5 93q0 105 -64 180.5t-151 75.5q-28 0 -58.5 -5.5t-64.5 -17.5q14 88 68.5 134.5t152.5 54.5q6 175 63.5 281
t182.5 176l362 200q78 -44 116.5 -98.5t43.5 -125.5l336 218l211 -143l80 59l28 -22q-47 -58 -64.5 -96t-17.5 -80v-789q0 -48 13.5 -78t32.5 -30q5 0 12 3.5t14 10.5l19 18l32 -30l-186 -183q-78 29 -116 91.5t-38 162.5v856l-141 107l-37 -21v-420h109l-109 -151v-350
l45 39l31 -33l-313 -279q-41 51 -92 99t-115 96v16l24 23q13 11 21 27.5t8 31.5v330h-219v-377q0 -147 -78 -241.5t-197 -94.5q-34 0 -105.5 14.5t-109.5 14.5q-55 0 -90 -21t-57 -67h-18z" />
    <glyph glyph-name="N" unicode="N" horiz-adv-x="1456" 
d="M723 537q56 34 101 48.5t91 14.5t90.5 -16.5t88.5 -48.5q21 52 32 103.5t11 98.5q0 20 -2 38t-7 36q-41 -39 -93 -59.5t-107 -20.5q-53 0 -102.5 17.5t-102.5 54.5v-266zM723 856q55 -41 106 -61.5t99 -20.5q53 0 101 22t87 64q-37 113 -139.5 180.5t-253.5 79.5v-264z
M453 18q6 -1 12 -1.5t18 -0.5q92 0 141.5 75.5t49.5 215.5v809l-76 -41v-723q0 -140 -35 -219.5t-110 -114.5zM-109 -111q53 85 115 124.5t139 39.5q34 0 95.5 -8t89.5 -8q68 0 104.5 30.5t36.5 88.5q0 80 -62.5 130t-164.5 50q-27 0 -43 -1t-31 -3q24 41 61.5 61.5
t87.5 20.5q19 0 42 -3.5t47 -9.5q-23 89 -80 135t-144 46q-14 0 -29 -1.5t-32 -4.5q22 40 55.5 59.5t81.5 19.5q32 0 69 -10.5t81 -32.5q-19 103 -90 159t-183 56h-12q26 35 59.5 51.5t79.5 16.5q30 0 66.5 -8.5t79.5 -26.5v166l491 301q220 -70 333.5 -188.5t113.5 -278.5
q0 -152 -77 -318.5t-235 -355.5q42 13 78 19t68 6q37 0 81.5 -6t96.5 -19l35 50l41 -25l-140 -244q-62 18 -107.5 26.5t-80.5 8.5q-83 0 -144.5 -36.5t-103.5 -110.5l-20 16q12 93 127 350q75 166 114 264q-43 38 -82.5 55t-80.5 17q-49 0 -93.5 -15.5t-101.5 -54.5v-219
q0 -176 -110 -298t-267 -122q-66 0 -172 33t-145 33q-33 0 -66.5 -9t-66.5 -26z" />
    <glyph glyph-name="O" unicode="O" horiz-adv-x="1434" 
d="M342 328q29 36 42 78t13 102v522q-82 -72 -124 -167.5t-42 -213.5q0 -91 28.5 -173t82.5 -148zM375 287q70 -68 140.5 -102.5t141.5 -37.5v979h-77v-497q0 -84 -41 -155t-164 -187zM709 147q131 8 244 92.5t184 229.5q-40 59 -96 88t-128 29q-47 0 -98.5 -25.5
t-105.5 -75.5v-338zM709 549q58 41 109 59.5t104 18.5q70 0 126.5 -24.5t110.5 -78.5q15 34 23 70t8 74q0 54 -14 101t-41 87q-47 -45 -103.5 -67.5t-122.5 -22.5q-48 0 -97 16t-103 49v-282zM709 895q51 -45 101.5 -66.5t104.5 -21.5q63 0 112.5 23t84.5 69
q-53 92 -152.5 148t-250.5 77v-229zM117 905q135 82 295.5 189t343.5 237q283 -32 458 -191t175 -378q0 -116 -56.5 -232t-171.5 -235q-153 -158 -309.5 -243t-292.5 -85q-116 0 -210 44t-167 132q-69 87 -104 188t-35 214q0 81 18.5 170.5t55.5 189.5z" />
    <glyph glyph-name="P" unicode="P" horiz-adv-x="1395" 
d="M727 289q110 -22 192.5 -47t151.5 -58v267q-38 33 -81 49t-95 16q-47 0 -88.5 -12.5t-79.5 -38.5v-176zM727 508q38 25 82 38t92 13q39 0 81 -12.5t89 -38.5v254q-37 -25 -79 -37t-91 -12q-52 0 -95 11.5t-79 35.5v-252zM1071 821q-11 140 -96.5 228.5t-212.5 93.5
l-35 -19v-301q25 -31 72.5 -49t103.5 -18q53 0 97.5 17.5t70.5 47.5zM594 -227h86v1323l-86 -58v-1265zM377 649v228l-152 -103zM377 -285v365h-27q-70 0 -152 -20.5t-180 -63.5l-14 24q54 86 146 149t223 103q-14 131 -96.5 236t-231.5 182v8l332 230v131q0 71 -41 112
t-113 41q-26 0 -62 -5.5t-81 -16.5v29q61 53 125.5 80.5t128.5 27.5q108 0 177 -65.5t75 -176.5l94 58v184h47v-149l217 151q104 -71 173 -131t110 -117q38 -52 54.5 -113t16.5 -188v-563l-299 -250q-95 43 -159.5 63.5t-112.5 24.5v-340h-188h-99h-63z" />
    <glyph glyph-name="Q" unicode="Q" horiz-adv-x="1489" 
d="M117 905q135 82 295.5 189t343.5 237q283 -32 458 -191t175 -378q0 -123 -61.5 -245.5t-182.5 -242.5l186 -155q1 -1 5 -4q21 -19 34 -19q7 0 11.5 2t10.5 6l23 19l35 -35l-201 -184l-270 227q-119 -81 -225.5 -122.5t-194.5 -41.5q-116 0 -210 44t-167 132
q-69 87 -104 188t-35 214q0 81 18.5 170.5t55.5 189.5zM709 549q58 41 109 59.5t104 18.5q70 0 126.5 -24.5t110.5 -78.5q15 34 23 70t8 74q0 54 -14 101t-41 87q-47 -45 -103.5 -67.5t-122.5 -22.5q-48 0 -97 16t-103 49v-282zM709 147q131 8 244 92.5t184 229.5
q-40 59 -96 88t-128 29q-47 0 -98.5 -25.5t-105.5 -75.5v-338zM375 287q70 -68 140.5 -102.5t141.5 -37.5v979h-77v-497q0 -84 -41 -155t-164 -187zM342 328q29 36 42 78t13 102v522q-82 -72 -124 -167.5t-42 -213.5q0 -91 28.5 -173t82.5 -148zM709 895q51 -45 101.5 -66.5
t104.5 -21.5q63 0 112.5 23t84.5 69q-53 92 -152.5 148t-250.5 77v-229z" />
    <glyph glyph-name="R" unicode="R" horiz-adv-x="1446" 
d="M737 649l287 211l-229 318l-58 -41v-488zM690 1104l-86 -62v-770q20 0 41.5 -3t44.5 -9v844zM385 666v219l-145 -107zM27 -4l-9 16q73 98 166 162t207 96q-14 141 -97.5 246t-236.5 174v12l328 240v117q0 71 -41 112t-113 41q-26 0 -60.5 -5.5t-80.5 -16.5v29
q61 53 126.5 80.5t131.5 27.5q109 0 172.5 -61t73.5 -174l354 243q37 -44 166 -221q75 -102 119 -162l-279 -198q96 -52 164.5 -132t110.5 -190q12 -31 32 -88q59 -164 103 -199l45 39l29 -32l-189 -185h-26q-48 34 -84.5 95t-81.5 190q-66 187 -138.5 264.5t-177.5 77.5h-4
v-344q58 -23 102.5 -45t80.5 -45l43 43l30 -31l-211 -217q-100 71 -182.5 101t-175.5 30q-94 0 -194 -22.5t-203 -67.5z" />
    <glyph glyph-name="S" unicode="S" horiz-adv-x="1489" 
d="M788 907l68 119q-82 59 -167 92t-154 33q-75 0 -120.5 -38t-45.5 -99q0 -59 52 -93t144 -34q29 0 76 4t147 16zM690 612q76 10 130 14.5t91 4.5q127 0 198 -45.5t71 -124.5q0 -67 -57.5 -126.5t-192.5 -129.5q27 -10 84 -31.5t86 -32.5q95 75 140.5 154t45.5 170
q0 132 -91.5 202t-264.5 70q-45 0 -90 -3.5t-93 -11.5zM250 848q-26 -23 -38.5 -46t-12.5 -46q0 -70 75.5 -113t202.5 -43q43 0 78 2t66 6l61 107q-52 -4 -94 -6t-64 -2q-104 0 -174 36t-100 105zM858 231q70 47 103.5 84t33.5 68q0 35 -26.5 49t-98.5 14q-56 0 -212 -14
q-47 -4 -72 -6l-56 -104q57 -11 137 -33t191 -58zM590 96q-105 44 -199.5 67t-167.5 23q-65 0 -101 -24t-36 -68q0 -45 47 -72.5t125 -27.5q66 0 153.5 26.5t178.5 75.5zM668 72q-137 -63 -240.5 -93t-181.5 -30q-104 0 -171 53.5t-67 132.5q0 93 81.5 152t213.5 59
q30 0 73 -4t99 -12l49 94h-32q-191 0 -305.5 74t-114.5 194q0 65 39.5 112.5t121.5 82.5v12q0 70 37 138t111 134l188 168q4 -1 12 -4q272 -103 375 -131l43 82l45 -24l-194 -351q36 3 53 3.5t31 0.5q227 0 360 -105.5t133 -283.5q0 -153 -120.5 -286t-389.5 -275
q-25 13 -210 90q-26 11 -39 17z" />
    <glyph glyph-name="T" unicode="T" horiz-adv-x="1309" 
d="M477 281q35 30 49.5 65.5t14.5 95.5v668l-25 4q-103 -102 -151 -212.5t-48 -248.5q0 -115 40 -207.5t120 -164.5zM522 250q54 -48 131 -73t170 -25q21 0 31 0.5t18 1.5v897l-127 26v-411q0 -133 -47.5 -221.5t-175.5 -194.5zM23 944q27 187 152 285t335 98q44 0 101.5 -7
t152.5 -26q43 -8 122 -27q153 -36 224 -36q54 0 90.5 24t69.5 82l16 -4q-9 -136 -90.5 -211t-222.5 -75h-32.5t-20.5 2v-887q107 26 190 91.5t150 178.5l20 -8q-52 -220 -194 -338.5t-355 -118.5q-137 0 -252 44t-205 130q-79 78 -119 177.5t-40 218.5q0 168 88.5 316
t260.5 269q-33 6 -59.5 8.5t-48.5 2.5q-103 0 -178.5 -45.5t-136.5 -143.5h-18z" />
    <glyph glyph-name="U" unicode="U" horiz-adv-x="1554" 
d="M483 258q54 -46 125 -68t166 -22h14v1092q-38 -39 -56.5 -86.5t-18.5 -108.5v-416q0 -133 -50 -217t-180 -174zM522 500v325q0 102 40.5 187t127.5 166q-170 -89 -261 -236t-91 -332q0 -96 28.5 -176t86.5 -145q36 34 52.5 84.5t16.5 126.5zM836 172q78 5 152 32.5
t147 78.5v254q-35 20 -70 30.5t-70 10.5q-42 0 -81.5 -10.5t-77.5 -30.5v-365zM836 793v-211q37 19 74 29t75 10t75 -10t75 -29v211q-36 -20 -74 -29.5t-76 -9.5t-75 9.5t-74 29.5zM1137 221q-126 -132 -246 -193t-252 -61q-224 0 -371 150.5t-147 378.5q0 211 130.5 389
t375.5 301q-54 -16 -100 -24.5t-85 -8.5q-20 0 -61 4t-62 4q-105 0 -168.5 -46t-103.5 -152l-22 -2v6q0 166 76.5 263t205.5 97q45 0 154.5 -24.5t175.5 -24.5q51 0 87 11.5t64 37.5h48v-489q38 -21 76 -31t77 -10q38 0 74 10t72 31v243l-86 60l-68 -80l-35 26l205 240
l186 -125l101 84l16 -14q-41 -53 -62.5 -105.5t-21.5 -99.5v-805q0 -51 9.5 -81.5t29.5 -51.5l61 57l27 -32l-186 -187h-37q-62 53 -96 115.5t-41 138.5z" />
    <glyph glyph-name="V" unicode="V" horiz-adv-x="1266" 
d="M578 823q50 -15 95 -22.5t89 -7.5q49 0 100 11.5t107 35.5q-7 104 -33.5 190.5t-75.5 159.5l-313 -168q12 -48 19.5 -97t11.5 -102zM543 526q35 11 71.5 16t75.5 5q65 0 123 -12.5t111 -36.5q24 65 36.5 138t12.5 157q-53 -22 -105.5 -32.5t-107.5 -10.5q-36 0 -80.5 7
t-101.5 21q-2 -65 -10.5 -128t-24.5 -124zM346 92l19 -4q82 60 148.5 88.5t123.5 28.5q28 0 60.5 -7.5t72.5 -23.5q52 79 87 148.5t54 132.5q-54 25 -106.5 38t-104.5 13q-41 0 -84 -7t-88 -22q-16 -71 -59.5 -163t-122.5 -222zM258 8q54 137 76 217t22 133
q0 96 -52.5 149.5t-145.5 53.5q-18 0 -27 -0.5t-16 -1.5q1 61 40.5 99t102.5 38q30 0 59.5 -11.5t61.5 -35.5q-12 245 -75.5 381.5t-164.5 136.5q-28 0 -55.5 -18t-58.5 -57l-15 4q18 112 80 175.5t154 63.5q101 0 176 -68.5t112 -197.5l525 274q68 -99 103.5 -218
t35.5 -251q0 -197 -108.5 -396.5t-399.5 -510.5q-67 37 -113.5 53.5t-82.5 16.5q-40 0 -90 -13.5t-105 -39.5z" />
    <glyph glyph-name="W" unicode="W" horiz-adv-x="2200" 
d="M1573 522v-358q55 13 112.5 41.5t122.5 75.5v241q-34 12 -63 18.5t-49 6.5q-30 0 -60 -6t-63 -19zM1808 569v207q-34 -11 -64.5 -16.5t-57.5 -5.5t-55.5 5.5t-57.5 16.5v-207q33 12 61.5 17.5t55.5 5.5q26 0 55 -5.5t63 -17.5zM1219 254q57 -51 125.5 -75.5t152.5 -24.5
h29v1087q-43 -25 -61.5 -66t-18.5 -112v-420q0 -147 -52 -235t-175 -154zM1190 287q39 39 55.5 84t16.5 127v313q0 101 35.5 188t107.5 162q-149 -80 -230 -225.5t-81 -331.5q0 -94 24 -174t72 -143zM438 252q54 -51 122.5 -75.5t154.5 -24.5q19 0 30 0.5t19 1.5v1087
q-53 -31 -76.5 -76t-23.5 -116v-406q0 -145 -51.5 -233.5t-174.5 -157.5zM623 1161q-157 -66 -244.5 -213.5t-87.5 -347.5q0 -97 28 -173.5t87 -139.5q32 30 47.5 82.5t15.5 128.5v313q0 94 38 180t116 170zM1352 1174q-30 -9 -61 -13t-62 -4q-20 0 -60 4t-59 4
q-87 0 -143 -35t-82 -106l-29 10q23 144 89.5 220.5t168.5 76.5q52 0 146 -35.5t137 -35.5q47 0 77.5 17t45.5 52h53v-506q34 -13 62.5 -19.5t54.5 -6.5q25 0 53.5 6.5t64.5 19.5v258l-65 68l-60 -59l-41 30l201 209l148 -141l129 82l18 -17q-44 -51 -68 -104t-24 -98v-791
q0 -48 8.5 -78t28.5 -51l71 59l31 -36l-203 -187q-78 39 -119.5 101t-47.5 151q-121 -129 -234 -190.5t-227 -61.5q-130 0 -231 68.5t-158 195.5q-90 -134 -191 -199t-221 -65q-191 0 -319 144.5t-128 365.5q0 225 118 405.5t337 293.5q-42 -16 -79.5 -23.5t-73.5 -7.5
q-20 0 -60.5 5t-60.5 5q-94 0 -147.5 -40.5t-88.5 -137.5l-30 6q4 161 74.5 252.5t189.5 91.5q45 0 148 -38t165 -38q57 0 96.5 19t69.5 59h51v-1165q32 18 64 47t63 68q-18 50 -27.5 102.5t-9.5 105.5q0 220 113 393.5t334 293.5z" />
    <glyph glyph-name="X" unicode="X" horiz-adv-x="1204" 
d="M299 -33q-62 53 -129.5 92t-142.5 66l84 197l241 -99l160 357v34h-346l63 152h222l-150 297q-25 51 -68 82t-88 31q-24 0 -58 -14t-75 -42l-12 13q46 98 113 146t157 48q75 0 122.5 -37t96.5 -137l158 -319l223 497q92 -57 153 -92t112 -59l-82 -181l-228 97l-141 -310
v-20h356l-65 -152h-230l189 -391q12 -26 31 -47.5t47 -40.5l63 60l33 -37l-190 -191q-54 15 -95.5 60t-93.5 153l-174 365z" />
    <glyph glyph-name="Y" unicode="Y" horiz-adv-x="1380" 
d="M539 250h90v870l-90 -41v-829zM676 250h67q100 0 174 75t101 205q-41 35 -84 52.5t-88 17.5q-51 0 -91.5 -14.5t-78.5 -46.5v-289zM1028 578q8 53 11 87t3 62q0 24 -2 54.5t-8 76.5q-47 -36 -93 -54t-93 -18q-43 0 -85 13.5t-85 40.5v-250q40 28 81.5 40.5t92.5 12.5
q42 0 86.5 -16.5t91.5 -48.5zM1024 903q-21 130 -81 199t-150 69q-29 0 -58 -7t-59 -21v-248q40 -33 81.5 -49.5t84.5 -16.5q46 0 90.5 18t91.5 56zM330 252v80q0 92 -56.5 166.5t-164.5 126.5v14q12 2 25.5 3t37.5 1q38 0 77 -10.5t81 -32.5q0 5 1 16.5t1 16.5
q0 95 -53.5 161.5t-163.5 108.5v15q22 6 45 9t45 3q27 0 58.5 -7t65.5 -20l1 172q0 98 -44.5 143.5t-140.5 45.5h-26v16q41 23 81.5 34t84.5 11q96 0 164.5 -52t93.5 -145q113 78 202 115t162 37q170 0 269.5 -126.5t99.5 -344.5q0 -295 -142 -449.5t-411 -154.5h-348
q-146 0 -222.5 -52.5t-76.5 -152.5q0 -76 51.5 -124t134.5 -48q27 0 52 4t44 12q24 10 70 30q238 101 344 101q98 0 158.5 -48.5t60.5 -125.5q0 -38 -23.5 -63t-60.5 -25q-35 0 -57.5 22.5t-22.5 57.5q0 22 16.5 51.5t16.5 34.5q0 17 -8.5 25t-26.5 8q-24 0 -151 -67
q-43 -23 -67 -35q-11 -6 -30 -16q-155 -83 -260 -83q-124 0 -207 79.5t-83 199.5q0 118 80 187.5t223 74.5z" />
    <glyph glyph-name="Z" unicode="Z" horiz-adv-x="1110" 
d="M-37 -2q70 80 145 194.5t222 374.5h-232l31 68h236q13 25 28 48t33 46h-252l31 68h268q64 86 167 190t261 240q-129 -77 -245 -113.5t-230 -36.5q-72 0 -140 13t-134 38l-64 -63l-37 29q50 56 99.5 114t99.5 119q106 -49 194 -71.5t170 -22.5q90 0 189.5 19.5t206.5 58.5
l10 -15q-49 -60 -113.5 -173t-171.5 -326h230l-31 -68h-236q-15 -28 -31 -51.5t-32 -42.5h254l-31 -68h-266q-64 -93 -175 -204.5t-296 -268.5q162 79 288.5 114.5t241.5 35.5q78 0 151 -18.5t140 -55.5l70 76l37 -29q-80 -95 -125.5 -151.5t-77.5 -98.5q-125 60 -228 87.5
t-196 27.5q-96 0 -209 -25.5t-236 -74.5z" />
    <glyph glyph-name="bracketleft" unicode="[" horiz-adv-x="678" 
d="M217 1579h404v-45h-201v-1739h201v-43h-404v1827z" />
    <glyph glyph-name="backslash" unicode="\" horiz-adv-x="633" 
d="M522 -190l-522 1517h113l520 -1517h-111z" />
    <glyph glyph-name="bracketright" unicode="]" horiz-adv-x="678" 
d="M459 -248h-404v45h199v1739h-199v41h404v-1825z" />
    <glyph glyph-name="asciicircum" unicode="^" horiz-adv-x="2048" 
d="M926 1462h194l512 -565h-98l-512 420l-514 -420h-96z" />
    <glyph glyph-name="underscore" unicode="_" 
d="M0 -340h1024v-143h-1024v143z" />
    <glyph glyph-name="grave" unicode="`" 
d="M623 1075q-111 60 -199.5 134t-157.5 163l146 53q57 -85 129 -163t161 -150z" />
    <glyph glyph-name="a" unicode="a" horiz-adv-x="768" 
d="M451 207l-254 -230h-19q-75 74 -107 138t-32 139q0 94 47.5 187.5t142.5 185.5l-93 264q5 -1 13 -1.5t23 -0.5q62 0 110.5 21.5t79.5 62.5l275 -101l55 43l13 -12q-34 -56 -49.5 -93t-18.5 -66v-539q4 -21 16 -36.5t32 -24.5l36 26l29 -31l-179 -162q-62 37 -91 90.5
t-29 131.5v8zM451 268v221l-191 105q-28 -46 -41.5 -94t-13.5 -99q0 -79 27 -145t81 -117zM264 631l187 -103v224l-267 102z" />
    <glyph glyph-name="b" unicode="b" horiz-adv-x="801" 
d="M299 262l213 -104v555q0 22 -18 48t-48 44l-147 -121v-422zM53 166q31 24 44.5 59t13.5 94v506h-99v109h99v186q0 34 -17.5 68t-52.5 69l6 11q40 -10 72 -27t57 -43h19q38 49 86 75.5t106 30.5l4 -10q-45 -33 -68.5 -79.5t-23.5 -102.5v-364l270 221q61 -44 95 -111
t34 -141v-586q-84 -23 -152 -61t-124 -93q-94 78 -186 125t-183 64z" />
    <glyph glyph-name="c" unicode="c" horiz-adv-x="578" 
d="M340 973l205 -142l-90 -135l-166 111v-582l157 -84l86 66l27 -33q-43 -32 -103 -81t-137 -116q-65 60 -134.5 95.5t-141.5 46.5q31 23 44 58t13 95v533q72 31 132 73t108 95z" />
    <glyph glyph-name="d" unicode="d" horiz-adv-x="788" 
d="M291 233q54 -23 106 -44t103 -39v569l-154 110l-55 -36v-560zM397 -25q-77 61 -167 104t-187 64q32 25 44.5 60t12.5 104v500q48 11 89 29t77 43l-233 165v213l588 -409q15 28 34.5 44.5t42.5 22.5l7 -6q-10 -14 -14.5 -33.5t-4.5 -52.5v-688q-89 -27 -161 -67t-128 -93z
" />
    <glyph glyph-name="e" unicode="e" horiz-adv-x="631" 
d="M369 973l256 -281q-78 -58 -158.5 -123t-177.5 -149v-209l153 -72l127 88l29 -34q-65 -45 -134.5 -98.5t-144.5 -117.5q-60 44 -129 74t-147 45q31 24 44 59t13 95v555q58 24 123.5 65t145.5 103zM279 477l182 150l-182 196v-346z" />
    <glyph glyph-name="f" unicode="f" horiz-adv-x="588" 
d="M92 143q31 24 44.5 59t13.5 95v528h-103l16 109h87v215q57 30 109 67.5t101 83.5l193 -47l-41 -153l-166 41v-207h148l-19 -109h-129v-589l133 -93l70 64l26 -33q-56 -54 -106 -103.5t-92 -93.5q-52 53 -122.5 94t-162.5 72z" />
    <glyph glyph-name="g" unicode="g" horiz-adv-x="862" 
d="M102 150l1 686q44 7 110 36.5t193 100.5l290 -148l148 103v-215l-150 24v-489q0 -31 4.5 -55.5t12.5 -40.5q19 -36 55 -94q65 -108 65 -142q0 -29 -14.5 -51t-48.5 -43l-176 -107q-61 22 -120 32.5t-120 10.5t-119.5 -10.5t-111.5 -32.5l-47 41l211 254zM514 743l-231 76
v-581l118 -86l113 129v462zM707 -154v21q-100 96 -146.5 175.5t-50.5 160.5l-266 -316q49 10 90.5 14.5t79.5 4.5q69 0 141.5 -15t151.5 -45z" />
    <glyph glyph-name="h" unicode="h" horiz-adv-x="801" 
d="M111 180v645h-99v109h99v184q0 40 -15 71t-55 68l6 11q40 -10 72 -27t57 -43h19q38 49 86 75.5t106 30.5l4 -10q-45 -33 -68.5 -79.5t-23.5 -102.5v-364l270 221q61 -44 95 -111t34 -141v-504q0 -163 -133 -278t-385 -168l-4 22q201 79 268.5 152t67.5 196v578
q0 22 -18 48t-48 44l-147 -119v-508l55 -59l-153 -146l-154 136z" />
    <glyph glyph-name="i" unicode="i" horiz-adv-x="426" 
d="M215 1047l47 227h123l-152 -227h-18zM299 200q5 -20 16.5 -34.5t31.5 -23.5l34 26l31 -31l-185 -162q-68 35 -96.5 90.5t-28.5 165.5v537l-59 70l154 135l153 -146l-51 -59v-568z" />
    <glyph glyph-name="j" unicode="j" horiz-adv-x="487" 
d="M254 1047l45 227h123l-152 -227h-16zM121 821l-60 -43l-26 29l201 166q55 -63 98 -105.5t86 -74.5q-53 -81 -78 -165t-25 -184q0 -64 11.5 -168t11.5 -143q0 -134 -63 -228t-195 -159l-23 31q60 51 87.5 112t27.5 144q0 63 -24.5 209.5t-24.5 228.5q0 74 14 144t43 139z
" />
    <glyph glyph-name="k" unicode="k" horiz-adv-x="797" 
d="M412 131l102 123q-5 62 -30.5 112t-73.5 93l-107 -101v-163zM303 422l262 252l-116 131l-146 -150v-233zM117 1116q0 37 -16.5 70t-55.5 71l6 10q40 -9 72 -26t57 -43h21q38 50 85.5 76t104.5 30l4 -10q-46 -35 -69 -80.5t-23 -101.5v-389l246 250l182 -207
q-19 -18 -84.5 -82.5t-99.5 -97.5q45 -35 77 -83t52 -112q11 -37 24.5 -123.5t40.5 -117.5l33 26l33 -35l-184 -164q-40 25 -63.5 76t-33.5 133l-180 -211q-81 57 -150.5 92t-134.5 52q31 24 43.5 55t12.5 98v553h-101v109h101v182z" />
    <glyph glyph-name="l" unicode="l" horiz-adv-x="573" 
d="M246 1194q45 50 93 75.5t103 28.5l4 -8q-45 -33 -68.5 -79.5t-23.5 -102.5v-872l133 -93l50 43l28 -32q-48 -46 -92.5 -89t-87.5 -88q-49 51 -118 91.5t-167 74.5q31 24 44.5 59t13.5 95v823q0 29 -18 63.5t-52 69.5l6 9q35 -8 67.5 -24.5t65.5 -43.5h19z" />
    <glyph glyph-name="m" unicode="m" horiz-adv-x="1223" 
d="M303 745l279 226q48 -41 78 -95.5t45 -125.5q45 33 104 84.5t141 130.5l131 -138l78 76l31 -31q-29 -40 -50.5 -73.5t-33.5 -57.5v-540q5 -21 16.5 -35.5t31.5 -23.5l34 26l31 -31l-181 -162q-66 40 -93 95t-27 161v488l-82 80l-129 -103v-510l53 -69l-146 -142l-153 142
l57 63v533q0 21 -17.5 47.5t-47.5 46.5l-150 -119v-502l55 -69l-147 -142l-152 142l58 63v533q0 30 -9.5 51t-29.5 37l-33 -27l-31 33l164 166q67 -38 96 -89t29 -130v-9z" />
    <glyph glyph-name="n" unicode="n" horiz-adv-x="825" 
d="M301 696v-510l53 -69l-147 -142l-152 142l58 63v533q0 30 -9.5 51t-29.5 37l-33 -27l-31 33l166 166q66 -36 95.5 -87t29.5 -128v-8q42 30 97 78.5t147 136.5l131 -138l80 76l28 -31q-29 -40 -50.5 -73.5t-33.5 -57.5v-540q5 -20 17.5 -35.5t30.5 -23.5l34 26l31 -31
l-180 -162q-67 40 -94 95t-27 161v488l-82 80z" />
    <glyph glyph-name="o" unicode="o" horiz-adv-x="788" 
d="M397 -25q-77 61 -167 104t-187 64q32 25 44.5 60t12.5 104v498q85 22 153 63t126 105q90 -66 167.5 -104t139.5 -46v-688q-89 -27 -161 -67t-128 -93zM289 236q59 -26 111 -47t100 -39v563q-48 17 -100 40t-111 52v-569z" />
    <glyph glyph-name="p" unicode="p" horiz-adv-x="801" 
d="M31 127v72q7 2 20 7q63 22 84 25v474q0 56 -9 77t-32 33l-47 -37l-29 31l170 164q61 -29 94.5 -80t41.5 -127q59 54 106 105t86 102q99 -33 150 -116t51 -212v-459q-56 -31 -113 -79t-125 -121q-31 22 -68.5 42.5t-88.5 43.5v-119q0 -62 22 -116.5t76 -121.5h-6
q-58 0 -105 30t-100 101q-45 -46 -81.5 -67t-72.5 -21h-4q47 54 65.5 96.5t18.5 94.5v170q-16 5 -31.5 7.5t-33.5 2.5q-16 0 -24 -0.5t-15 -1.5zM530 156v536q0 25 -28 59.5t-68 53.5l-110 -109v-467q53 -14 105 -32.5t101 -40.5z" />
    <glyph glyph-name="q" unicode="q" horiz-adv-x="729" 
d="M463 686l-211 107v-557q0 -24 17.5 -49.5t45.5 -43.5l148 119v424zM463 201l-270 -224q-60 42 -95 110.5t-35 143.5v588q80 21 148.5 59t128.5 95q97 -80 187 -127t171 -60v-8l-47 -67v-760q0 -52 20.5 -98t63.5 -95h-4q-36 0 -72 21t-81 67q-52 -71 -99 -101t-106 -30
h-6q51 63 73.5 118t22.5 120v248z" />
    <glyph glyph-name="r" unicode="r" horiz-adv-x="653" 
d="M184 973q61 -34 89.5 -73.5t31.5 -94.5l191 168l133 -160l-135 -125l-113 125l-74 -59v-533l103 -82l55 47l29 -32q-49 -46 -93.5 -89t-87.5 -88q-52 57 -116 98t-142 68q31 24 44.5 59t13.5 95v416q0 30 -9.5 51t-29.5 37l-33 -27l-31 33z" />
    <glyph glyph-name="s" unicode="s" horiz-adv-x="758" 
d="M508 152v268l-111 65l-213 -295q34 13 66.5 19t64.5 6q47 0 95 -16t98 -47zM242 571l108 -63l180 260q-33 -6 -60 -9t-46 -3q-46 0 -91 12t-91 37v-234zM10 16l240 351l-189 110v328q68 30 128.5 72.5t111.5 97.5q72 -41 137.5 -62.5t118.5 -21.5q48 0 76.5 19.5
t28.5 52.5q0 17 -25 47.5t-25 46.5q0 20 15 34.5t35 14.5q31 0 50 -22.5t19 -59.5q0 -30 -13.5 -62.5t-45.5 -76.5l-174 -252l180 -117v-387q-62 -20 -123.5 -57.5t-122.5 -94.5q-46 34 -94 51t-98 17q-47 0 -94 -13.5t-99 -41.5z" />
    <glyph glyph-name="t" unicode="t" horiz-adv-x="545" 
d="M109 823h-68v37l262 357v-283h197v-109h-197v-600l98 -84l54 45l28 -32q-38 -36 -81 -78.5t-97 -98.5q-62 64 -124.5 104.5t-129.5 61.5q31 24 44.5 59t13.5 95v526z" />
    <glyph glyph-name="u" unicode="u" horiz-adv-x="815" 
d="M301 236q0 -24 17.5 -49.5t46.5 -43.5l147 119v514l-53 66l147 131l152 -131l-58 -60v-581q0 -13 13.5 -31t34.5 -29l34 27l31 -31l-180 -162q-62 37 -91.5 90.5t-29.5 127.5v8l-270 -224q-60 42 -94.5 110.5t-34.5 143.5v545l-29 31l-43 -33l-31 33l195 166l153 -131
l-57 -60v-546z" />
    <glyph glyph-name="v" unicode="v" horiz-adv-x="788" 
d="M289 688v-452q59 -26 111 -47t100 -39v544q0 23 -16.5 51.5t-47.5 61.5zM100 784q-41 52 -61.5 101t-20.5 94q0 74 50 136.5t151 115.5l14 -27q-41 -38 -60 -70t-19 -63q0 -33 45 -97q5 -7 8 -12q47 -64 63.5 -110t18.5 -100l266 221q62 -58 96.5 -115t34.5 -100v-623
q-89 -27 -161 -67t-128 -93q-77 61 -167 104t-187 64q32 25 44.5 60t12.5 104v477z" />
    <glyph glyph-name="w" unicode="w" horiz-adv-x="1163" 
d="M674 750l256 223q71 -65 102 -120t31 -116v-602q-76 -25 -146.5 -65.5t-130.5 -94.5q-71 44 -125 65t-94 21q-43 0 -87 -21t-91 -65q-65 53 -152.5 95.5t-193.5 72.5q32 25 44.5 60t12.5 104v477q-41 52 -61.5 101t-20.5 94q0 74 50 136.5t151 115.5l14 -27
q-41 -38 -60 -70t-19 -63q0 -33 45 -97q5 -7 8 -12q47 -64 63.5 -110t18.5 -100l256 221q63 -55 94 -108.5t35 -114.5zM489 139v555q0 23 -16 51.5t-47 61.5l-137 -119v-463q64 -30 110 -50t90 -36zM889 139v555q0 23 -16.5 51.5t-47.5 61.5l-147 -119v-477
q50 -22 102.5 -39.5t108.5 -32.5z" />
    <glyph glyph-name="x" unicode="x" horiz-adv-x="829" 
d="M23 92l63 164l158 -66l102 256l-133 267q-24 45 -49.5 72.5t-61.5 43.5l-63 -47l-25 29l189 160q51 -27 91.5 -70.5t72.5 -107.5l79 -158l138 338l186 -113l-63 -160l-148 74l-82 -199l141 -284q32 -63 60.5 -101.5t58.5 -58.5l49 41l27 -31l-166 -166q-47 32 -90 87.5
t-94 154.5l-86 170l-164 -412z" />
    <glyph glyph-name="y" unicode="y" horiz-adv-x="801" 
d="M360 741l256 226q62 -67 93.5 -151t31.5 -183q0 -132 -72 -239t-253 -232q-24 -17 -126 -77t-159 -112q-27 -25 -41 -52t-14 -54q0 -47 39.5 -75t107.5 -28q62 0 116.5 43t70.5 43t26 -9.5t10 -26.5q0 -41 -63.5 -71t-157.5 -30q-98 0 -152.5 38.5t-54.5 107.5
q0 30 14 63t54 92q57 85 72.5 112.5t15.5 39.5v547q0 30 -9 51t-30 39l-59 -51l-31 34l191 187q63 -34 93.5 -89t30.5 -134v-9zM360 182q101 76 152 172t51 207q0 77 -20 134t-60 96l-123 -107v-502z" />
    <glyph glyph-name="z" unicode="z" horiz-adv-x="600" 
d="M37 375l285 297l-160 157l-107 -75l-28 37l247 180l150 -133q18 -17 37 -25.5t40 -9.5l1 -12l-237 -246q122 -5 189.5 -63.5t67.5 -159.5q0 -86 -52 -161t-146 -126q-19 -10 -54 -28q-149 -78 -149 -150q0 -33 21 -56.5t48 -23.5q12 0 32.5 5t29.5 5q15 0 24 -8t9 -21
q0 -16 -19 -29.5t-45 -13.5q-53 0 -96 44t-43 100q0 34 15 67t44 62q19 18 57 52q136 122 136 214q0 70 -39.5 108.5t-112.5 38.5q-18 0 -51.5 -6t-93.5 -20z" />
    <glyph glyph-name="braceleft" unicode="{" 
d="M848 1516l-1 -54q-135 -1 -185 -54t-50 -210v-141q0 -227 -59 -308.5t-217 -113.5q159 -32 217.5 -113.5t58.5 -308.5v-141q0 -157 49.5 -209t185.5 -53l1 -54h-10q-219 0 -301 74t-82 272v207q0 161 -59 221.5t-218 73.5v64q161 13 219 73.5t58 221.5v206q0 199 82 273
t301 74h10z" />
    <glyph glyph-name="bar" unicode="|" 
d="M438 1565h150v-2048h-150v2048z" />
    <glyph glyph-name="braceright" unicode="}" 
d="M176 1516h10q220 0 302.5 -74t82.5 -273v-206q0 -161 58 -221.5t219 -73.5v-64q-161 -13 -219 -73.5t-58 -221.5v-207q0 -198 -82.5 -272t-302.5 -74h-10l1 54q136 1 185.5 53.5t49.5 208.5v141q0 227 58.5 308.5t217.5 113.5q-158 32 -217 113.5t-59 308.5v141
q0 157 -50 210t-185 54z" />
    <glyph glyph-name="asciitilde" unicode="~" horiz-adv-x="1706" 
d="M1530 770v-156q-104 -72 -199 -106.5t-190 -34.5q-93 0 -256 58q-22 8 -34 12q-5 2 -15 5q-176 60 -273 60q-84 0 -175 -37t-210 -120v155q106 72 202 108t185 36q62 0 127.5 -13.5t163.5 -48.5q16 -5 47 -17q159 -57 240 -57q88 0 179.5 37t207.5 119z" />
    <glyph glyph-name="Adieresis" unicode="&#xc4;" horiz-adv-x="1233" 
d="M674 133l166 133l-2 158h-502l-74 -105zM434 569h402l-9 443l-36 55h-11zM317 506l269 391q-12 21 -35.5 33t-52.5 12q-56 0 -93.5 -25t-64.5 -79v12q0 90 62.5 149.5t156.5 59.5q28 0 57.5 -5t67.5 -16l49 72q-56 26 -109 38.5t-104 12.5q-160 0 -269.5 -101
t-109.5 -249q0 -82 46.5 -162t129.5 -143zM543 -35l-289 160q-32 18 -48.5 23.5t-33.5 5.5q-23 0 -39 -17.5t-16 -42.5q0 -15 11 -39.5t11 -36.5q0 -21 -14.5 -35t-36.5 -14q-25 0 -39 16t-14 44q0 33 17 73t57 99l182 264q-114 99 -167.5 195.5t-53.5 199.5q0 72 24 139.5
t72 128.5q74 95 184 148t232 53q100 0 193 -33.5t196 -107.5q47 63 103 99t130 50l4 -8q-88 -76 -121.5 -139t-33.5 -152v-8l14 -688q2 -86 14.5 -127t40.5 -65l68 51l33 -39l-234 -199q-60 35 -98.5 95t-50.5 137zM819 1517q-36 33 -66 65t-55 64l131 127q35 -44 64 -75.5
t57 -57.5zM475 1517q-36 33 -66 65t-55 64l131 127q35 -44 64 -75.5t57 -57.5z" />
    <glyph glyph-name="Adieresis" unicode="&#x414;" horiz-adv-x="1233" 
d="M674 133l166 133l-2 158h-502l-74 -105zM434 569h402l-9 443l-36 55h-11zM317 506l269 391q-12 21 -35.5 33t-52.5 12q-56 0 -93.5 -25t-64.5 -79v12q0 90 62.5 149.5t156.5 59.5q28 0 57.5 -5t67.5 -16l49 72q-56 26 -109 38.5t-104 12.5q-160 0 -269.5 -101
t-109.5 -249q0 -82 46.5 -162t129.5 -143zM543 -35l-289 160q-32 18 -48.5 23.5t-33.5 5.5q-23 0 -39 -17.5t-16 -42.5q0 -15 11 -39.5t11 -36.5q0 -21 -14.5 -35t-36.5 -14q-25 0 -39 16t-14 44q0 33 17 73t57 99l182 264q-114 99 -167.5 195.5t-53.5 199.5q0 72 24 139.5
t72 128.5q74 95 184 148t232 53q100 0 193 -33.5t196 -107.5q47 63 103 99t130 50l4 -8q-88 -76 -121.5 -139t-33.5 -152v-8l14 -688q2 -86 14.5 -127t40.5 -65l68 51l33 -39l-234 -199q-60 35 -98.5 95t-50.5 137zM819 1517q-36 33 -66 65t-55 64l131 127q35 -44 64 -75.5
t57 -57.5zM475 1517q-36 33 -66 65t-55 64l131 127q35 -44 64 -75.5t57 -57.5z" />
    <glyph glyph-name="Aring" unicode="&#xc5;" horiz-adv-x="1233" 
d="M586 1649q0 -62 43 -105t104 -43q62 0 105 43t43 105q0 61 -43.5 105t-104.5 44q-62 0 -104.5 -43.5t-42.5 -105.5zM485 1651q0 104 71.5 174.5t176.5 70.5t176.5 -70.5t71.5 -174.5q0 -105 -72 -177.5t-176 -72.5t-176 72.5t-72 177.5zM434 569h402l-9 443l-36 57
l-11 -2zM674 133l166 133l-2 158h-502l-74 -105zM317 506l269 391q-12 21 -35.5 33t-52.5 12q-56 0 -93.5 -25t-64.5 -79v12q0 90 62.5 149.5t156.5 59.5q28 0 57.5 -5t67.5 -16l49 72q-56 26 -109 38.5t-104 12.5q-160 0 -269.5 -101t-109.5 -249q0 -82 46.5 -162
t129.5 -143zM543 -35l-289 160q-32 18 -48.5 23.5t-33.5 5.5q-23 0 -39 -17.5t-16 -42.5q0 -15 11 -39.5t11 -36.5q0 -21 -14.5 -35t-36.5 -14q-25 0 -39 16t-14 44q0 33 17 73t57 99l182 264q-114 99 -167.5 195.5t-53.5 199.5q0 72 24 139.5t72 128.5q74 95 184 148
t232 53q100 0 193 -33.5t196 -107.5q47 63 103 99t130 50l4 -8q-88 -76 -121.5 -139t-33.5 -152v-8l14 -688q2 -86 14.5 -127t40.5 -65l68 51l33 -39l-234 -199q-59 34 -97.5 93.5t-51.5 138.5z" />
    <glyph glyph-name="Aring" unicode="&#x415;" horiz-adv-x="1233" 
d="M586 1649q0 -62 43 -105t104 -43q62 0 105 43t43 105q0 61 -43.5 105t-104.5 44q-62 0 -104.5 -43.5t-42.5 -105.5zM485 1651q0 104 71.5 174.5t176.5 70.5t176.5 -70.5t71.5 -174.5q0 -105 -72 -177.5t-176 -72.5t-176 72.5t-72 177.5zM434 569h402l-9 443l-36 57
l-11 -2zM674 133l166 133l-2 158h-502l-74 -105zM317 506l269 391q-12 21 -35.5 33t-52.5 12q-56 0 -93.5 -25t-64.5 -79v12q0 90 62.5 149.5t156.5 59.5q28 0 57.5 -5t67.5 -16l49 72q-56 26 -109 38.5t-104 12.5q-160 0 -269.5 -101t-109.5 -249q0 -82 46.5 -162
t129.5 -143zM543 -35l-289 160q-32 18 -48.5 23.5t-33.5 5.5q-23 0 -39 -17.5t-16 -42.5q0 -15 11 -39.5t11 -36.5q0 -21 -14.5 -35t-36.5 -14q-25 0 -39 16t-14 44q0 33 17 73t57 99l182 264q-114 99 -167.5 195.5t-53.5 199.5q0 72 24 139.5t72 128.5q74 95 184 148
t232 53q100 0 193 -33.5t196 -107.5q47 63 103 99t130 50l4 -8q-88 -76 -121.5 -139t-33.5 -152v-8l14 -688q2 -86 14.5 -127t40.5 -65l68 51l33 -39l-234 -199q-59 34 -97.5 93.5t-51.5 138.5z" />
    <glyph glyph-name="Ccedilla" unicode="&#xc7;" horiz-adv-x="1208" 
d="M651 170v979l-84 -70v-381q0 -108 -45 -190.5t-157 -175.5q55 -62 127.5 -103t158.5 -59zM332 365q13 18 18.5 45t5.5 77v23v481l400 336q99 -57 199 -87t194 -30h10l-182 -198q-53 23 -122 49t-157 55v-954q20 -3 41.5 -4.5t44.5 -1.5q105 0 201.5 44t200.5 140l14 -8
q-92 -189 -227 -277t-332 -88q-262 0 -431 171t-169 437q0 218 112.5 387t303.5 238l4 -8q-127 -97 -185.5 -209t-58.5 -256q0 -114 28.5 -204t86.5 -158zM436 -420l39 101l254 -48q19 17 29 35.5t10 38.5q0 49 -49 76t-140 27h-18q4 19 7 44t3 44v137h58v-160
q119 0 188.5 -45t69.5 -121q0 -52 -28.5 -97t-90.5 -89z" />
    <glyph glyph-name="Ccedilla" unicode="&#x417;" horiz-adv-x="1208" 
d="M651 170v979l-84 -70v-381q0 -108 -45 -190.5t-157 -175.5q55 -62 127.5 -103t158.5 -59zM332 365q13 18 18.5 45t5.5 77v23v481l400 336q99 -57 199 -87t194 -30h10l-182 -198q-53 23 -122 49t-157 55v-954q20 -3 41.5 -4.5t44.5 -1.5q105 0 201.5 44t200.5 140l14 -8
q-92 -189 -227 -277t-332 -88q-262 0 -431 171t-169 437q0 218 112.5 387t303.5 238l4 -8q-127 -97 -185.5 -209t-58.5 -256q0 -114 28.5 -204t86.5 -158zM436 -420l39 101l254 -48q19 17 29 35.5t10 38.5q0 49 -49 76t-140 27h-18q4 19 7 44t3 44v137h58v-160
q119 0 188.5 -45t69.5 -121q0 -52 -28.5 -97t-90.5 -89z" />
    <glyph glyph-name="Eacute" unicode="&#xc9;" horiz-adv-x="1208" 
d="M700 764l232 254l-232 92v-346zM653 170v979l-86 -70v-381q0 -108 -45 -190.5t-157 -175.5q56 -63 128.5 -103.5t159.5 -58.5zM332 365q13 18 18.5 45t5.5 77v23v481l394 336q78 -52 172.5 -78t205.5 -26q25 0 37 0.5t22 0.5l-278 -304h215q-17 -38 -51.5 -108.5
t-50.5 -104.5h-322v-545q20 -3 40.5 -4.5t41.5 -1.5q106 0 202.5 44t201.5 140l14 -8q-92 -189 -227 -277t-332 -88q-262 0 -431 171t-169 437q0 218 112.5 387t303.5 238l4 -8q-125 -95 -186.5 -211t-61.5 -256q0 -104 30.5 -196.5t88.5 -163.5zM592 1468l-82 37
q90 72 162 150t129 163l148 -53q-67 -87 -156 -161t-201 -136z" />
    <glyph glyph-name="Eacute" unicode="&#x419;" horiz-adv-x="1208" 
d="M700 764l232 254l-232 92v-346zM653 170v979l-86 -70v-381q0 -108 -45 -190.5t-157 -175.5q56 -63 128.5 -103.5t159.5 -58.5zM332 365q13 18 18.5 45t5.5 77v23v481l394 336q78 -52 172.5 -78t205.5 -26q25 0 37 0.5t22 0.5l-278 -304h215q-17 -38 -51.5 -108.5
t-50.5 -104.5h-322v-545q20 -3 40.5 -4.5t41.5 -1.5q106 0 202.5 44t201.5 140l14 -8q-92 -189 -227 -277t-332 -88q-262 0 -431 171t-169 437q0 218 112.5 387t303.5 238l4 -8q-125 -95 -186.5 -211t-61.5 -256q0 -104 30.5 -196.5t88.5 -163.5zM592 1468l-82 37
q90 72 162 150t129 163l148 -53q-67 -87 -156 -161t-201 -136z" />
    <glyph glyph-name="Ntilde" unicode="&#xd1;" horiz-adv-x="1456" 
d="M723 537q56 34 101 48.5t91 14.5t90.5 -16.5t88.5 -48.5q21 52 32 103.5t11 98.5q0 20 -2 38t-7 36q-41 -39 -93 -59.5t-107 -20.5q-53 0 -102.5 17.5t-102.5 54.5v-266zM723 856q55 -41 106 -61.5t99 -20.5q53 0 101 22t87 64q-37 113 -139.5 180.5t-253.5 79.5v-264z
M453 18q6 -1 12 -1.5t18 -0.5q92 0 141.5 75.5t49.5 215.5v809l-76 -41v-723q0 -140 -35 -219.5t-110 -114.5zM-109 -111q53 85 115 124.5t139 39.5q34 0 95.5 -8t89.5 -8q68 0 104.5 30.5t36.5 88.5q0 80 -62.5 130t-164.5 50q-27 0 -43 -1t-31 -3q24 41 61.5 61.5
t87.5 20.5q19 0 42 -3.5t47 -9.5q-23 89 -80 135t-144 46q-14 0 -29 -1.5t-32 -4.5q22 40 55.5 59.5t81.5 19.5q32 0 69 -10.5t81 -32.5q-19 103 -90 159t-183 56h-12q26 35 59.5 51.5t79.5 16.5q30 0 66.5 -8.5t79.5 -26.5v166l491 301q220 -70 333.5 -188.5t113.5 -278.5
q0 -152 -77 -318.5t-235 -355.5q42 13 78 19t68 6q37 0 81.5 -6t96.5 -19l35 50l41 -25l-140 -244q-62 18 -107.5 26.5t-80.5 8.5q-83 0 -144.5 -36.5t-103.5 -110.5l-20 16q12 93 127 350q75 166 114 264q-43 38 -82.5 55t-80.5 17q-49 0 -93.5 -15.5t-101.5 -54.5v-219
q0 -176 -110 -298t-267 -122q-66 0 -172 33t-145 33q-33 0 -66.5 -9t-66.5 -26zM1048 1683l29 56l41 -17l-47 -98q-20 -41 -47.5 -58.5t-71.5 -17.5q-38 0 -140 29.5t-163 29.5q-14 0 -21 -0.5t-12 -1.5l-33 -61l-41 16l43 86q26 52 52 70t69 18q38 0 138.5 -28.5
t160.5 -28.5q11 0 21.5 1.5t21.5 4.5z" />
    <glyph glyph-name="Ntilde" unicode="&#x421;" horiz-adv-x="1456" 
d="M723 537q56 34 101 48.5t91 14.5t90.5 -16.5t88.5 -48.5q21 52 32 103.5t11 98.5q0 20 -2 38t-7 36q-41 -39 -93 -59.5t-107 -20.5q-53 0 -102.5 17.5t-102.5 54.5v-266zM723 856q55 -41 106 -61.5t99 -20.5q53 0 101 22t87 64q-37 113 -139.5 180.5t-253.5 79.5v-264z
M453 18q6 -1 12 -1.5t18 -0.5q92 0 141.5 75.5t49.5 215.5v809l-76 -41v-723q0 -140 -35 -219.5t-110 -114.5zM-109 -111q53 85 115 124.5t139 39.5q34 0 95.5 -8t89.5 -8q68 0 104.5 30.5t36.5 88.5q0 80 -62.5 130t-164.5 50q-27 0 -43 -1t-31 -3q24 41 61.5 61.5
t87.5 20.5q19 0 42 -3.5t47 -9.5q-23 89 -80 135t-144 46q-14 0 -29 -1.5t-32 -4.5q22 40 55.5 59.5t81.5 19.5q32 0 69 -10.5t81 -32.5q-19 103 -90 159t-183 56h-12q26 35 59.5 51.5t79.5 16.5q30 0 66.5 -8.5t79.5 -26.5v166l491 301q220 -70 333.5 -188.5t113.5 -278.5
q0 -152 -77 -318.5t-235 -355.5q42 13 78 19t68 6q37 0 81.5 -6t96.5 -19l35 50l41 -25l-140 -244q-62 18 -107.5 26.5t-80.5 8.5q-83 0 -144.5 -36.5t-103.5 -110.5l-20 16q12 93 127 350q75 166 114 264q-43 38 -82.5 55t-80.5 17q-49 0 -93.5 -15.5t-101.5 -54.5v-219
q0 -176 -110 -298t-267 -122q-66 0 -172 33t-145 33q-33 0 -66.5 -9t-66.5 -26zM1048 1683l29 56l41 -17l-47 -98q-20 -41 -47.5 -58.5t-71.5 -17.5q-38 0 -140 29.5t-163 29.5q-14 0 -21 -0.5t-12 -1.5l-33 -61l-41 16l43 86q26 52 52 70t69 18q38 0 138.5 -28.5
t160.5 -28.5q11 0 21.5 1.5t21.5 4.5z" />
    <glyph glyph-name="Odieresis" unicode="&#xd6;" horiz-adv-x="1434" 
d="M342 328q29 36 42 78t13 102v522q-82 -72 -124 -167.5t-42 -213.5q0 -91 28.5 -173t82.5 -148zM375 287q70 -68 140.5 -102.5t141.5 -37.5v979h-77v-497q0 -84 -41 -155t-164 -187zM709 147q131 8 244 92.5t184 229.5q-40 59 -96 88t-128 29q-47 0 -98.5 -25.5
t-105.5 -75.5v-338zM709 549q58 41 109 59.5t104 18.5q70 0 126.5 -24.5t110.5 -78.5q15 34 23 70t8 74q0 54 -14 101t-41 87q-47 -45 -103.5 -67.5t-122.5 -22.5q-48 0 -97 16t-103 49v-282zM709 895q51 -45 101.5 -66.5t104.5 -21.5q63 0 112.5 23t84.5 69
q-53 92 -152.5 148t-250.5 77v-229zM117 905q135 82 295.5 189t343.5 237q283 -32 458 -191t175 -378q0 -116 -56.5 -232t-171.5 -235q-153 -158 -309.5 -243t-292.5 -85q-116 0 -210 44t-167 132q-69 87 -104 188t-35 214q0 81 18.5 170.5t55.5 189.5zM834 1517
q-36 33 -66 65t-55 64l131 127q35 -44 64 -75.5t57 -57.5zM490 1517q-36 33 -66 65t-55 64l131 127q35 -44 64 -75.5t57 -57.5z" />
    <glyph glyph-name="Odieresis" unicode="&#x426;" horiz-adv-x="1434" 
d="M342 328q29 36 42 78t13 102v522q-82 -72 -124 -167.5t-42 -213.5q0 -91 28.5 -173t82.5 -148zM375 287q70 -68 140.5 -102.5t141.5 -37.5v979h-77v-497q0 -84 -41 -155t-164 -187zM709 147q131 8 244 92.5t184 229.5q-40 59 -96 88t-128 29q-47 0 -98.5 -25.5
t-105.5 -75.5v-338zM709 549q58 41 109 59.5t104 18.5q70 0 126.5 -24.5t110.5 -78.5q15 34 23 70t8 74q0 54 -14 101t-41 87q-47 -45 -103.5 -67.5t-122.5 -22.5q-48 0 -97 16t-103 49v-282zM709 895q51 -45 101.5 -66.5t104.5 -21.5q63 0 112.5 23t84.5 69
q-53 92 -152.5 148t-250.5 77v-229zM117 905q135 82 295.5 189t343.5 237q283 -32 458 -191t175 -378q0 -116 -56.5 -232t-171.5 -235q-153 -158 -309.5 -243t-292.5 -85q-116 0 -210 44t-167 132q-69 87 -104 188t-35 214q0 81 18.5 170.5t55.5 189.5zM834 1517
q-36 33 -66 65t-55 64l131 127q35 -44 64 -75.5t57 -57.5zM490 1517q-36 33 -66 65t-55 64l131 127q35 -44 64 -75.5t57 -57.5z" />
    <glyph glyph-name="Udieresis" unicode="&#xdc;" horiz-adv-x="1554" 
d="M483 258q54 -46 125 -68t166 -22h14v1092q-38 -39 -56.5 -86.5t-18.5 -108.5v-416q0 -133 -50 -217t-180 -174zM522 500v325q0 102 40.5 187t127.5 166q-170 -89 -261 -236t-91 -332q0 -96 28.5 -176t86.5 -145q36 34 52.5 84.5t16.5 126.5zM836 172q78 5 152 32.5
t147 78.5v254q-35 20 -70 30.5t-70 10.5q-42 0 -81.5 -10.5t-77.5 -30.5v-365zM836 793v-211q37 19 74 29t75 10t75 -10t75 -29v211q-36 -20 -74 -29.5t-76 -9.5t-75 9.5t-74 29.5zM1137 221q-126 -132 -246 -193t-252 -61q-224 0 -371 150.5t-147 378.5q0 211 130.5 389
t375.5 301q-54 -16 -100 -24.5t-85 -8.5q-20 0 -61 4t-62 4q-105 0 -168.5 -46t-103.5 -152l-22 -2v6q0 166 76.5 263t205.5 97q45 0 154.5 -24.5t175.5 -24.5q51 0 87 11.5t64 37.5h48v-489q38 -21 76 -31t77 -10q38 0 74 10t72 31v243l-86 60l-68 -80l-35 26l205 240
l186 -125l101 84l16 -14q-41 -53 -62.5 -105.5t-21.5 -99.5v-805q0 -51 9.5 -81.5t29.5 -51.5l61 57l27 -32l-186 -187h-37q-62 53 -96 115.5t-41 138.5zM1028 1517q-36 33 -66 65t-55 64l131 127q35 -44 64 -75.5t57 -57.5zM684 1517q-36 33 -66 65t-55 64l131 127
q35 -44 64 -75.5t57 -57.5z" />
    <glyph glyph-name="Udieresis" unicode="&#x42c;" horiz-adv-x="1554" 
d="M483 258q54 -46 125 -68t166 -22h14v1092q-38 -39 -56.5 -86.5t-18.5 -108.5v-416q0 -133 -50 -217t-180 -174zM522 500v325q0 102 40.5 187t127.5 166q-170 -89 -261 -236t-91 -332q0 -96 28.5 -176t86.5 -145q36 34 52.5 84.5t16.5 126.5zM836 172q78 5 152 32.5
t147 78.5v254q-35 20 -70 30.5t-70 10.5q-42 0 -81.5 -10.5t-77.5 -30.5v-365zM836 793v-211q37 19 74 29t75 10t75 -10t75 -29v211q-36 -20 -74 -29.5t-76 -9.5t-75 9.5t-74 29.5zM1137 221q-126 -132 -246 -193t-252 -61q-224 0 -371 150.5t-147 378.5q0 211 130.5 389
t375.5 301q-54 -16 -100 -24.5t-85 -8.5q-20 0 -61 4t-62 4q-105 0 -168.5 -46t-103.5 -152l-22 -2v6q0 166 76.5 263t205.5 97q45 0 154.5 -24.5t175.5 -24.5q51 0 87 11.5t64 37.5h48v-489q38 -21 76 -31t77 -10q38 0 74 10t72 31v243l-86 60l-68 -80l-35 26l205 240
l186 -125l101 84l16 -14q-41 -53 -62.5 -105.5t-21.5 -99.5v-805q0 -51 9.5 -81.5t29.5 -51.5l61 57l27 -32l-186 -187h-37q-62 53 -96 115.5t-41 138.5zM1028 1517q-36 33 -66 65t-55 64l131 127q35 -44 64 -75.5t57 -57.5zM684 1517q-36 33 -66 65t-55 64l131 127
q35 -44 64 -75.5t57 -57.5z" />
    <glyph glyph-name="aacute" unicode="&#xe1;" horiz-adv-x="768" 
d="M451 207l-254 -230h-19q-75 74 -107 138t-32 139q0 94 47.5 187.5t142.5 185.5l-93 264q5 -1 13 -1.5t23 -0.5q62 0 110.5 21.5t79.5 62.5l275 -101l55 43l13 -12q-34 -56 -49.5 -93t-18.5 -66v-539q4 -21 16 -36.5t32 -24.5l36 26l29 -31l-179 -162q-62 37 -91 90.5
t-29 131.5v8zM451 268v221l-191 105q-28 -46 -41.5 -94t-13.5 -99q0 -79 27 -145t81 -117zM264 631l187 -103v224l-267 102zM338 1075l-82 37q90 72 162 150t129 163l148 -53q-67 -87 -156 -161t-201 -136z" />
    <glyph glyph-name="aacute" unicode="&#x431;" horiz-adv-x="768" 
d="M451 207l-254 -230h-19q-75 74 -107 138t-32 139q0 94 47.5 187.5t142.5 185.5l-93 264q5 -1 13 -1.5t23 -0.5q62 0 110.5 21.5t79.5 62.5l275 -101l55 43l13 -12q-34 -56 -49.5 -93t-18.5 -66v-539q4 -21 16 -36.5t32 -24.5l36 26l29 -31l-179 -162q-62 37 -91 90.5
t-29 131.5v8zM451 268v221l-191 105q-28 -46 -41.5 -94t-13.5 -99q0 -79 27 -145t81 -117zM264 631l187 -103v224l-267 102zM338 1075l-82 37q90 72 162 150t129 163l148 -53q-67 -87 -156 -161t-201 -136z" />
    <glyph glyph-name="agrave" unicode="&#xe0;" horiz-adv-x="768" 
d="M451 207l-254 -230h-19q-75 74 -107 138t-32 139q0 94 47.5 187.5t142.5 185.5l-93 264q5 -1 13 -1.5t23 -0.5q62 0 110.5 21.5t79.5 62.5l275 -101l55 43l13 -12q-34 -56 -49.5 -93t-18.5 -66v-539q4 -21 16 -36.5t32 -24.5l36 26l29 -31l-179 -162q-62 37 -91 90.5
t-29 131.5v8zM451 268v221l-191 105q-28 -46 -41.5 -94t-13.5 -99q0 -79 27 -145t81 -117zM264 631l187 -103v224l-267 102zM521 1075q-111 60 -199.5 134t-157.5 163l146 53q57 -85 129 -163t161 -150z" />
    <glyph glyph-name="agrave" unicode="&#x430;" horiz-adv-x="768" 
d="M451 207l-254 -230h-19q-75 74 -107 138t-32 139q0 94 47.5 187.5t142.5 185.5l-93 264q5 -1 13 -1.5t23 -0.5q62 0 110.5 21.5t79.5 62.5l275 -101l55 43l13 -12q-34 -56 -49.5 -93t-18.5 -66v-539q4 -21 16 -36.5t32 -24.5l36 26l29 -31l-179 -162q-62 37 -91 90.5
t-29 131.5v8zM451 268v221l-191 105q-28 -46 -41.5 -94t-13.5 -99q0 -79 27 -145t81 -117zM264 631l187 -103v224l-267 102zM521 1075q-111 60 -199.5 134t-157.5 163l146 53q57 -85 129 -163t161 -150z" />
    <glyph glyph-name="acircumflex" unicode="&#xe2;" horiz-adv-x="768" 
d="M451 207l-254 -230h-19q-75 74 -107 138t-32 139q0 94 47.5 187.5t142.5 185.5l-93 264q5 -1 13 -1.5t23 -0.5q62 0 110.5 21.5t79.5 62.5l275 -101l55 43l13 -12q-34 -56 -49.5 -93t-18.5 -66v-539q4 -21 16 -36.5t32 -24.5l36 26l29 -31l-179 -162q-62 37 -91 90.5
t-29 131.5v8zM451 268v221l-191 105q-28 -46 -41.5 -94t-13.5 -99q0 -79 27 -145t81 -117zM264 631l187 -103v224l-267 102zM410 1280q-48 -61 -107.5 -112t-132.5 -93l-30 31q60 72 115 151t104 164h102q49 -85 104 -164t115 -151l-32 -31q-69 38 -128 89t-110 116z" />
    <glyph glyph-name="acircumflex" unicode="&#x432;" horiz-adv-x="768" 
d="M451 207l-254 -230h-19q-75 74 -107 138t-32 139q0 94 47.5 187.5t142.5 185.5l-93 264q5 -1 13 -1.5t23 -0.5q62 0 110.5 21.5t79.5 62.5l275 -101l55 43l13 -12q-34 -56 -49.5 -93t-18.5 -66v-539q4 -21 16 -36.5t32 -24.5l36 26l29 -31l-179 -162q-62 37 -91 90.5
t-29 131.5v8zM451 268v221l-191 105q-28 -46 -41.5 -94t-13.5 -99q0 -79 27 -145t81 -117zM264 631l187 -103v224l-267 102zM410 1280q-48 -61 -107.5 -112t-132.5 -93l-30 31q60 72 115 151t104 164h102q49 -85 104 -164t115 -151l-32 -31q-69 38 -128 89t-110 116z" />
    <glyph glyph-name="adieresis" unicode="&#xe4;" horiz-adv-x="768" 
d="M451 207l-254 -230h-19q-75 74 -107 138t-32 139q0 94 47.5 187.5t142.5 185.5l-93 264q5 -1 13 -1.5t23 -0.5q62 0 110.5 21.5t79.5 62.5l275 -101l55 43l13 -12q-34 -56 -49.5 -93t-18.5 -66v-539q4 -21 16 -36.5t32 -24.5l36 26l29 -31l-179 -162q-62 37 -91 90.5
t-29 131.5v8zM451 268v221l-191 105q-28 -46 -41.5 -94t-13.5 -99q0 -79 27 -145t81 -117zM264 631l187 -103v224l-267 102zM572 1124q-36 33 -66 65t-55 64l131 127q35 -44 64 -75.5t57 -57.5zM228 1124q-36 33 -66 65t-55 64l131 127q35 -44 64 -75.5t57 -57.5z" />
    <glyph glyph-name="adieresis" unicode="&#x434;" horiz-adv-x="768" 
d="M451 207l-254 -230h-19q-75 74 -107 138t-32 139q0 94 47.5 187.5t142.5 185.5l-93 264q5 -1 13 -1.5t23 -0.5q62 0 110.5 21.5t79.5 62.5l275 -101l55 43l13 -12q-34 -56 -49.5 -93t-18.5 -66v-539q4 -21 16 -36.5t32 -24.5l36 26l29 -31l-179 -162q-62 37 -91 90.5
t-29 131.5v8zM451 268v221l-191 105q-28 -46 -41.5 -94t-13.5 -99q0 -79 27 -145t81 -117zM264 631l187 -103v224l-267 102zM572 1124q-36 33 -66 65t-55 64l131 127q35 -44 64 -75.5t57 -57.5zM228 1124q-36 33 -66 65t-55 64l131 127q35 -44 64 -75.5t57 -57.5z" />
    <glyph glyph-name="atilde" unicode="&#xe3;" horiz-adv-x="768" 
d="M451 207l-254 -230h-19q-75 74 -107 138t-32 139q0 94 47.5 187.5t142.5 185.5l-93 264q5 -1 13 -1.5t23 -0.5q62 0 110.5 21.5t79.5 62.5l275 -101l55 43l13 -12q-34 -56 -49.5 -93t-18.5 -66v-539q4 -21 16 -36.5t32 -24.5l36 26l29 -31l-179 -162q-62 37 -91 90.5
t-29 131.5v8zM451 268v221l-191 105q-28 -46 -41.5 -94t-13.5 -99q0 -79 27 -145t81 -117zM264 631l187 -103v224l-267 102zM627 1290l29 56l41 -17l-47 -98q-20 -41 -47.5 -58.5t-71.5 -17.5q-38 0 -140 29.5t-163 29.5q-14 0 -21 -0.5t-12 -1.5l-33 -61l-41 16l43 86
q26 52 52 70t69 18q38 0 138.5 -28.5t160.5 -28.5q11 0 21.5 1.5t21.5 4.5z" />
    <glyph glyph-name="atilde" unicode="&#x433;" horiz-adv-x="768" 
d="M451 207l-254 -230h-19q-75 74 -107 138t-32 139q0 94 47.5 187.5t142.5 185.5l-93 264q5 -1 13 -1.5t23 -0.5q62 0 110.5 21.5t79.5 62.5l275 -101l55 43l13 -12q-34 -56 -49.5 -93t-18.5 -66v-539q4 -21 16 -36.5t32 -24.5l36 26l29 -31l-179 -162q-62 37 -91 90.5
t-29 131.5v8zM451 268v221l-191 105q-28 -46 -41.5 -94t-13.5 -99q0 -79 27 -145t81 -117zM264 631l187 -103v224l-267 102zM627 1290l29 56l41 -17l-47 -98q-20 -41 -47.5 -58.5t-71.5 -17.5q-38 0 -140 29.5t-163 29.5q-14 0 -21 -0.5t-12 -1.5l-33 -61l-41 16l43 86
q26 52 52 70t69 18q38 0 138.5 -28.5t160.5 -28.5q11 0 21.5 1.5t21.5 4.5z" />
    <glyph glyph-name="aring" unicode="&#xe5;" horiz-adv-x="768" 
d="M276 1290q0 -62 43.5 -105.5t104.5 -43.5t104 43.5t43 105.5t-43 106t-104 44q-62 0 -105 -43.5t-43 -106.5zM176 1290q0 105 71.5 176.5t176.5 71.5q104 0 176 -71.5t72 -176.5q0 -104 -72 -176t-176 -72q-105 0 -176.5 72t-71.5 176zM264 631l187 -103v224l-267 102z
M451 268v221l-191 105q-28 -46 -41.5 -94t-13.5 -99q0 -79 27 -145t81 -117zM451 207l-254 -230h-19q-75 74 -107 138t-32 139q0 94 47.5 187.5t142.5 185.5l-93 264q5 -1 13 -1.5t23 -0.5q62 0 110.5 21.5t79.5 62.5l275 -101l55 43l13 -12q-34 -56 -49.5 -93t-18.5 -66
v-539q4 -21 16 -36.5t32 -24.5l36 26l29 -31l-179 -162q-62 37 -91 90.5t-29 131.5v8z" />
    <glyph glyph-name="aring" unicode="&#x435;" horiz-adv-x="768" 
d="M276 1290q0 -62 43.5 -105.5t104.5 -43.5t104 43.5t43 105.5t-43 106t-104 44q-62 0 -105 -43.5t-43 -106.5zM176 1290q0 105 71.5 176.5t176.5 71.5q104 0 176 -71.5t72 -176.5q0 -104 -72 -176t-176 -72q-105 0 -176.5 72t-71.5 176zM264 631l187 -103v224l-267 102z
M451 268v221l-191 105q-28 -46 -41.5 -94t-13.5 -99q0 -79 27 -145t81 -117zM451 207l-254 -230h-19q-75 74 -107 138t-32 139q0 94 47.5 187.5t142.5 185.5l-93 264q5 -1 13 -1.5t23 -0.5q62 0 110.5 21.5t79.5 62.5l275 -101l55 43l13 -12q-34 -56 -49.5 -93t-18.5 -66
v-539q4 -21 16 -36.5t32 -24.5l36 26l29 -31l-179 -162q-62 37 -91 90.5t-29 131.5v8z" />
    <glyph glyph-name="ccedilla" unicode="&#xe7;" horiz-adv-x="578" 
d="M340 973l205 -142l-90 -135l-166 111v-582l157 -84l86 66l27 -33q-43 -32 -103 -81t-137 -116q-65 60 -134.5 95.5t-141.5 46.5q31 23 44 58t13 95v533q72 31 132 73t108 95zM78 -420l39 101l254 -48q19 17 29 35.5t10 38.5q0 49 -49 76t-140 27h-18q4 19 7 44t3 44v137
h58v-160q119 0 188.5 -45t69.5 -121q0 -52 -28.5 -97t-90.5 -89z" />
    <glyph glyph-name="ccedilla" unicode="&#x437;" horiz-adv-x="578" 
d="M340 973l205 -142l-90 -135l-166 111v-582l157 -84l86 66l27 -33q-43 -32 -103 -81t-137 -116q-65 60 -134.5 95.5t-141.5 46.5q31 23 44 58t13 95v533q72 31 132 73t108 95zM78 -420l39 101l254 -48q19 17 29 35.5t10 38.5q0 49 -49 76t-140 27h-18q4 19 7 44t3 44v137
h58v-160q119 0 188.5 -45t69.5 -121q0 -52 -28.5 -97t-90.5 -89z" />
    <glyph glyph-name="eacute" unicode="&#xe9;" horiz-adv-x="631" 
d="M369 973l256 -281q-78 -58 -158.5 -123t-177.5 -149v-209l153 -72l127 88l29 -34q-65 -45 -134.5 -98.5t-144.5 -117.5q-60 44 -129 74t-147 45q31 24 44 59t13 95v555q58 24 123.5 65t145.5 103zM279 477l182 150l-182 196v-346zM260 1075l-82 37q90 72 162 150t129 163
l148 -53q-67 -87 -156 -161t-201 -136z" />
    <glyph glyph-name="eacute" unicode="&#x439;" horiz-adv-x="631" 
d="M369 973l256 -281q-78 -58 -158.5 -123t-177.5 -149v-209l153 -72l127 88l29 -34q-65 -45 -134.5 -98.5t-144.5 -117.5q-60 44 -129 74t-147 45q31 24 44 59t13 95v555q58 24 123.5 65t145.5 103zM279 477l182 150l-182 196v-346zM260 1075l-82 37q90 72 162 150t129 163
l148 -53q-67 -87 -156 -161t-201 -136z" />
    <glyph glyph-name="egrave" unicode="&#xe8;" horiz-adv-x="631" 
d="M369 973l256 -281q-78 -58 -158.5 -123t-177.5 -149v-209l153 -72l127 88l29 -34q-65 -45 -134.5 -98.5t-144.5 -117.5q-60 44 -129 74t-147 45q31 24 44 59t13 95v555q58 24 123.5 65t145.5 103zM279 477l182 150l-182 196v-346zM443 1075q-111 60 -199.5 134
t-157.5 163l146 53q57 -85 129 -163t161 -150z" />
    <glyph glyph-name="egrave" unicode="&#x438;" horiz-adv-x="631" 
d="M369 973l256 -281q-78 -58 -158.5 -123t-177.5 -149v-209l153 -72l127 88l29 -34q-65 -45 -134.5 -98.5t-144.5 -117.5q-60 44 -129 74t-147 45q31 24 44 59t13 95v555q58 24 123.5 65t145.5 103zM279 477l182 150l-182 196v-346zM443 1075q-111 60 -199.5 134
t-157.5 163l146 53q57 -85 129 -163t161 -150z" />
    <glyph glyph-name="ecircumflex" unicode="&#xea;" horiz-adv-x="631" 
d="M369 973l256 -281q-78 -58 -158.5 -123t-177.5 -149v-209l153 -72l127 88l29 -34q-65 -45 -134.5 -98.5t-144.5 -117.5q-60 44 -129 74t-147 45q31 24 44 59t13 95v555q58 24 123.5 65t145.5 103zM279 477l182 150l-182 196v-346zM332 1280q-48 -61 -107.5 -112
t-132.5 -93l-30 31q60 72 115 151t104 164h102q49 -85 104 -164t115 -151l-32 -31q-69 38 -128 89t-110 116z" />
    <glyph glyph-name="ecircumflex" unicode="&#x43a;" horiz-adv-x="631" 
d="M369 973l256 -281q-78 -58 -158.5 -123t-177.5 -149v-209l153 -72l127 88l29 -34q-65 -45 -134.5 -98.5t-144.5 -117.5q-60 44 -129 74t-147 45q31 24 44 59t13 95v555q58 24 123.5 65t145.5 103zM279 477l182 150l-182 196v-346zM332 1280q-48 -61 -107.5 -112
t-132.5 -93l-30 31q60 72 115 151t104 164h102q49 -85 104 -164t115 -151l-32 -31q-69 38 -128 89t-110 116z" />
    <glyph glyph-name="edieresis" unicode="&#xeb;" horiz-adv-x="631" 
d="M369 973l256 -281q-78 -58 -158.5 -123t-177.5 -149v-209l153 -72l127 88l29 -34q-65 -45 -134.5 -98.5t-144.5 -117.5q-60 44 -129 74t-147 45q31 24 44 59t13 95v555q58 24 123.5 65t145.5 103zM279 477l182 150l-182 196v-346zM494 1124q-36 33 -66 65t-55 64l131 127
q35 -44 64 -75.5t57 -57.5zM150 1124q-36 33 -66 65t-55 64l131 127q35 -44 64 -75.5t57 -57.5z" />
    <glyph glyph-name="edieresis" unicode="&#x43b;" horiz-adv-x="631" 
d="M369 973l256 -281q-78 -58 -158.5 -123t-177.5 -149v-209l153 -72l127 88l29 -34q-65 -45 -134.5 -98.5t-144.5 -117.5q-60 44 -129 74t-147 45q31 24 44 59t13 95v555q58 24 123.5 65t145.5 103zM279 477l182 150l-182 196v-346zM494 1124q-36 33 -66 65t-55 64l131 127
q35 -44 64 -75.5t57 -57.5zM150 1124q-36 33 -66 65t-55 64l131 127q35 -44 64 -75.5t57 -57.5z" />
    <glyph glyph-name="iacute" unicode="&#xed;" horiz-adv-x="426" 
d="M299 200q5 -20 16.5 -34.5t31.5 -23.5l34 26l31 -31l-185 -162q-68 35 -96.5 90.5t-28.5 165.5v537l-59 70l154 135l153 -146l-51 -59v-568zM129 1075l-82 37q90 72 162 150t129 163l148 -53q-67 -87 -156 -161t-201 -136z" />
    <glyph glyph-name="iacute" unicode="&#x43d;" horiz-adv-x="426" 
d="M299 200q5 -20 16.5 -34.5t31.5 -23.5l34 26l31 -31l-185 -162q-68 35 -96.5 90.5t-28.5 165.5v537l-59 70l154 135l153 -146l-51 -59v-568zM129 1075l-82 37q90 72 162 150t129 163l148 -53q-67 -87 -156 -161t-201 -136z" />
    <glyph glyph-name="igrave" unicode="&#xec;" horiz-adv-x="426" 
d="M299 200q5 -20 16.5 -34.5t31.5 -23.5l34 26l31 -31l-185 -162q-68 35 -96.5 90.5t-28.5 165.5v537l-59 70l154 135l153 -146l-51 -59v-568zM312 1075q-111 60 -199.5 134t-157.5 163l146 53q57 -85 129 -163t161 -150z" />
    <glyph glyph-name="igrave" unicode="&#x43c;" horiz-adv-x="426" 
d="M299 200q5 -20 16.5 -34.5t31.5 -23.5l34 26l31 -31l-185 -162q-68 35 -96.5 90.5t-28.5 165.5v537l-59 70l154 135l153 -146l-51 -59v-568zM312 1075q-111 60 -199.5 134t-157.5 163l146 53q57 -85 129 -163t161 -150z" />
    <glyph glyph-name="icircumflex" unicode="&#xee;" horiz-adv-x="426" 
d="M299 200q5 -20 16.5 -34.5t31.5 -23.5l34 26l31 -31l-185 -162q-68 35 -96.5 90.5t-28.5 165.5v537l-59 70l154 135l153 -146l-51 -59v-568zM201 1280q-48 -61 -107.5 -112t-132.5 -93l-30 31q60 72 115 151t104 164h102q49 -85 104 -164t115 -151l-32 -31
q-69 38 -128 89t-110 116z" />
    <glyph glyph-name="icircumflex" unicode="&#x43e;" horiz-adv-x="426" 
d="M299 200q5 -20 16.5 -34.5t31.5 -23.5l34 26l31 -31l-185 -162q-68 35 -96.5 90.5t-28.5 165.5v537l-59 70l154 135l153 -146l-51 -59v-568zM201 1280q-48 -61 -107.5 -112t-132.5 -93l-30 31q60 72 115 151t104 164h102q49 -85 104 -164t115 -151l-32 -31
q-69 38 -128 89t-110 116z" />
    <glyph glyph-name="idieresis" unicode="&#xef;" horiz-adv-x="426" 
d="M299 200q5 -20 16.5 -34.5t31.5 -23.5l34 26l31 -31l-185 -162q-68 35 -96.5 90.5t-28.5 165.5v537l-59 70l154 135l153 -146l-51 -59v-568zM363 1124q-36 33 -66 65t-55 64l131 127q35 -44 64 -75.5t57 -57.5zM19 1124q-36 33 -66 65t-55 64l131 127q35 -44 64 -75.5
t57 -57.5z" />
    <glyph glyph-name="idieresis" unicode="&#x43f;" horiz-adv-x="426" 
d="M299 200q5 -20 16.5 -34.5t31.5 -23.5l34 26l31 -31l-185 -162q-68 35 -96.5 90.5t-28.5 165.5v537l-59 70l154 135l153 -146l-51 -59v-568zM363 1124q-36 33 -66 65t-55 64l131 127q35 -44 64 -75.5t57 -57.5zM19 1124q-36 33 -66 65t-55 64l131 127q35 -44 64 -75.5
t57 -57.5z" />
    <glyph glyph-name="ntilde" unicode="&#xf1;" horiz-adv-x="825" 
d="M301 696v-510l53 -69l-147 -142l-152 142l58 63v533q0 30 -9.5 51t-29.5 37l-33 -27l-31 33l166 166q66 -36 95.5 -87t29.5 -128v-8q42 30 97 78.5t147 136.5l131 -138l80 76l28 -31q-29 -40 -50.5 -73.5t-33.5 -57.5v-540q5 -20 17.5 -35.5t30.5 -23.5l34 26l31 -31
l-180 -162q-67 40 -94 95t-27 161v488l-82 80zM639 1290l29 56l41 -17l-47 -98q-20 -41 -47.5 -58.5t-71.5 -17.5q-38 0 -140 29.5t-163 29.5q-14 0 -21 -0.5t-12 -1.5l-33 -61l-41 16l43 86q26 52 52 70t69 18q38 0 138.5 -28.5t160.5 -28.5q11 0 21.5 1.5t21.5 4.5z" />
    <glyph glyph-name="ntilde" unicode="&#x441;" horiz-adv-x="825" 
d="M301 696v-510l53 -69l-147 -142l-152 142l58 63v533q0 30 -9.5 51t-29.5 37l-33 -27l-31 33l166 166q66 -36 95.5 -87t29.5 -128v-8q42 30 97 78.5t147 136.5l131 -138l80 76l28 -31q-29 -40 -50.5 -73.5t-33.5 -57.5v-540q5 -20 17.5 -35.5t30.5 -23.5l34 26l31 -31
l-180 -162q-67 40 -94 95t-27 161v488l-82 80zM639 1290l29 56l41 -17l-47 -98q-20 -41 -47.5 -58.5t-71.5 -17.5q-38 0 -140 29.5t-163 29.5q-14 0 -21 -0.5t-12 -1.5l-33 -61l-41 16l43 86q26 52 52 70t69 18q38 0 138.5 -28.5t160.5 -28.5q11 0 21.5 1.5t21.5 4.5z" />
    <glyph glyph-name="oacute" unicode="&#xf3;" horiz-adv-x="788" 
d="M397 -25q-77 61 -167 104t-187 64q32 25 44.5 60t12.5 104v498q85 22 153 63t126 105q90 -66 167.5 -104t139.5 -46v-688q-89 -27 -161 -67t-128 -93zM289 236q59 -26 111 -47t100 -39v563q-48 17 -100 40t-111 52v-569zM315 1075l-82 37q90 72 162 150t129 163l148 -53
q-67 -87 -156 -161t-201 -136z" />
    <glyph glyph-name="oacute" unicode="&#x443;" horiz-adv-x="788" 
d="M397 -25q-77 61 -167 104t-187 64q32 25 44.5 60t12.5 104v498q85 22 153 63t126 105q90 -66 167.5 -104t139.5 -46v-688q-89 -27 -161 -67t-128 -93zM289 236q59 -26 111 -47t100 -39v563q-48 17 -100 40t-111 52v-569zM315 1075l-82 37q90 72 162 150t129 163l148 -53
q-67 -87 -156 -161t-201 -136z" />
    <glyph glyph-name="ograve" unicode="&#xf2;" horiz-adv-x="788" 
d="M397 -25q-77 61 -167 104t-187 64q32 25 44.5 60t12.5 104v498q85 22 153 63t126 105q90 -66 167.5 -104t139.5 -46v-688q-89 -27 -161 -67t-128 -93zM289 236q59 -26 111 -47t100 -39v563q-48 17 -100 40t-111 52v-569zM498 1075q-111 60 -199.5 134t-157.5 163l146 53
q57 -85 129 -163t161 -150z" />
    <glyph glyph-name="ograve" unicode="&#x442;" horiz-adv-x="788" 
d="M397 -25q-77 61 -167 104t-187 64q32 25 44.5 60t12.5 104v498q85 22 153 63t126 105q90 -66 167.5 -104t139.5 -46v-688q-89 -27 -161 -67t-128 -93zM289 236q59 -26 111 -47t100 -39v563q-48 17 -100 40t-111 52v-569zM498 1075q-111 60 -199.5 134t-157.5 163l146 53
q57 -85 129 -163t161 -150z" />
    <glyph glyph-name="ocircumflex" unicode="&#xf4;" horiz-adv-x="788" 
d="M397 -25q-77 61 -167 104t-187 64q32 25 44.5 60t12.5 104v498q85 22 153 63t126 105q90 -66 167.5 -104t139.5 -46v-688q-89 -27 -161 -67t-128 -93zM289 236q59 -26 111 -47t100 -39v563q-48 17 -100 40t-111 52v-569zM387 1280q-48 -61 -107.5 -112t-132.5 -93l-30 31
q60 72 115 151t104 164h102q49 -85 104 -164t115 -151l-32 -31q-69 38 -128 89t-110 116z" />
    <glyph glyph-name="ocircumflex" unicode="&#x444;" horiz-adv-x="788" 
d="M397 -25q-77 61 -167 104t-187 64q32 25 44.5 60t12.5 104v498q85 22 153 63t126 105q90 -66 167.5 -104t139.5 -46v-688q-89 -27 -161 -67t-128 -93zM289 236q59 -26 111 -47t100 -39v563q-48 17 -100 40t-111 52v-569zM387 1280q-48 -61 -107.5 -112t-132.5 -93l-30 31
q60 72 115 151t104 164h102q49 -85 104 -164t115 -151l-32 -31q-69 38 -128 89t-110 116z" />
    <glyph glyph-name="odieresis" unicode="&#xf6;" horiz-adv-x="788" 
d="M397 -25q-77 61 -167 104t-187 64q32 25 44.5 60t12.5 104v498q85 22 153 63t126 105q90 -66 167.5 -104t139.5 -46v-688q-89 -27 -161 -67t-128 -93zM289 236q59 -26 111 -47t100 -39v563q-48 17 -100 40t-111 52v-569zM549 1124q-36 33 -66 65t-55 64l131 127
q35 -44 64 -75.5t57 -57.5zM205 1124q-36 33 -66 65t-55 64l131 127q35 -44 64 -75.5t57 -57.5z" />
    <glyph glyph-name="odieresis" unicode="&#x446;" horiz-adv-x="788" 
d="M397 -25q-77 61 -167 104t-187 64q32 25 44.5 60t12.5 104v498q85 22 153 63t126 105q90 -66 167.5 -104t139.5 -46v-688q-89 -27 -161 -67t-128 -93zM289 236q59 -26 111 -47t100 -39v563q-48 17 -100 40t-111 52v-569zM549 1124q-36 33 -66 65t-55 64l131 127
q35 -44 64 -75.5t57 -57.5zM205 1124q-36 33 -66 65t-55 64l131 127q35 -44 64 -75.5t57 -57.5z" />
    <glyph glyph-name="otilde" unicode="&#xf5;" horiz-adv-x="788" 
d="M397 -25q-77 61 -167 104t-187 64q32 25 44.5 60t12.5 104v498q85 22 153 63t126 105q90 -66 167.5 -104t139.5 -46v-688q-89 -27 -161 -67t-128 -93zM289 236q59 -26 111 -47t100 -39v563q-48 17 -100 40t-111 52v-569zM604 1290l29 56l41 -17l-47 -98
q-20 -41 -47.5 -58.5t-71.5 -17.5q-38 0 -140 29.5t-163 29.5q-14 0 -21 -0.5t-12 -1.5l-33 -61l-41 16l43 86q26 52 52 70t69 18q38 0 138.5 -28.5t160.5 -28.5q11 0 21.5 1.5t21.5 4.5z" />
    <glyph glyph-name="otilde" unicode="&#x445;" horiz-adv-x="788" 
d="M397 -25q-77 61 -167 104t-187 64q32 25 44.5 60t12.5 104v498q85 22 153 63t126 105q90 -66 167.5 -104t139.5 -46v-688q-89 -27 -161 -67t-128 -93zM289 236q59 -26 111 -47t100 -39v563q-48 17 -100 40t-111 52v-569zM604 1290l29 56l41 -17l-47 -98
q-20 -41 -47.5 -58.5t-71.5 -17.5q-38 0 -140 29.5t-163 29.5q-14 0 -21 -0.5t-12 -1.5l-33 -61l-41 16l43 86q26 52 52 70t69 18q38 0 138.5 -28.5t160.5 -28.5q11 0 21.5 1.5t21.5 4.5z" />
    <glyph glyph-name="uacute" unicode="&#xfa;" horiz-adv-x="815" 
d="M301 236q0 -24 17.5 -49.5t46.5 -43.5l147 119v514l-53 66l147 131l152 -131l-58 -60v-581q0 -13 13.5 -31t34.5 -29l34 27l31 -31l-180 -162q-62 37 -91.5 90.5t-29.5 127.5v8l-270 -224q-60 42 -94.5 110.5t-34.5 143.5v545l-29 31l-43 -33l-31 33l195 166l153 -131
l-57 -60v-546zM346 1075l-82 37q90 72 162 150t129 163l148 -53q-67 -87 -156 -161t-201 -136z" />
    <glyph glyph-name="uacute" unicode="&#x44a;" horiz-adv-x="815" 
d="M301 236q0 -24 17.5 -49.5t46.5 -43.5l147 119v514l-53 66l147 131l152 -131l-58 -60v-581q0 -13 13.5 -31t34.5 -29l34 27l31 -31l-180 -162q-62 37 -91.5 90.5t-29.5 127.5v8l-270 -224q-60 42 -94.5 110.5t-34.5 143.5v545l-29 31l-43 -33l-31 33l195 166l153 -131
l-57 -60v-546zM346 1075l-82 37q90 72 162 150t129 163l148 -53q-67 -87 -156 -161t-201 -136z" />
    <glyph glyph-name="ugrave" unicode="&#xf9;" horiz-adv-x="815" 
d="M301 236q0 -24 17.5 -49.5t46.5 -43.5l147 119v514l-53 66l147 131l152 -131l-58 -60v-581q0 -13 13.5 -31t34.5 -29l34 27l31 -31l-180 -162q-62 37 -91.5 90.5t-29.5 127.5v8l-270 -224q-60 42 -94.5 110.5t-34.5 143.5v545l-29 31l-43 -33l-31 33l195 166l153 -131
l-57 -60v-546zM529 1075q-111 60 -199.5 134t-157.5 163l146 53q57 -85 129 -163t161 -150z" />
    <glyph glyph-name="ugrave" unicode="&#x449;" horiz-adv-x="815" 
d="M301 236q0 -24 17.5 -49.5t46.5 -43.5l147 119v514l-53 66l147 131l152 -131l-58 -60v-581q0 -13 13.5 -31t34.5 -29l34 27l31 -31l-180 -162q-62 37 -91.5 90.5t-29.5 127.5v8l-270 -224q-60 42 -94.5 110.5t-34.5 143.5v545l-29 31l-43 -33l-31 33l195 166l153 -131
l-57 -60v-546zM529 1075q-111 60 -199.5 134t-157.5 163l146 53q57 -85 129 -163t161 -150z" />
    <glyph glyph-name="ucircumflex" unicode="&#xfb;" horiz-adv-x="815" 
d="M301 236q0 -24 17.5 -49.5t46.5 -43.5l147 119v514l-53 66l147 131l152 -131l-58 -60v-581q0 -13 13.5 -31t34.5 -29l34 27l31 -31l-180 -162q-62 37 -91.5 90.5t-29.5 127.5v8l-270 -224q-60 42 -94.5 110.5t-34.5 143.5v545l-29 31l-43 -33l-31 33l195 166l153 -131
l-57 -60v-546zM418 1280q-48 -61 -107.5 -112t-132.5 -93l-30 31q60 72 115 151t104 164h102q49 -85 104 -164t115 -151l-32 -31q-69 38 -128 89t-110 116z" />
    <glyph glyph-name="ucircumflex" unicode="&#x44b;" horiz-adv-x="815" 
d="M301 236q0 -24 17.5 -49.5t46.5 -43.5l147 119v514l-53 66l147 131l152 -131l-58 -60v-581q0 -13 13.5 -31t34.5 -29l34 27l31 -31l-180 -162q-62 37 -91.5 90.5t-29.5 127.5v8l-270 -224q-60 42 -94.5 110.5t-34.5 143.5v545l-29 31l-43 -33l-31 33l195 166l153 -131
l-57 -60v-546zM418 1280q-48 -61 -107.5 -112t-132.5 -93l-30 31q60 72 115 151t104 164h102q49 -85 104 -164t115 -151l-32 -31q-69 38 -128 89t-110 116z" />
    <glyph glyph-name="udieresis" unicode="&#xfc;" horiz-adv-x="815" 
d="M301 236q0 -24 17.5 -49.5t46.5 -43.5l147 119v514l-53 66l147 131l152 -131l-58 -60v-581q0 -13 13.5 -31t34.5 -29l34 27l31 -31l-180 -162q-62 37 -91.5 90.5t-29.5 127.5v8l-270 -224q-60 42 -94.5 110.5t-34.5 143.5v545l-29 31l-43 -33l-31 33l195 166l153 -131
l-57 -60v-546zM580 1124q-36 33 -66 65t-55 64l131 127q35 -44 64 -75.5t57 -57.5zM236 1124q-36 33 -66 65t-55 64l131 127q35 -44 64 -75.5t57 -57.5z" />
    <glyph glyph-name="udieresis" unicode="&#x44c;" horiz-adv-x="815" 
d="M301 236q0 -24 17.5 -49.5t46.5 -43.5l147 119v514l-53 66l147 131l152 -131l-58 -60v-581q0 -13 13.5 -31t34.5 -29l34 27l31 -31l-180 -162q-62 37 -91.5 90.5t-29.5 127.5v8l-270 -224q-60 42 -94.5 110.5t-34.5 143.5v545l-29 31l-43 -33l-31 33l195 166l153 -131
l-57 -60v-546zM580 1124q-36 33 -66 65t-55 64l131 127q35 -44 64 -75.5t57 -57.5zM236 1124q-36 33 -66 65t-55 64l131 127q35 -44 64 -75.5t57 -57.5z" />
    <glyph glyph-name="dagger" unicode="&#x2020;" 
d="M575 -189q-51 -9 -91 -32.5t-70 -63.5v1024h-254l-25 -67h-39l76 219h242v340q39 20 70 44t55 52h36v-436h252l29 76h39l-80 -228h-240v-928z" />
    <glyph glyph-name="degree" unicode="&#xb0;" horiz-adv-x="674" 
d="M338 1362q-81 0 -138 -56t-57 -137t57 -138.5t138 -57.5t136.5 57.5t55.5 138.5t-55.5 137t-136.5 56zM338 1456q118 0 202.5 -84.5t84.5 -204.5q0 -119 -84 -202.5t-205 -83.5t-204 83t-83 203t85 204.5t204 84.5z" />
    <glyph glyph-name="cent" unicode="&#xa2;" horiz-adv-x="948" 
d="M279 401l71 -30v602l-71 43v-615zM344 -43v207q-62 50 -131.5 84.5t-149.5 54.5q28 44 39 79t11 79v532q74 33 131 74t100 92v117h86v-166l143 -100l-92 -127l-51 35v-574l31 -12l82 69l26 -34q-36 -28 -71 -58.5t-68 -62.5v-289h-86z" />
    <glyph glyph-name="sterling" unicode="&#xa3;" horiz-adv-x="948" 
d="M129 -16l-35 45q40 32 94 62t127 61q11 23 16 51.5t5 60.5q0 44 -14.5 89t-42.5 91h-168v48h145q-8 21 -14 41t-11 38h-120v50h110q-6 31 -9 54t-3 40q0 133 95 280.5t255 255.5l309 -143l-86 -172l-338 160q-31 -46 -47 -92t-16 -91q0 -40 19 -104t71 -188h244v-50h-236
q0 -1 1 -6q3 -30 3 -45q0 -12 -0.5 -17.5t-1.5 -10.5h234v-48h-236q-4 -46 -26 -111t-66 -157q67 19 132 28t130 9q58 0 118.5 -11t123.5 -34l-68 -199q-89 47 -173 69.5t-169 22.5q-59 0 -147 -19.5t-205 -57.5z" />
    <glyph glyph-name="section" unicode="&#xa7;" horiz-adv-x="948" 
d="M655 346q24 55 35.5 99t11.5 73q0 40 -17.5 64t-57.5 39q-22 8 -151 44.5t-230 77.5q-26 -57 -37.5 -97t-11.5 -68q0 -89 253 -166q126 -39 205 -66zM105 348q-12 37 -17.5 72t-5.5 67q0 65 26.5 135t79.5 148q-38 43 -57.5 92t-19.5 103q0 131 96 234.5t248 129.5
l358 -78l-68 -170l-464 119q-24 -40 -36 -74t-12 -65q0 -101 109.5 -165t458.5 -144q12 -38 18 -72t6 -66q0 -70 -26.5 -143t-81.5 -156q43 -35 65.5 -89t22.5 -124q0 -147 -97 -254.5t-251 -130.5l-402 88l66 170l512 -131q24 38 35.5 78.5t11.5 83.5q0 75 -27 114.5
t-116 84.5q-38 18 -141 52.5t-291 90.5z" />
    <glyph glyph-name="bullet" unicode="&#x2022;" horiz-adv-x="1208" 
d="M307 762q0 123 87 209t210 86q122 0 208.5 -86.5t86.5 -208.5t-87.5 -209.5t-209.5 -87.5q-123 0 -209 87t-86 210z" />
    <glyph glyph-name="paragraph" unicode="&#xb6;" 
d="M958 1479v-86h-120v-1393h-111v1393h-176v-1393h-113v782q-170 8 -271 102.5t-101 245.5q0 157 107.5 253t285.5 96h499z" />
    <glyph glyph-name="germandbls" unicode="&#xdf;" horiz-adv-x="967" 
d="M344 1141v-400l303 230l125 -107q18 -16 37 -24.5t41 -10.5v-12l-211 -215q127 -5 196.5 -71t69.5 -181q0 -95 -54 -178t-153 -137q-18 -10 -53 -28q-149 -78 -149 -150q0 -33 20 -56.5t47 -23.5q12 0 32.5 5t29.5 5q14 0 23 -8t9 -21q0 -16 -18.5 -29.5t-44.5 -13.5
q-53 0 -96 44t-43 100q0 33 15.5 66t45.5 63q11 10 47.5 43.5t61.5 56.5q45 44 68.5 96t23.5 109q0 77 -43.5 121.5t-118.5 44.5q-19 0 -52.5 -6t-92.5 -21l260 270l-135 127l-191 -139v-473l119 -74l47 43l29 -32q-56 -52 -173 -172l-6 -7q-78 70 -141 110.5t-119 55.5
q31 24 44.5 59t13.5 95v528h-103l17 111h86v215q57 30 109 67.5t102 83.5l192 -47l-41 -153z" />
    <glyph glyph-name="germandbls" unicode="&#x42f;" horiz-adv-x="967" 
d="M344 1141v-400l303 230l125 -107q18 -16 37 -24.5t41 -10.5v-12l-211 -215q127 -5 196.5 -71t69.5 -181q0 -95 -54 -178t-153 -137q-18 -10 -53 -28q-149 -78 -149 -150q0 -33 20 -56.5t47 -23.5q12 0 32.5 5t29.5 5q14 0 23 -8t9 -21q0 -16 -18.5 -29.5t-44.5 -13.5
q-53 0 -96 44t-43 100q0 33 15.5 66t45.5 63q11 10 47.5 43.5t61.5 56.5q45 44 68.5 96t23.5 109q0 77 -43.5 121.5t-118.5 44.5q-19 0 -52.5 -6t-92.5 -21l260 270l-135 127l-191 -139v-473l119 -74l47 43l29 -32q-56 -52 -173 -172l-6 -7q-78 70 -141 110.5t-119 55.5
q31 24 44.5 59t13.5 95v528h-103l17 111h86v215q57 30 109 67.5t102 83.5l192 -47l-41 -153z" />
    <glyph glyph-name="registered" unicode="&#xae;" horiz-adv-x="1683" 
d="M737 721q14 -1 29 -1.5t35 -0.5q105 0 163 45t58 127q0 72 -50 116t-134 44q-51 0 -76 -17.5t-25 -52.5v-260zM467 1094h397q144 0 231 -54t87 -141q0 -83 -66 -131.5t-219 -75.5q95 -28 145 -76.5t70 -130.5q6 -23 11 -65q11 -88 57 -88q31 0 47 33.5t16 97.5h45v-19
q0 -84 -41 -129t-119 -45q-49 0 -84 16t-51 46q-20 37 -22 110t-8 97q-19 71 -66.5 105t-130.5 34h-29v-246q0 -51 25.5 -72t93.5 -26v-45h-389v45q69 3 95 24.5t26 73.5v516q0 53 -26 74.5t-95 26.5v45zM844 1305q-123 0 -238 -49t-203 -138q-88 -90 -134 -202.5
t-46 -237.5q0 -127 46.5 -239t136.5 -201q89 -90 199.5 -136.5t236.5 -46.5q125 0 237 47t199 136q88 90 135 203t47 237q0 125 -47.5 242t-132.5 202q-86 86 -201 134.5t-235 48.5zM844 1391q140 0 273 -56t233 -157q97 -99 149.5 -230.5t52.5 -275.5q0 -139 -56 -270
t-161 -234q-100 -99 -228 -150t-276 -51q-134 0 -261.5 54.5t-229.5 154.5q-102 101 -155.5 229t-53.5 273q0 142 53 270.5t154 231.5q100 101 231.5 156t274.5 55z" />
    <glyph glyph-name="copyright" unicode="&#xa9;" horiz-adv-x="1683" 
d="M1122 1098h37l2 -316h-43q-32 135 -103 204t-177 69q-119 0 -179.5 -93.5t-60.5 -277.5q0 -187 66.5 -284t193.5 -97q84 0 153.5 44t127.5 132l39 -26q-61 -105 -148 -158t-199 -53q-173 0 -292 124t-119 304q0 183 118.5 307.5t290.5 124.5q75 0 149.5 -33t80.5 -33
q27 0 42 14.5t21 47.5zM844 1305q-123 0 -238 -49t-203 -138q-88 -90 -134 -202.5t-46 -237.5q0 -127 46.5 -239t136.5 -201q91 -90 201.5 -136.5t234.5 -46.5q126 0 237 46.5t199 136.5q89 90 136.5 204t47.5 236q0 123 -48 241t-134 203q-86 86 -201 134.5t-235 48.5z
M844 1391q138 0 269 -54.5t230 -152.5q100 -99 154.5 -232t54.5 -274q0 -140 -53.5 -269.5t-155.5 -232.5q-99 -101 -228 -155t-273 -54q-142 0 -270 53.5t-232 155.5q-103 102 -156 229t-53 273q0 141 53.5 270t155.5 232q100 101 230.5 156t273.5 55z" />
    <glyph glyph-name="trademark" unicode="&#x2122;" horiz-adv-x="1683" 
d="M780 1442h191l137 -391l143 391h181v-25l-30 -2q-21 -2 -31.5 -15t-10.5 -38v-375q0 -25 10.5 -38t31.5 -15l30 -2v-29h-240v29l31 2q21 2 32 15.5t11 37.5v387l-172 -473h-21l-172 475v-389q0 -24 11 -37.5t32 -15.5l33 -2v-29h-197v29l34 2q20 2 31 15.5t11 37.5v371
q0 24 -11 37.5t-31 15.5l-34 4v27zM250 1442h444l11 -182h-27q-8 78 -40.5 114.5t-94.5 36.5h-17v-424q0 -24 10.5 -37.5t30.5 -15.5l33 -2v-29h-254v29l31 2q21 2 32 15.5t11 37.5v424h-17q-64 0 -96.5 -36t-40.5 -115h-26z" />
    <glyph glyph-name="acute" unicode="&#xb4;" 
d="M440 1075l-82 37q90 72 162 150t129 163l148 -53q-67 -87 -156 -161t-201 -136z" />
    <glyph glyph-name="dieresis" unicode="&#xa8;" 
d="M674 1124q-36 33 -66 65t-55 64l131 127q35 -44 64 -75.5t57 -57.5zM330 1124q-36 33 -66 65t-55 64l131 127q35 -44 64 -75.5t57 -57.5z" />
    <glyph glyph-name="notequal" unicode="&#x2260;" horiz-adv-x="1706" 
d="M1208 1194l105 -82l-187 -235h326v-136h-416l-205 -262h621v-135h-709l-249 -317l-105 84l184 233h-319v135h408l204 262h-612v136h702z" />
    <glyph glyph-name="AE" unicode="&#xc6;" horiz-adv-x="1853" 
d="M1409 754l199 264l-199 90v-354zM1362 154v1001l-82 -90v-387q0 -108 -48 -196t-153 -171q36 -63 107 -102.5t176 -54.5zM666 135l188 152q-22 34 -35.5 69.5t-19.5 73.5h-471l-74 -106zM426 575h342q-3 44 -4.5 80.5t-1.5 63.5q0 71 8.5 137t26.5 129q-13 19 -24 34
t-23 30zM301 496l277 409q-13 23 -37.5 35t-55.5 12q-52 0 -88.5 -25t-62.5 -79v8q0 94 61 153.5t156 59.5q32 0 63 -4.5t63 -13.5l32 43q-55 39 -113.5 58t-122.5 19q-132 0 -227.5 -101t-95.5 -241q0 -85 38.5 -170.5t112.5 -162.5zM535 -35l-287 162q-24 14 -43.5 20.5
t-40.5 6.5q-24 0 -39.5 -16.5t-15.5 -41.5q0 -15 11 -40.5t11 -37.5q0 -22 -13.5 -35.5t-35.5 -13.5q-26 0 -40.5 16t-14.5 44q0 32 17.5 72.5t57.5 101.5l172 252q-98 101 -148 208.5t-50 217.5q0 85 29 161.5t85 137.5q69 74 156.5 113.5t183.5 39.5q89 0 181 -35.5
t192 -109.5q56 72 128.5 109t158.5 38l6 -12q-126 -66 -179.5 -174.5t-53.5 -300.5q0 -172 23.5 -295.5t72.5 -200.5q22 18 31.5 43t9.5 86v17v487l350 342q66 -52 149 -78t183 -26q20 0 31 0.5t19 0.5l-243 -304h189q-23 -48 -55.5 -119t-43.5 -92h-270v-562h14
q109 0 206.5 45.5t193.5 139.5l14 -10q-80 -179 -202 -269t-283 -90q-149 0 -268 70t-205 209z" />
    <glyph glyph-name="AE" unicode="&#x416;" horiz-adv-x="1853" 
d="M1409 754l199 264l-199 90v-354zM1362 154v1001l-82 -90v-387q0 -108 -48 -196t-153 -171q36 -63 107 -102.5t176 -54.5zM666 135l188 152q-22 34 -35.5 69.5t-19.5 73.5h-471l-74 -106zM426 575h342q-3 44 -4.5 80.5t-1.5 63.5q0 71 8.5 137t26.5 129q-13 19 -24 34
t-23 30zM301 496l277 409q-13 23 -37.5 35t-55.5 12q-52 0 -88.5 -25t-62.5 -79v8q0 94 61 153.5t156 59.5q32 0 63 -4.5t63 -13.5l32 43q-55 39 -113.5 58t-122.5 19q-132 0 -227.5 -101t-95.5 -241q0 -85 38.5 -170.5t112.5 -162.5zM535 -35l-287 162q-24 14 -43.5 20.5
t-40.5 6.5q-24 0 -39.5 -16.5t-15.5 -41.5q0 -15 11 -40.5t11 -37.5q0 -22 -13.5 -35.5t-35.5 -13.5q-26 0 -40.5 16t-14.5 44q0 32 17.5 72.5t57.5 101.5l172 252q-98 101 -148 208.5t-50 217.5q0 85 29 161.5t85 137.5q69 74 156.5 113.5t183.5 39.5q89 0 181 -35.5
t192 -109.5q56 72 128.5 109t158.5 38l6 -12q-126 -66 -179.5 -174.5t-53.5 -300.5q0 -172 23.5 -295.5t72.5 -200.5q22 18 31.5 43t9.5 86v17v487l350 342q66 -52 149 -78t183 -26q20 0 31 0.5t19 0.5l-243 -304h189q-23 -48 -55.5 -119t-43.5 -92h-270v-562h14
q109 0 206.5 45.5t193.5 139.5l14 -10q-80 -179 -202 -269t-283 -90q-149 0 -268 70t-205 209z" />
    <glyph glyph-name="Oslash" unicode="&#xd8;" horiz-adv-x="1434" 
d="M373 289q67 -68 139 -103t149 -39l1 461zM709 147q131 8 244 92.5t184 229.5q-40 59 -96 88t-128 29q-47 0 -98.5 -25.5t-105.5 -75.5v-338zM709 549q58 41 109 59.5t104 18.5q70 0 126.5 -24.5t110.5 -78.5q15 34 23 70t8 74q0 54 -14 101t-41 87q-46 -44 -100.5 -66
t-116.5 -22q-28 0 -54.5 3.5t-51.5 10.5l-103 -118v-115zM1012 1012l-172 -195q20 -5 40 -7.5t40 -2.5q58 0 107.5 23.5t84.5 68.5q-17 31 -42 59t-58 54zM709 1124v-340l233 273q-49 26 -106.5 42.5t-126.5 24.5zM561 616l101 117v393l-101 -2v-508zM324 350q39 37 56 79
t17 106v497q-84 -69 -125 -164.5t-41 -224.5q0 -80 22 -150t71 -143zM117 905q135 82 295.5 189t343.5 237q87 -8 168.5 -32.5t160.5 -65.5l127 139h111l-164 -184q115 -94 172.5 -200t57.5 -226q0 -116 -56.5 -232t-171.5 -235q-153 -158 -309.5 -243t-292.5 -85
q-101 0 -188 34.5t-152 98.5l-141 -159h-105l189 221q-58 78 -87.5 177t-29.5 214q0 78 18 166t54 186z" />
    <glyph glyph-name="Oslash" unicode="&#x428;" horiz-adv-x="1434" 
d="M373 289q67 -68 139 -103t149 -39l1 461zM709 147q131 8 244 92.5t184 229.5q-40 59 -96 88t-128 29q-47 0 -98.5 -25.5t-105.5 -75.5v-338zM709 549q58 41 109 59.5t104 18.5q70 0 126.5 -24.5t110.5 -78.5q15 34 23 70t8 74q0 54 -14 101t-41 87q-46 -44 -100.5 -66
t-116.5 -22q-28 0 -54.5 3.5t-51.5 10.5l-103 -118v-115zM1012 1012l-172 -195q20 -5 40 -7.5t40 -2.5q58 0 107.5 23.5t84.5 68.5q-17 31 -42 59t-58 54zM709 1124v-340l233 273q-49 26 -106.5 42.5t-126.5 24.5zM561 616l101 117v393l-101 -2v-508zM324 350q39 37 56 79
t17 106v497q-84 -69 -125 -164.5t-41 -224.5q0 -80 22 -150t71 -143zM117 905q135 82 295.5 189t343.5 237q87 -8 168.5 -32.5t160.5 -65.5l127 139h111l-164 -184q115 -94 172.5 -200t57.5 -226q0 -116 -56.5 -232t-171.5 -235q-153 -158 -309.5 -243t-292.5 -85
q-101 0 -188 34.5t-152 98.5l-141 -159h-105l189 221q-58 78 -87.5 177t-29.5 214q0 78 18 166t54 186z" />
    <glyph glyph-name="infinity" unicode="&#x221e;" horiz-adv-x="1706" 
d="M915 559q50 -89 116.5 -133.5t150.5 -44.5q101 0 165 67.5t64 172.5q0 101 -59 168t-148 67q-81 0 -146.5 -66.5t-142.5 -230.5zM793 666q-49 88 -115.5 132t-151.5 44q-101 0 -165 -66.5t-64 -171.5q0 -101 59 -168t148 -67q81 0 146.5 66t142.5 231zM864 483
q-71 -136 -148.5 -199t-172.5 -63q-135 0 -228.5 112t-93.5 277q0 175 83.5 283t217.5 108q95 0 170 -61.5t150 -202.5q68 138 147 203.5t176 65.5q133 0 227.5 -113t94.5 -279q0 -174 -83.5 -281.5t-217.5 -107.5q-95 0 -168.5 58.5t-153.5 199.5z" />
    <glyph glyph-name="plusminus" unicode="&#xb1;" horiz-adv-x="1706" 
d="M254 170h1198v-141h-1198v141zM782 1192h142v-340h528v-139h-528v-340h-142v340h-528v139h528v340z" />
    <glyph glyph-name="lessequal" unicode="&#x2264;" horiz-adv-x="1706" 
d="M262 162h1184v-139h-1184v139zM1444 1206v-147l-936 -309l936 -306v-149l-1182 395v121z" />
    <glyph glyph-name="greaterequal" unicode="&#x2265;" horiz-adv-x="1706" 
d="M262 162h1184v-139h-1184v139zM262 1206l1184 -395v-121l-1184 -395v149l938 306l-938 309v147z" />
    <glyph glyph-name="yen" unicode="&#xa5;" horiz-adv-x="948" 
d="M498 510q80 79 118.5 165.5t38.5 188.5q0 80 -21 142.5t-63 105.5l-194 -119zM698 1247q60 -61 91.5 -146t31.5 -183q0 -119 -56.5 -215.5t-176.5 -182.5h235l-16 -114h-299v-193l88 -76l53 49l29 -32q-39 -36 -82 -78.5t-96 -98.5q-74 73 -129 112.5t-101 53.5
q31 24 44.5 59t13.5 95v109h-234l15 114h204l-120 443q-23 82 -54.5 117.5t-79.5 35.5q-27 0 -54.5 -13t-55.5 -40l-12 12q43 91 96.5 133.5t122.5 42.5q75 0 125 -51.5t81 -161.5z" />
    <glyph glyph-name="mu" unicode="&#xb5;" horiz-adv-x="1169" 
d="M166 195q-33 -143 -64 -355q-37 -260 -116 -260q-43 0 -65.5 24.5t-22.5 69.5q0 44 70 277t110 422l108 512h168l-100 -475q-9 -40 -13.5 -74.5t-4.5 -59.5q0 -70 41.5 -108.5t119.5 -38.5q97 0 154 54.5t82 172.5l112 529h173l-115 -532q-9 -43 -14 -75t-5 -53
q0 -48 26.5 -74t76.5 -26q44 0 81 25t58 69q13 27 27 73q17 56 39 56q9 0 15.5 -8t6.5 -21q0 -34 -13.5 -88t-35.5 -100q-39 -78 -92.5 -117t-122.5 -39q-81 0 -125.5 55t-44.5 154v13q-52 -115 -123 -168.5t-172 -53.5q-95 0 -151 56t-68 164z" />
    <glyph glyph-name="partialdiff" unicode="&#x2202;" horiz-adv-x="1059" 
d="M756 621q15 87 22.5 168.5t7.5 156.5q0 129 -36.5 194.5t-108.5 65.5q-55 0 -127 -58t-108 -58t-60 22t-24 53q0 62 72 111t173 49q180 0 287 -155t107 -418q0 -335 -144.5 -556t-357.5 -221q-152 0 -253.5 108t-101.5 271q0 198 110.5 326.5t272.5 128.5
q101 0 166 -45.5t103 -142.5zM707 494q0 116 -43.5 178.5t-122.5 62.5q-109 0 -179.5 -129t-70.5 -336q0 -116 43 -177.5t123 -61.5q109 0 179.5 130t70.5 333z" />
    <glyph glyph-name="summation" unicode="&#x2211;" horiz-adv-x="1462" 
d="M16 1473h1162l110 -365h-78l-73 227q-11 34 -41.5 49t-98.5 15h-690l809 -832v-37l-825 -735h887q61 0 79 13t29 51l72 229h78l-148 -481h-1272v41l920 815l-920 956v54z" />
    <glyph glyph-name="product" unicode="&#x220f;" horiz-adv-x="1630" 
d="M53 1473h1522v-74h-191v-1718h191v-74h-596v74h192v1718h-714v-1718h192v-74h-596v74h191v1718h-191v74z" />
    <glyph glyph-name="pi" unicode="&#x3c0;" horiz-adv-x="1389" 
d="M1370 885l-43 -199h-340q-33 -137 -37 -401q-1 -58 -2 -87q-3 -125 -32.5 -183t-90.5 -58q-42 0 -64 28t-22 83q0 58 77 259t114 359h-387q-35 -142 -40 -414q-1 -49 -1 -73q-4 -127 -33 -184.5t-90 -57.5q-42 0 -63 28t-21 83q0 59 76 260t112 358h-188
q-91 0 -135.5 -41.5t-67.5 -152.5h-57q40 218 124 305.5t251 87.5h960z" />
    <glyph glyph-name="integral" unicode="&#x222b;" horiz-adv-x="1067" 
d="M311 -262q106 0 120 688q2 108 3 165q12 515 107 737t297 222q80 0 130 -42t50 -107q0 -54 -32 -85.5t-87 -31.5q-42 0 -70 19t-40 54q-6 15 -10.5 51t-20.5 36q-107 0 -121 -619q-4 -193 -8 -303q-17 -479 -111.5 -686t-290.5 -207q-79 0 -129.5 41.5t-50.5 106.5
q0 56 34 87.5t95 31.5q33 0 57 -14.5t39 -42.5q10 -17 15 -59t24 -42z" />
    <glyph glyph-name="ordfeminine" unicode="&#xaa;" horiz-adv-x="575" 
d="M338 823l-191 -161h-14q-58 54 -81 98t-23 96q0 65 36 130.5t107 129.5l-69 186q3 0 9 -1t17 -1q48 0 84 15.5t59 44.5l205 -72l43 31l8 -8q-26 -43 -37 -68t-14 -45v-377q5 -15 14 -26t23 -17l27 19l22 -21l-135 -114q-46 26 -68 64t-22 91v6zM338 866v154l-143 74
q-21 -33 -31 -67t-10 -69q0 -54 20.5 -100t61.5 -82zM199 1120l139 -71v155l-199 72z" />
    <glyph glyph-name="ordmasculine" unicode="&#xba;" horiz-adv-x="592" 
d="M299 662q-58 41 -125.5 70.5t-140.5 45.5q23 17 33 41.5t10 73.5v348q62 15 113.5 44.5t95.5 74.5q67 -46 125 -73t104 -34v-481q-63 -17 -117 -45t-98 -65zM217 844q37 -16 76.5 -31.5t81.5 -30.5v396q-44 14 -141 56q-12 5 -17 7v-397z" />
    <glyph glyph-name="Omega" unicode="&#x3a9;" horiz-adv-x="1569" 
d="M1112 231v-26h311l60 184h61l-117 -389h-505q120 216 181.5 435t61.5 427q0 277 -95.5 418t-283.5 141q-189 0 -284.5 -140t-95.5 -419q0 -209 61 -426t182 -436h-506l-116 389h61l59 -184h312v26q-165 183 -237 335t-72 311q0 267 183 443.5t453 176.5t452.5 -177
t182.5 -443q0 -158 -71.5 -309t-237.5 -337z" />
    <glyph glyph-name="ae" unicode="&#xe6;" horiz-adv-x="969" 
d="M627 477l182 150l-182 196v-346zM451 270v219l-191 105q-28 -46 -41.5 -94t-13.5 -99q0 -79 27 -144.5t79 -115.5zM262 633l189 -105v228l-271 102zM578 887q35 17 67 38.5t62 47.5l254 -279q-89 -69 -172.5 -137.5t-161.5 -136.5v-209l153 -72l127 88l29 -34
q-65 -45 -134.5 -98.5t-144.5 -117.5q-38 28 -84 52t-104 47q-10 20 -14 50.5t-4 82.5l-254 -232h-19q-76 75 -107.5 138t-31.5 139q0 94 49 189t141 180l-93 268q5 -1 13 -1.5t23 -0.5q61 0 110 21.5t80 62.5z" />
    <glyph glyph-name="ae" unicode="&#x436;" horiz-adv-x="969" 
d="M627 477l182 150l-182 196v-346zM451 270v219l-191 105q-28 -46 -41.5 -94t-13.5 -99q0 -79 27 -144.5t79 -115.5zM262 633l189 -105v228l-271 102zM578 887q35 17 67 38.5t62 47.5l254 -279q-89 -69 -172.5 -137.5t-161.5 -136.5v-209l153 -72l127 88l29 -34
q-65 -45 -134.5 -98.5t-144.5 -117.5q-38 28 -84 52t-104 47q-10 20 -14 50.5t-4 82.5l-254 -232h-19q-76 75 -107.5 138t-31.5 139q0 94 49 189t141 180l-93 268q5 -1 13 -1.5t23 -0.5q61 0 110 21.5t80 62.5z" />
    <glyph glyph-name="oslash" unicode="&#xf8;" horiz-adv-x="788" 
d="M508 721l-29 10l-121 -534q25 -11 59 -24t91 -34v582zM281 227l20 -8l118 535q-20 9 -67 28.5t-71 30.5v-586zM398 -24q-7 4 -17 12q-39 30 -62 43l-47 -191h-86l56 230q-49 26 -98 44.5t-101 28.5q32 25 44.5 60t12.5 104v498q85 22 153 63t125 104q13 -8 27.5 -18
t45.5 -30l43 166h86l-54 -209q58 -28 95.5 -41.5t64.5 -16.5v-688q-89 -27 -161 -67t-127 -92z" />
    <glyph glyph-name="oslash" unicode="&#x448;" horiz-adv-x="788" 
d="M508 721l-29 10l-121 -534q25 -11 59 -24t91 -34v582zM281 227l20 -8l118 535q-20 9 -67 28.5t-71 30.5v-586zM398 -24q-7 4 -17 12q-39 30 -62 43l-47 -191h-86l56 230q-49 26 -98 44.5t-101 28.5q32 25 44.5 60t12.5 104v498q85 22 153 63t125 104q13 -8 27.5 -18
t45.5 -30l43 166h86l-54 -209q58 -28 95.5 -41.5t64.5 -16.5v-688q-89 -27 -161 -67t-127 -92z" />
    <glyph glyph-name="questiondown" unicode="&#xbf;" horiz-adv-x="711" 
d="M373 1327q45 -38 83 -79.5t68 -86.5l-170 -160q-24 33 -59.5 72.5t-91.5 97.5zM379 930q0 -6 1 -18q3 -45 3 -62q0 -53 -7.5 -104.5t-21.5 -96.5q-8 -27 -24 -76q-64 -194 -64 -251q0 -79 38 -120.5t110 -41.5q23 0 62.5 12.5t121.5 46.5l-115 -233q-25 -4 -51 -6.5
t-51 -2.5q-139 0 -229.5 80t-90.5 201q0 44 16.5 92t47.5 96q21 33 60 90q62 90 79 128q30 64 45 129.5t17 136.5h53z" />
    <glyph glyph-name="exclamdown" unicode="&#xa1;" horiz-adv-x="473" 
d="M231 1327q48 -40 86.5 -81.5t67.5 -84.5l-170 -160q-25 33 -60 72.5t-92 97.5zM217 -23l-156 179q43 127 76.5 321.5t57.5 446.5h47q24 -260 57 -453.5t74 -314.5z" />
    <glyph glyph-name="logicalnot" unicode="&#xac;" horiz-adv-x="1706" 
d="M254 860h1198v-502h-137v363h-1061v139z" />
    <glyph glyph-name="radical" unicode="&#x221a;" horiz-adv-x="1305" 
d="M1116 1661h189v-96h-115l-594 -1606h-66l-319 883l-125 -45l-25 80l283 98l256 -709z" />
    <glyph glyph-name="florin" unicode="&#x192;" horiz-adv-x="668" 
d="M4 -231l37 151l186 -47v829h-121l23 111h98v289q60 33 109 70t88 79l194 -51l-40 -149l-175 43v-281h150l-25 -111h-125v-825q-42 -26 -91 -65.5t-107 -96.5z" />
    <glyph glyph-name="approxequal" unicode="&#x2248;" horiz-adv-x="1706" 
d="M1530 586v-156q-105 -73 -199.5 -107t-189.5 -34t-285 67.5t-293 67.5q-82 0 -171.5 -36t-213.5 -122v156q108 73 204 109t183 36q115 0 305 -68.5t273 -68.5q88 0 177 35.5t210 120.5zM1530 954v-155q-105 -73 -199.5 -107.5t-189.5 -34.5t-285 68t-293 68
q-83 0 -171.5 -36t-213.5 -122v156q106 72 202 107.5t185 35.5q116 0 305.5 -67.5t272.5 -67.5q87 0 175 34.5t212 120.5z" />
    <glyph glyph-name="Delta" unicode="&#x2206;" horiz-adv-x="1350" 
d="M602 1174l-389 -957h768zM666 1497h30l600 -1497h-1243z" />
    <glyph glyph-name="guillemotleft" unicode="&#xab;" horiz-adv-x="938" 
d="M842 745l-217 -272l219 -268l-129 -76q-57 85 -123 171t-141 173q113 133 172.5 210t93.5 134zM487 745l-217 -272l217 -268l-129 -76q-60 90 -125.5 176t-136.5 168q113 133 172.5 210t93.5 134z" />
    <glyph glyph-name="guillemotright" unicode="&#xbb;" horiz-adv-x="938" 
d="M453 201l217 272l-219 268l129 76q60 -90 125.5 -175.5t136.5 -168.5q-113 -133 -172.5 -210t-94.5 -134zM96 201l217 272l-217 268l129 76q61 -90 126.5 -175.5t135.5 -168.5q-113 -133 -172.5 -210t-93.5 -134z" />
    <glyph glyph-name="ellipsis" unicode="&#x2026;" horiz-adv-x="2048" 
d="M325 -23q-56 49 -92.5 89t-60.5 77l170 160q23 -31 58 -69.5t95 -98.5zM1007 -23q-56 49 -92.5 89t-60.5 77l170 160q23 -31 58 -69.5t95 -98.5zM1691 -23q-56 49 -92.5 89t-60.5 77l170 160q23 -31 58 -69.5t95 -98.5z" />
    <glyph glyph-name="nonbreakingspace" unicode="&#xa0;" horiz-adv-x="948" 
 />
    <glyph glyph-name="Agrave" unicode="&#xc0;" horiz-adv-x="1233" 
d="M674 133l166 133l-2 158h-502l-74 -105zM434 569h402l-9 443l-36 55h-11zM317 506l269 391q-12 21 -35.5 33t-52.5 12q-56 0 -93.5 -25t-64.5 -79v12q0 90 62.5 149.5t156.5 59.5q28 0 57.5 -5t67.5 -16l49 72q-56 26 -109 38.5t-104 12.5q-160 0 -269.5 -101
t-109.5 -249q0 -82 46.5 -162t129.5 -143zM543 -35l-289 160q-32 18 -48.5 23.5t-33.5 5.5q-23 0 -39 -17.5t-16 -42.5q0 -15 11 -39.5t11 -36.5q0 -21 -14.5 -35t-36.5 -14q-25 0 -39 16t-14 44q0 33 17 73t57 99l182 264q-114 99 -167.5 195.5t-53.5 199.5q0 72 24 139.5
t72 128.5q74 95 184 148t232 53q100 0 193 -33.5t196 -107.5q47 63 103 99t130 50l4 -8q-88 -76 -121.5 -139t-33.5 -152v-8l14 -688q2 -86 14.5 -127t40.5 -65l68 51l33 -39l-234 -199q-60 35 -98.5 95t-50.5 137zM768 1468q-111 60 -199.5 134t-157.5 163l146 53
q57 -85 129 -163t161 -150z" />
    <glyph glyph-name="Agrave" unicode="&#x410;" horiz-adv-x="1233" 
d="M674 133l166 133l-2 158h-502l-74 -105zM434 569h402l-9 443l-36 55h-11zM317 506l269 391q-12 21 -35.5 33t-52.5 12q-56 0 -93.5 -25t-64.5 -79v12q0 90 62.5 149.5t156.5 59.5q28 0 57.5 -5t67.5 -16l49 72q-56 26 -109 38.5t-104 12.5q-160 0 -269.5 -101
t-109.5 -249q0 -82 46.5 -162t129.5 -143zM543 -35l-289 160q-32 18 -48.5 23.5t-33.5 5.5q-23 0 -39 -17.5t-16 -42.5q0 -15 11 -39.5t11 -36.5q0 -21 -14.5 -35t-36.5 -14q-25 0 -39 16t-14 44q0 33 17 73t57 99l182 264q-114 99 -167.5 195.5t-53.5 199.5q0 72 24 139.5
t72 128.5q74 95 184 148t232 53q100 0 193 -33.5t196 -107.5q47 63 103 99t130 50l4 -8q-88 -76 -121.5 -139t-33.5 -152v-8l14 -688q2 -86 14.5 -127t40.5 -65l68 51l33 -39l-234 -199q-60 35 -98.5 95t-50.5 137zM768 1468q-111 60 -199.5 134t-157.5 163l146 53
q57 -85 129 -163t161 -150z" />
    <glyph glyph-name="Atilde" unicode="&#xc3;" horiz-adv-x="1233" 
d="M674 133l166 133l-2 158h-502l-74 -105zM434 569h402l-9 443l-36 55h-11zM317 506l269 391q-12 21 -35.5 33t-52.5 12q-56 0 -93.5 -25t-64.5 -79v12q0 90 62.5 149.5t156.5 59.5q28 0 57.5 -5t67.5 -16l49 72q-56 26 -109 38.5t-104 12.5q-160 0 -269.5 -101
t-109.5 -249q0 -82 46.5 -162t129.5 -143zM543 -35l-289 160q-32 18 -48.5 23.5t-33.5 5.5q-23 0 -39 -17.5t-16 -42.5q0 -15 11 -39.5t11 -36.5q0 -21 -14.5 -35t-36.5 -14q-25 0 -39 16t-14 44q0 33 17 73t57 99l182 264q-114 99 -167.5 195.5t-53.5 199.5q0 72 24 139.5
t72 128.5q74 95 184 148t232 53q100 0 193 -33.5t196 -107.5q47 63 103 99t130 50l4 -8q-88 -76 -121.5 -139t-33.5 -152v-8l14 -688q2 -86 14.5 -127t40.5 -65l68 51l33 -39l-234 -199q-60 35 -98.5 95t-50.5 137zM874 1683l29 56l41 -17l-47 -98q-20 -41 -47.5 -58.5
t-71.5 -17.5q-38 0 -140 29.5t-163 29.5q-14 0 -21 -0.5t-12 -1.5l-33 -61l-41 16l43 86q26 52 52 70t69 18q38 0 138.5 -28.5t160.5 -28.5q11 0 21.5 1.5t21.5 4.5z" />
    <glyph glyph-name="Atilde" unicode="&#x413;" horiz-adv-x="1233" 
d="M674 133l166 133l-2 158h-502l-74 -105zM434 569h402l-9 443l-36 55h-11zM317 506l269 391q-12 21 -35.5 33t-52.5 12q-56 0 -93.5 -25t-64.5 -79v12q0 90 62.5 149.5t156.5 59.5q28 0 57.5 -5t67.5 -16l49 72q-56 26 -109 38.5t-104 12.5q-160 0 -269.5 -101
t-109.5 -249q0 -82 46.5 -162t129.5 -143zM543 -35l-289 160q-32 18 -48.5 23.5t-33.5 5.5q-23 0 -39 -17.5t-16 -42.5q0 -15 11 -39.5t11 -36.5q0 -21 -14.5 -35t-36.5 -14q-25 0 -39 16t-14 44q0 33 17 73t57 99l182 264q-114 99 -167.5 195.5t-53.5 199.5q0 72 24 139.5
t72 128.5q74 95 184 148t232 53q100 0 193 -33.5t196 -107.5q47 63 103 99t130 50l4 -8q-88 -76 -121.5 -139t-33.5 -152v-8l14 -688q2 -86 14.5 -127t40.5 -65l68 51l33 -39l-234 -199q-60 35 -98.5 95t-50.5 137zM874 1683l29 56l41 -17l-47 -98q-20 -41 -47.5 -58.5
t-71.5 -17.5q-38 0 -140 29.5t-163 29.5q-14 0 -21 -0.5t-12 -1.5l-33 -61l-41 16l43 86q26 52 52 70t69 18q38 0 138.5 -28.5t160.5 -28.5q11 0 21.5 1.5t21.5 4.5z" />
    <glyph glyph-name="Otilde" unicode="&#xd5;" horiz-adv-x="1434" 
d="M342 328q29 36 42 78t13 102v522q-82 -72 -124 -167.5t-42 -213.5q0 -91 28.5 -173t82.5 -148zM375 287q70 -68 140.5 -102.5t141.5 -37.5v979h-77v-497q0 -84 -41 -155t-164 -187zM709 147q131 8 244 92.5t184 229.5q-40 59 -96 88t-128 29q-47 0 -98.5 -25.5
t-105.5 -75.5v-338zM709 549q58 41 109 59.5t104 18.5q70 0 126.5 -24.5t110.5 -78.5q15 34 23 70t8 74q0 54 -14 101t-41 87q-47 -45 -103.5 -67.5t-122.5 -22.5q-48 0 -97 16t-103 49v-282zM709 895q51 -45 101.5 -66.5t104.5 -21.5q63 0 112.5 23t84.5 69
q-53 92 -152.5 148t-250.5 77v-229zM117 905q135 82 295.5 189t343.5 237q283 -32 458 -191t175 -378q0 -116 -56.5 -232t-171.5 -235q-153 -158 -309.5 -243t-292.5 -85q-116 0 -210 44t-167 132q-69 87 -104 188t-35 214q0 81 18.5 170.5t55.5 189.5zM889 1683l29 56
l41 -17l-47 -98q-20 -41 -47.5 -58.5t-71.5 -17.5q-38 0 -140 29.5t-163 29.5q-14 0 -21 -0.5t-12 -1.5l-33 -61l-41 16l43 86q26 52 52 70t69 18q38 0 138.5 -28.5t160.5 -28.5q11 0 21.5 1.5t21.5 4.5z" />
    <glyph glyph-name="Otilde" unicode="&#x425;" horiz-adv-x="1434" 
d="M342 328q29 36 42 78t13 102v522q-82 -72 -124 -167.5t-42 -213.5q0 -91 28.5 -173t82.5 -148zM375 287q70 -68 140.5 -102.5t141.5 -37.5v979h-77v-497q0 -84 -41 -155t-164 -187zM709 147q131 8 244 92.5t184 229.5q-40 59 -96 88t-128 29q-47 0 -98.5 -25.5
t-105.5 -75.5v-338zM709 549q58 41 109 59.5t104 18.5q70 0 126.5 -24.5t110.5 -78.5q15 34 23 70t8 74q0 54 -14 101t-41 87q-47 -45 -103.5 -67.5t-122.5 -22.5q-48 0 -97 16t-103 49v-282zM709 895q51 -45 101.5 -66.5t104.5 -21.5q63 0 112.5 23t84.5 69
q-53 92 -152.5 148t-250.5 77v-229zM117 905q135 82 295.5 189t343.5 237q283 -32 458 -191t175 -378q0 -116 -56.5 -232t-171.5 -235q-153 -158 -309.5 -243t-292.5 -85q-116 0 -210 44t-167 132q-69 87 -104 188t-35 214q0 81 18.5 170.5t55.5 189.5zM889 1683l29 56
l41 -17l-47 -98q-20 -41 -47.5 -58.5t-71.5 -17.5q-38 0 -140 29.5t-163 29.5q-14 0 -21 -0.5t-12 -1.5l-33 -61l-41 16l43 86q26 52 52 70t69 18q38 0 138.5 -28.5t160.5 -28.5q11 0 21.5 1.5t21.5 4.5z" />
    <glyph glyph-name="OE" unicode="&#x152;" horiz-adv-x="2058" 
d="M1630 758l195 260l-195 88v-348zM1581 152v999l-86 -80v-387q0 -109 -47.5 -199t-147.5 -168q37 -60 109.5 -103t171.5 -62zM621 147q105 13 197 98t149 224q-34 58 -81.5 87.5t-107.5 29.5q-38 0 -79.5 -22.5t-77.5 -63.5v-353zM621 559q44 35 84 51.5t81 16.5
q59 0 107.5 -24.5t93.5 -78.5q12 41 18.5 78t6.5 68q0 49 -11.5 96t-33.5 90q-39 -44 -87 -67t-104 -23q-43 0 -82 14.5t-73 44.5v-266zM621 885q33 -38 74 -58t85 -20q53 0 95 23.5t71 68.5q-44 90 -124.5 145t-200.5 76v-235zM313 281q54 -66 116 -100t130 -34h12v977
l-88 -2v-495q0 -84 -43.5 -173.5t-126.5 -172.5zM330 1014q-64 -87 -95.5 -180.5t-31.5 -194.5q0 -90 20.5 -172t59.5 -148q24 32 35.5 78t11.5 111v506zM106 905q137 100 272 206t267 218q157 -15 277.5 -97t205.5 -231q49 74 119 129.5t162 94.5l6 -17q-125 -97 -178 -204
t-53 -261q0 -125 23.5 -224.5t68.5 -166.5q21 16 30 38.5t9 76.5v31v487l350 344q66 -53 148.5 -79.5t183.5 -26.5q20 0 31 0.5t20 1.5l-242 -305h187q-23 -48 -55.5 -119t-43.5 -92h-264v-562h12q100 0 194 45t198 142l12 -15q-81 -177 -202.5 -263.5t-291.5 -86.5
q-180 0 -314 107t-198 301q-123 -200 -272 -305t-307 -105q-59 0 -115.5 18t-99.5 50q-99 72 -154 188t-55 252q0 101 17 207t52 223z" />
    <glyph glyph-name="oe" unicode="&#x153;" horiz-adv-x="1014" 
d="M672 483l164 135l-164 185v-320zM289 236q59 -26 111 -47t100 -39v563q-48 17 -100 40t-111 52v-569zM594 862q40 23 79 50.5t79 60.5l254 -279q-89 -69 -172.5 -137.5t-161.5 -136.5v-209l153 -72l127 88l29 -34q-65 -45 -134.5 -98.5t-144.5 -117.5q-40 25 -78.5 47
t-76.5 42h-35q-29 -19 -58 -41.5t-57 -49.5q-77 61 -167 104t-187 64q32 25 44.5 60t12.5 104v498q85 22 153 63t126 105q47 -32 91.5 -59.5t88.5 -51.5h35z" />
    <glyph glyph-name="endash" unicode="&#x2013;" 
d="M0 422v125h1024v-125h-1024z" />
    <glyph glyph-name="emdash" unicode="&#x2014;" horiz-adv-x="2048" 
d="M2048 547v-125h-2048v125h2048z" />
    <glyph glyph-name="quotedblleft" unicode="&#x201c;" horiz-adv-x="848" 
d="M403 1284q-47 -41 -68.5 -72.5t-21.5 -60.5q0 -25 20.5 -56.5t67.5 -76.5l-151 -148q-25 30 -58.5 63t-87.5 79q28 92 93.5 171.5t167.5 143.5zM778 1284q-47 -41 -68.5 -72.5t-21.5 -60.5q0 -25 20.5 -56.5t67.5 -76.5l-151 -148q-25 30 -59 63t-87 79q28 92 93.5 171.5
t166.5 143.5z" />
    <glyph glyph-name="quotedblright" unicode="&#x201d;" horiz-adv-x="848" 
d="M446 915q48 41 68.5 71.5t20.5 60.5q0 26 -21.5 58t-67.5 77l154 145q30 -37 66 -72t77 -69q-29 -93 -94 -171t-166 -143zM70 915q48 42 69 72.5t21 59.5q0 26 -21 58t-67 77l151 145q28 -34 64.5 -69t81.5 -72q-30 -93 -95 -171t-165 -143z" />
    <glyph glyph-name="quoteleft" unicode="&#x2018;" horiz-adv-x="473" 
d="M215 872q-28 33 -63 66.5t-82 73.5q27 92 92 170.5t168 144.5l37 -43q-46 -42 -66 -73t-20 -58t20 -58t68 -77z" />
    <glyph glyph-name="quoteright" unicode="&#x2019;" horiz-adv-x="473" 
d="M70 915q48 42 69 72.5t21 59.5q0 26 -21 58t-67 77l151 145q28 -34 64.5 -69t81.5 -72q-30 -93 -95 -171t-165 -143z" />
    <glyph glyph-name="divide" unicode="&#xf7;" horiz-adv-x="1706" 
d="M854 367q51 0 88 -37t37 -88q0 -52 -36.5 -88.5t-88.5 -36.5q-53 0 -89 36t-36 89q0 51 37 88t88 37zM254 680h1198v-139h-1198v139zM854 1106q51 0 88 -37.5t37 -89.5q0 -51 -36.5 -88t-88.5 -37t-88.5 36.5t-36.5 88.5t37 89.5t88 37.5z" />
    <glyph glyph-name="divide" unicode="&#x447;" horiz-adv-x="1706" 
d="M854 367q51 0 88 -37t37 -88q0 -52 -36.5 -88.5t-88.5 -36.5q-53 0 -89 36t-36 89q0 51 37 88t88 37zM254 680h1198v-139h-1198v139zM854 1106q51 0 88 -37.5t37 -89.5q0 -51 -36.5 -88t-88.5 -37t-88.5 36.5t-36.5 88.5t37 89.5t88 37.5z" />
    <glyph glyph-name="lozenge" unicode="&#x25ca;" horiz-adv-x="1012" 
d="M506 1409l-385 -817l385 -825l385 825zM506 1653l500 -1061l-500 -1069l-500 1069z" />
    <glyph glyph-name="ydieresis" unicode="&#xff;" horiz-adv-x="801" 
d="M360 741l256 226q62 -67 93.5 -151t31.5 -183q0 -132 -72 -239t-253 -232q-24 -17 -126 -77t-159 -112q-27 -25 -41 -52t-14 -54q0 -47 39.5 -75t107.5 -28q62 0 116.5 43t70.5 43t26 -9.5t10 -26.5q0 -41 -63.5 -71t-157.5 -30q-98 0 -152.5 38.5t-54.5 107.5
q0 30 14 63t54 92q57 85 72.5 112.5t15.5 39.5v547q0 30 -9 51t-30 39l-59 -51l-31 34l191 187q63 -34 93.5 -89t30.5 -134v-9zM360 182q101 76 152 172t51 207q0 77 -20 134t-60 96l-123 -107v-502zM563 1124q-36 33 -66 65t-55 64l131 127q35 -44 64 -75.5t57 -57.5z
M219 1124q-36 33 -66 65t-55 64l131 127q35 -44 64 -75.5t57 -57.5z" />
    <glyph glyph-name="ydieresis" unicode="&#x44f;" horiz-adv-x="801" 
d="M360 741l256 226q62 -67 93.5 -151t31.5 -183q0 -132 -72 -239t-253 -232q-24 -17 -126 -77t-159 -112q-27 -25 -41 -52t-14 -54q0 -47 39.5 -75t107.5 -28q62 0 116.5 43t70.5 43t26 -9.5t10 -26.5q0 -41 -63.5 -71t-157.5 -30q-98 0 -152.5 38.5t-54.5 107.5
q0 30 14 63t54 92q57 85 72.5 112.5t15.5 39.5v547q0 30 -9 51t-30 39l-59 -51l-31 34l191 187q63 -34 93.5 -89t30.5 -134v-9zM360 182q101 76 152 172t51 207q0 77 -20 134t-60 96l-123 -107v-502zM563 1124q-36 33 -66 65t-55 64l131 127q35 -44 64 -75.5t57 -57.5z
M219 1124q-36 33 -66 65t-55 64l131 127q35 -44 64 -75.5t57 -57.5z" />
    <glyph glyph-name="Ydieresis" unicode="&#x178;" horiz-adv-x="1380" 
d="M539 250h90v870l-90 -41v-829zM676 250h67q100 0 174 75t101 205q-41 35 -84 52.5t-88 17.5q-51 0 -91.5 -14.5t-78.5 -46.5v-289zM1028 578q8 53 11 87t3 62q0 24 -2 54.5t-8 76.5q-47 -36 -93 -54t-93 -18q-43 0 -85 13.5t-85 40.5v-250q40 28 81.5 40.5t92.5 12.5
q42 0 86.5 -16.5t91.5 -48.5zM1024 903q-21 130 -81 199t-150 69q-29 0 -58 -7t-59 -21v-248q40 -33 81.5 -49.5t84.5 -16.5q46 0 90.5 18t91.5 56zM330 252v80q0 92 -56.5 166.5t-164.5 126.5v14q12 2 25.5 3t37.5 1q38 0 77 -10.5t81 -32.5q0 5 1 16.5t1 16.5
q0 95 -53.5 161.5t-163.5 108.5v15q22 6 45 9t45 3q27 0 58.5 -7t65.5 -20l1 172q0 98 -44.5 143.5t-140.5 45.5h-26v16q41 23 81.5 34t84.5 11q96 0 164.5 -52t93.5 -145q113 78 202 115t162 37q170 0 269.5 -126.5t99.5 -344.5q0 -295 -142 -449.5t-411 -154.5h-348
q-146 0 -222.5 -52.5t-76.5 -152.5q0 -76 51.5 -124t134.5 -48q27 0 52 4t44 12q24 10 70 30q238 101 344 101q98 0 158.5 -48.5t60.5 -125.5q0 -38 -23.5 -63t-60.5 -25q-35 0 -57.5 22.5t-22.5 57.5q0 22 16.5 51.5t16.5 34.5q0 17 -8.5 25t-26.5 8q-24 0 -151 -67
q-43 -23 -67 -35q-11 -6 -30 -16q-155 -83 -260 -83q-124 0 -207 79.5t-83 199.5q0 118 80 187.5t223 74.5zM907 1517q-36 33 -66 65t-55 64l131 127q35 -44 64 -75.5t57 -57.5zM563 1517q-36 33 -66 65t-55 64l131 127q35 -44 64 -75.5t57 -57.5z" />
    <glyph glyph-name="fraction" unicode="&#x2215;" horiz-adv-x="342" 
d="M-342 -18l926 1269h98l-932 -1269h-92z" />
    <glyph glyph-name="currency" unicode="&#xa4;" horiz-adv-x="1241" 
d="M623 1190q-126 0 -215 -89t-89 -214q0 -126 89 -215.5t215 -89.5q125 0 214 89.5t89 215.5q0 125 -89 214t-214 89zM162 1423l205 -204q57 43 120 64.5t134 21.5t134.5 -21.5t121.5 -64.5l204 204l82 -80l-205 -206q41 -55 61.5 -118t20.5 -134q0 -73 -20 -135.5
t-62 -116.5l205 -205l-82 -82l-204 205q-59 -44 -122 -65t-132 -21q-72 0 -135.5 21.5t-120.5 64.5l-205 -205l-82 82l207 205q-41 51 -62.5 116t-21.5 136q0 70 21 133t63 119l-207 206z" />
    <glyph glyph-name="guilsinglleft" unicode="&#x2039;" horiz-adv-x="592" 
d="M487 745l-217 -272l217 -268l-129 -76q-60 90 -125.5 176t-136.5 168q113 133 172.5 210t93.5 134z" />
    <glyph glyph-name="guilsinglright" unicode="&#x203a;" horiz-adv-x="592" 
d="M98 203l217 272l-219 266l129 76q54 -80 119.5 -165t144.5 -177q-113 -133 -172 -210t-94 -134z" />
    <glyph glyph-name="fi" unicode="&#xf001;" horiz-adv-x="977" 
d="M766 1047l45 227h125l-154 -227h-16zM848 200q5 -20 16.5 -34.5t29.5 -23.5l38 26l29 -31l-185 -162q-68 35 -96.5 90.5t-28.5 165.5v537l-59 70l153 135l154 -146l-51 -59v-568zM92 143q31 24 44.5 59t13.5 95v528h-103l16 109h87v215q57 30 109 67.5t101 83.5l193 -47
l-41 -153l-166 41v-207h148l-19 -109h-129v-589l133 -93l70 64l26 -33q-56 -54 -106 -103.5t-92 -93.5q-52 53 -122.5 94t-162.5 72z" />
    <glyph glyph-name="fl" unicode="&#xf002;" horiz-adv-x="1085" 
d="M756 1194q46 50 93 75.5t101 28.5l4 -8q-44 -32 -67 -78.5t-23 -103.5v-872l131 -93l49 43l29 -32q-39 -36 -81.5 -78.5t-96.5 -98.5q-48 50 -118 90.5t-169 75.5q31 24 44.5 59t13.5 95v823q0 29 -18 63.5t-52 69.5l6 9q36 -9 68.5 -25.5t64.5 -42.5h21zM92 143
q31 24 44.5 59t13.5 95v528h-103l16 109h87v215q57 30 109 67.5t101 83.5l193 -47l-41 -153l-166 41v-207h148l-19 -109h-129v-589l133 -93l70 64l26 -33q-56 -54 -106 -103.5t-92 -93.5q-52 53 -122.5 94t-162.5 72z" />
    <glyph glyph-name="daggerdbl" unicode="&#x2021;" 
d="M414 -285v439h-258l-21 -64h-39l78 221h240v426h-258l-21 -65h-39l78 221h240v338q37 21 67.5 44.5t57.5 51.5h36v-434h254l27 74h39l-78 -230h-242v-426h254l27 74h39l-78 -231h-242v-345q-59 -11 -98.5 -34t-62.5 -60z" />
    <glyph glyph-name="periodcentered" unicode="&#xb7;" horiz-adv-x="473" 
d="M100 635q0 54 41.5 95.5t96.5 41.5q56 0 95.5 -40t39.5 -97q0 -55 -40.5 -95t-94.5 -40q-53 0 -95.5 41.5t-42.5 93.5z" />
    <glyph glyph-name="quotesinglbase" unicode="&#x201a;" horiz-adv-x="473" 
d="M70 -109q47 41 68.5 73t21.5 61q0 25 -20.5 56t-67.5 77l151 145q26 -32 61.5 -65.5t84.5 -73.5q-28 -92 -93.5 -171.5t-166.5 -144.5z" />
    <glyph glyph-name="quotedblbase" unicode="&#x201e;" horiz-adv-x="848" 
d="M446 -109q47 40 68 72t21 62q0 25 -20.5 56t-68.5 77l154 145q28 -34 63.5 -68t79.5 -71q-27 -92 -92.5 -171.5t-167.5 -144.5zM70 -109q47 41 68.5 73t21.5 61q0 25 -20.5 56t-67.5 77l151 145q26 -32 61.5 -65.5t84.5 -73.5q-28 -92 -93.5 -171.5t-166.5 -144.5z" />
    <glyph glyph-name="perthousand" unicode="&#x2030;" horiz-adv-x="2138" 
d="M365 489q-146 43 -226 137t-80 222q0 119 72.5 221.5t212.5 181.5q151 -62 222 -149.5t71 -210.5q0 -112 -63.5 -206t-208.5 -196zM442 627q41 37 60.5 91t19.5 126q0 102 -71 178.5t-191 103.5q-41 -43 -61.5 -91t-20.5 -103q0 -114 73.5 -199t190.5 -106zM305 -18
l731 1269h111l-731 -1269h-111zM1126 -18q-145 42 -225 136t-80 222q0 120 72 222.5t211 180.5q151 -62 223 -149.5t72 -210.5q0 -112 -63.5 -206t-209.5 -195zM1202 119q40 37 60 91t20 126q0 102 -70 179t-190 103q-41 -42 -61.5 -90.5t-20.5 -103.5q0 -115 72.5 -199.5
t189.5 -105.5zM1806 -18q-145 42 -225 136t-80 222q0 120 72 222.5t211 180.5q151 -62 223 -149.5t72 -210.5q0 -112 -63.5 -206t-209.5 -195zM1882 119q40 37 60 91t20 126q0 102 -70 179t-190 103q-42 -43 -63 -91.5t-21 -102.5q0 -114 73 -199t191 -106z" />
    <glyph glyph-name="Acircumflex" unicode="&#xc2;" horiz-adv-x="1233" 
d="M674 133l166 133l-2 158h-502l-74 -105zM434 569h402l-9 443l-36 55h-11zM317 506l269 391q-12 21 -35.5 33t-52.5 12q-56 0 -93.5 -25t-64.5 -79v12q0 90 62.5 149.5t156.5 59.5q28 0 57.5 -5t67.5 -16l49 72q-56 26 -109 38.5t-104 12.5q-160 0 -269.5 -101
t-109.5 -249q0 -82 46.5 -162t129.5 -143zM543 -35l-289 160q-32 18 -48.5 23.5t-33.5 5.5q-23 0 -39 -17.5t-16 -42.5q0 -15 11 -39.5t11 -36.5q0 -21 -14.5 -35t-36.5 -14q-25 0 -39 16t-14 44q0 33 17 73t57 99l182 264q-114 99 -167.5 195.5t-53.5 199.5q0 72 24 139.5
t72 128.5q74 95 184 148t232 53q100 0 193 -33.5t196 -107.5q47 63 103 99t130 50l4 -8q-88 -76 -121.5 -139t-33.5 -152v-8l14 -688q2 -86 14.5 -127t40.5 -65l68 51l33 -39l-234 -199q-60 35 -98.5 95t-50.5 137zM657 1673q-48 -61 -107.5 -112t-132.5 -93l-30 31
q60 72 115 151t104 164h102q49 -85 104 -164t115 -151l-32 -31q-69 38 -128 89t-110 116z" />
    <glyph glyph-name="Acircumflex" unicode="&#x412;" horiz-adv-x="1233" 
d="M674 133l166 133l-2 158h-502l-74 -105zM434 569h402l-9 443l-36 55h-11zM317 506l269 391q-12 21 -35.5 33t-52.5 12q-56 0 -93.5 -25t-64.5 -79v12q0 90 62.5 149.5t156.5 59.5q28 0 57.5 -5t67.5 -16l49 72q-56 26 -109 38.5t-104 12.5q-160 0 -269.5 -101
t-109.5 -249q0 -82 46.5 -162t129.5 -143zM543 -35l-289 160q-32 18 -48.5 23.5t-33.5 5.5q-23 0 -39 -17.5t-16 -42.5q0 -15 11 -39.5t11 -36.5q0 -21 -14.5 -35t-36.5 -14q-25 0 -39 16t-14 44q0 33 17 73t57 99l182 264q-114 99 -167.5 195.5t-53.5 199.5q0 72 24 139.5
t72 128.5q74 95 184 148t232 53q100 0 193 -33.5t196 -107.5q47 63 103 99t130 50l4 -8q-88 -76 -121.5 -139t-33.5 -152v-8l14 -688q2 -86 14.5 -127t40.5 -65l68 51l33 -39l-234 -199q-60 35 -98.5 95t-50.5 137zM657 1673q-48 -61 -107.5 -112t-132.5 -93l-30 31
q60 72 115 151t104 164h102q49 -85 104 -164t115 -151l-32 -31q-69 38 -128 89t-110 116z" />
    <glyph glyph-name="Ecircumflex" unicode="&#xca;" horiz-adv-x="1208" 
d="M700 764l232 254l-232 92v-346zM653 170v979l-86 -70v-381q0 -108 -45 -190.5t-157 -175.5q56 -63 128.5 -103.5t159.5 -58.5zM332 365q13 18 18.5 45t5.5 77v23v481l394 336q78 -52 172.5 -78t205.5 -26q25 0 37 0.5t22 0.5l-278 -304h215q-17 -38 -51.5 -108.5
t-50.5 -104.5h-322v-545q20 -3 40.5 -4.5t41.5 -1.5q106 0 202.5 44t201.5 140l14 -8q-92 -189 -227 -277t-332 -88q-262 0 -431 171t-169 437q0 218 112.5 387t303.5 238l4 -8q-125 -95 -186.5 -211t-61.5 -256q0 -104 30.5 -196.5t88.5 -163.5zM664 1673
q-48 -61 -107.5 -112t-132.5 -93l-30 31q60 72 115 151t104 164h102q49 -85 104 -164t115 -151l-32 -31q-69 38 -128 89t-110 116z" />
    <glyph glyph-name="Ecircumflex" unicode="&#x41a;" horiz-adv-x="1208" 
d="M700 764l232 254l-232 92v-346zM653 170v979l-86 -70v-381q0 -108 -45 -190.5t-157 -175.5q56 -63 128.5 -103.5t159.5 -58.5zM332 365q13 18 18.5 45t5.5 77v23v481l394 336q78 -52 172.5 -78t205.5 -26q25 0 37 0.5t22 0.5l-278 -304h215q-17 -38 -51.5 -108.5
t-50.5 -104.5h-322v-545q20 -3 40.5 -4.5t41.5 -1.5q106 0 202.5 44t201.5 140l14 -8q-92 -189 -227 -277t-332 -88q-262 0 -431 171t-169 437q0 218 112.5 387t303.5 238l4 -8q-125 -95 -186.5 -211t-61.5 -256q0 -104 30.5 -196.5t88.5 -163.5zM664 1673
q-48 -61 -107.5 -112t-132.5 -93l-30 31q60 72 115 151t104 164h102q49 -85 104 -164t115 -151l-32 -31q-69 38 -128 89t-110 116z" />
    <glyph glyph-name="Aacute" unicode="&#xc1;" horiz-adv-x="1233" 
d="M674 133l166 133l-2 158h-502l-74 -105zM434 569h402l-9 443l-36 55h-11zM317 506l269 391q-12 21 -35.5 33t-52.5 12q-56 0 -93.5 -25t-64.5 -79v12q0 90 62.5 149.5t156.5 59.5q28 0 57.5 -5t67.5 -16l49 72q-56 26 -109 38.5t-104 12.5q-160 0 -269.5 -101
t-109.5 -249q0 -82 46.5 -162t129.5 -143zM543 -35l-289 160q-32 18 -48.5 23.5t-33.5 5.5q-23 0 -39 -17.5t-16 -42.5q0 -15 11 -39.5t11 -36.5q0 -21 -14.5 -35t-36.5 -14q-25 0 -39 16t-14 44q0 33 17 73t57 99l182 264q-114 99 -167.5 195.5t-53.5 199.5q0 72 24 139.5
t72 128.5q74 95 184 148t232 53q100 0 193 -33.5t196 -107.5q47 63 103 99t130 50l4 -8q-88 -76 -121.5 -139t-33.5 -152v-8l14 -688q2 -86 14.5 -127t40.5 -65l68 51l33 -39l-234 -199q-60 35 -98.5 95t-50.5 137zM585 1468l-82 37q90 72 162 150t129 163l148 -53
q-67 -87 -156 -161t-201 -136z" />
    <glyph glyph-name="Aacute" unicode="&#x411;" horiz-adv-x="1233" 
d="M674 133l166 133l-2 158h-502l-74 -105zM434 569h402l-9 443l-36 55h-11zM317 506l269 391q-12 21 -35.5 33t-52.5 12q-56 0 -93.5 -25t-64.5 -79v12q0 90 62.5 149.5t156.5 59.5q28 0 57.5 -5t67.5 -16l49 72q-56 26 -109 38.5t-104 12.5q-160 0 -269.5 -101
t-109.5 -249q0 -82 46.5 -162t129.5 -143zM543 -35l-289 160q-32 18 -48.5 23.5t-33.5 5.5q-23 0 -39 -17.5t-16 -42.5q0 -15 11 -39.5t11 -36.5q0 -21 -14.5 -35t-36.5 -14q-25 0 -39 16t-14 44q0 33 17 73t57 99l182 264q-114 99 -167.5 195.5t-53.5 199.5q0 72 24 139.5
t72 128.5q74 95 184 148t232 53q100 0 193 -33.5t196 -107.5q47 63 103 99t130 50l4 -8q-88 -76 -121.5 -139t-33.5 -152v-8l14 -688q2 -86 14.5 -127t40.5 -65l68 51l33 -39l-234 -199q-60 35 -98.5 95t-50.5 137zM585 1468l-82 37q90 72 162 150t129 163l148 -53
q-67 -87 -156 -161t-201 -136z" />
    <glyph glyph-name="Edieresis" unicode="&#xcb;" horiz-adv-x="1208" 
d="M700 764l232 254l-232 92v-346zM653 170v979l-86 -70v-381q0 -108 -45 -190.5t-157 -175.5q56 -63 128.5 -103.5t159.5 -58.5zM332 365q13 18 18.5 45t5.5 77v23v481l394 336q78 -52 172.5 -78t205.5 -26q25 0 37 0.5t22 0.5l-278 -304h215q-17 -38 -51.5 -108.5
t-50.5 -104.5h-322v-545q20 -3 40.5 -4.5t41.5 -1.5q106 0 202.5 44t201.5 140l14 -8q-92 -189 -227 -277t-332 -88q-262 0 -431 171t-169 437q0 218 112.5 387t303.5 238l4 -8q-125 -95 -186.5 -211t-61.5 -256q0 -104 30.5 -196.5t88.5 -163.5zM826 1517q-36 33 -66 65
t-55 64l131 127q35 -44 64 -75.5t57 -57.5zM482 1517q-36 33 -66 65t-55 64l131 127q35 -44 64 -75.5t57 -57.5z" />
    <glyph glyph-name="Edieresis" unicode="&#x41b;" horiz-adv-x="1208" 
d="M700 764l232 254l-232 92v-346zM653 170v979l-86 -70v-381q0 -108 -45 -190.5t-157 -175.5q56 -63 128.5 -103.5t159.5 -58.5zM332 365q13 18 18.5 45t5.5 77v23v481l394 336q78 -52 172.5 -78t205.5 -26q25 0 37 0.5t22 0.5l-278 -304h215q-17 -38 -51.5 -108.5
t-50.5 -104.5h-322v-545q20 -3 40.5 -4.5t41.5 -1.5q106 0 202.5 44t201.5 140l14 -8q-92 -189 -227 -277t-332 -88q-262 0 -431 171t-169 437q0 218 112.5 387t303.5 238l4 -8q-125 -95 -186.5 -211t-61.5 -256q0 -104 30.5 -196.5t88.5 -163.5zM826 1517q-36 33 -66 65
t-55 64l131 127q35 -44 64 -75.5t57 -57.5zM482 1517q-36 33 -66 65t-55 64l131 127q35 -44 64 -75.5t57 -57.5z" />
    <glyph glyph-name="Egrave" unicode="&#xc8;" horiz-adv-x="1208" 
d="M700 764l232 254l-232 92v-346zM653 170v979l-86 -70v-381q0 -108 -45 -190.5t-157 -175.5q56 -63 128.5 -103.5t159.5 -58.5zM332 365q13 18 18.5 45t5.5 77v23v481l394 336q78 -52 172.5 -78t205.5 -26q25 0 37 0.5t22 0.5l-278 -304h215q-17 -38 -51.5 -108.5
t-50.5 -104.5h-322v-545q20 -3 40.5 -4.5t41.5 -1.5q106 0 202.5 44t201.5 140l14 -8q-92 -189 -227 -277t-332 -88q-262 0 -431 171t-169 437q0 218 112.5 387t303.5 238l4 -8q-125 -95 -186.5 -211t-61.5 -256q0 -104 30.5 -196.5t88.5 -163.5zM775 1468
q-111 60 -199.5 134t-157.5 163l146 53q57 -85 129 -163t161 -150z" />
    <glyph glyph-name="Egrave" unicode="&#x418;" horiz-adv-x="1208" 
d="M700 764l232 254l-232 92v-346zM653 170v979l-86 -70v-381q0 -108 -45 -190.5t-157 -175.5q56 -63 128.5 -103.5t159.5 -58.5zM332 365q13 18 18.5 45t5.5 77v23v481l394 336q78 -52 172.5 -78t205.5 -26q25 0 37 0.5t22 0.5l-278 -304h215q-17 -38 -51.5 -108.5
t-50.5 -104.5h-322v-545q20 -3 40.5 -4.5t41.5 -1.5q106 0 202.5 44t201.5 140l14 -8q-92 -189 -227 -277t-332 -88q-262 0 -431 171t-169 437q0 218 112.5 387t303.5 238l4 -8q-125 -95 -186.5 -211t-61.5 -256q0 -104 30.5 -196.5t88.5 -163.5zM775 1468
q-111 60 -199.5 134t-157.5 163l146 53q57 -85 129 -163t161 -150z" />
    <glyph glyph-name="Iacute" unicode="&#xcd;" horiz-adv-x="977" 
d="M53 629q17 83 83.5 130.5t166.5 47.5h6q8 132 51.5 231.5t128.5 184.5q-50 -25 -89 -36t-72 -11q-37 0 -98 12t-85 12q-37 0 -65 -21.5t-53 -70.5l-17 2q23 102 89 160.5t159 58.5q32 0 107.5 -12t117.5 -12q34 0 75 7t93 21l8 -14q-85 -63 -125 -156t-40 -229
q0 -109 23.5 -281.5t23.5 -236.5q0 -115 -51 -166t-166 -54q60 -66 120.5 -102.5t108.5 -36.5q61 0 89 36.5t28 115.5q0 114 -36 355.5t-36 367.5q0 195 76 292.5t231 102.5v-18q-73 -20 -100 -54t-27 -110q0 -127 38 -367.5t38 -355.5q0 -206 -94 -330.5t-248 -124.5
q-74 0 -201 47q-12 4 -19 7q-9 3 -30 11q-108 40 -156 40q-50 0 -86.5 -26t-66.5 -83l-12 4v4q0 113 69 190t166 77q16 0 38.5 -2.5t29.5 -2.5q74 0 102.5 35.5t28.5 132.5q0 141 -41 202t-135 61q-30 0 -66 -9t-80 -26zM471 1468l-82 37q90 72 162 150t129 163l148 -53
q-67 -87 -156 -161t-201 -136z" />
    <glyph glyph-name="Iacute" unicode="&#x41d;" horiz-adv-x="977" 
d="M53 629q17 83 83.5 130.5t166.5 47.5h6q8 132 51.5 231.5t128.5 184.5q-50 -25 -89 -36t-72 -11q-37 0 -98 12t-85 12q-37 0 -65 -21.5t-53 -70.5l-17 2q23 102 89 160.5t159 58.5q32 0 107.5 -12t117.5 -12q34 0 75 7t93 21l8 -14q-85 -63 -125 -156t-40 -229
q0 -109 23.5 -281.5t23.5 -236.5q0 -115 -51 -166t-166 -54q60 -66 120.5 -102.5t108.5 -36.5q61 0 89 36.5t28 115.5q0 114 -36 355.5t-36 367.5q0 195 76 292.5t231 102.5v-18q-73 -20 -100 -54t-27 -110q0 -127 38 -367.5t38 -355.5q0 -206 -94 -330.5t-248 -124.5
q-74 0 -201 47q-12 4 -19 7q-9 3 -30 11q-108 40 -156 40q-50 0 -86.5 -26t-66.5 -83l-12 4v4q0 113 69 190t166 77q16 0 38.5 -2.5t29.5 -2.5q74 0 102.5 35.5t28.5 132.5q0 141 -41 202t-135 61q-30 0 -66 -9t-80 -26zM471 1468l-82 37q90 72 162 150t129 163l148 -53
q-67 -87 -156 -161t-201 -136z" />
    <glyph glyph-name="Icircumflex" unicode="&#xce;" horiz-adv-x="977" 
d="M53 629q17 83 83.5 130.5t166.5 47.5h6q8 132 51.5 231.5t128.5 184.5q-50 -25 -89 -36t-72 -11q-37 0 -98 12t-85 12q-37 0 -65 -21.5t-53 -70.5l-17 2q23 102 89 160.5t159 58.5q32 0 107.5 -12t117.5 -12q34 0 75 7t93 21l8 -14q-85 -63 -125 -156t-40 -229
q0 -109 23.5 -281.5t23.5 -236.5q0 -115 -51 -166t-166 -54q60 -66 120.5 -102.5t108.5 -36.5q61 0 89 36.5t28 115.5q0 114 -36 355.5t-36 367.5q0 195 76 292.5t231 102.5v-18q-73 -20 -100 -54t-27 -110q0 -127 38 -367.5t38 -355.5q0 -206 -94 -330.5t-248 -124.5
q-74 0 -201 47q-12 4 -19 7q-9 3 -30 11q-108 40 -156 40q-50 0 -86.5 -26t-66.5 -83l-12 4v4q0 113 69 190t166 77q16 0 38.5 -2.5t29.5 -2.5q74 0 102.5 35.5t28.5 132.5q0 141 -41 202t-135 61q-30 0 -66 -9t-80 -26zM543 1673q-48 -61 -107.5 -112t-132.5 -93l-30 31
q60 72 115 151t104 164h102q49 -85 104 -164t115 -151l-32 -31q-69 38 -128 89t-110 116z" />
    <glyph glyph-name="Icircumflex" unicode="&#x41e;" horiz-adv-x="977" 
d="M53 629q17 83 83.5 130.5t166.5 47.5h6q8 132 51.5 231.5t128.5 184.5q-50 -25 -89 -36t-72 -11q-37 0 -98 12t-85 12q-37 0 -65 -21.5t-53 -70.5l-17 2q23 102 89 160.5t159 58.5q32 0 107.5 -12t117.5 -12q34 0 75 7t93 21l8 -14q-85 -63 -125 -156t-40 -229
q0 -109 23.5 -281.5t23.5 -236.5q0 -115 -51 -166t-166 -54q60 -66 120.5 -102.5t108.5 -36.5q61 0 89 36.5t28 115.5q0 114 -36 355.5t-36 367.5q0 195 76 292.5t231 102.5v-18q-73 -20 -100 -54t-27 -110q0 -127 38 -367.5t38 -355.5q0 -206 -94 -330.5t-248 -124.5
q-74 0 -201 47q-12 4 -19 7q-9 3 -30 11q-108 40 -156 40q-50 0 -86.5 -26t-66.5 -83l-12 4v4q0 113 69 190t166 77q16 0 38.5 -2.5t29.5 -2.5q74 0 102.5 35.5t28.5 132.5q0 141 -41 202t-135 61q-30 0 -66 -9t-80 -26zM543 1673q-48 -61 -107.5 -112t-132.5 -93l-30 31
q60 72 115 151t104 164h102q49 -85 104 -164t115 -151l-32 -31q-69 38 -128 89t-110 116z" />
    <glyph glyph-name="Idieresis" unicode="&#xcf;" horiz-adv-x="977" 
d="M53 629q17 83 83.5 130.5t166.5 47.5h6q8 132 51.5 231.5t128.5 184.5q-50 -25 -89 -36t-72 -11q-37 0 -98 12t-85 12q-37 0 -65 -21.5t-53 -70.5l-17 2q23 102 89 160.5t159 58.5q32 0 107.5 -12t117.5 -12q34 0 75 7t93 21l8 -14q-85 -63 -125 -156t-40 -229
q0 -109 23.5 -281.5t23.5 -236.5q0 -115 -51 -166t-166 -54q60 -66 120.5 -102.5t108.5 -36.5q61 0 89 36.5t28 115.5q0 114 -36 355.5t-36 367.5q0 195 76 292.5t231 102.5v-18q-73 -20 -100 -54t-27 -110q0 -127 38 -367.5t38 -355.5q0 -206 -94 -330.5t-248 -124.5
q-74 0 -201 47q-12 4 -19 7q-9 3 -30 11q-108 40 -156 40q-50 0 -86.5 -26t-66.5 -83l-12 4v4q0 113 69 190t166 77q16 0 38.5 -2.5t29.5 -2.5q74 0 102.5 35.5t28.5 132.5q0 141 -41 202t-135 61q-30 0 -66 -9t-80 -26zM705 1517q-36 33 -66 65t-55 64l131 127
q35 -44 64 -75.5t57 -57.5zM361 1517q-36 33 -66 65t-55 64l131 127q35 -44 64 -75.5t57 -57.5z" />
    <glyph glyph-name="Idieresis" unicode="&#x41f;" horiz-adv-x="977" 
d="M53 629q17 83 83.5 130.5t166.5 47.5h6q8 132 51.5 231.5t128.5 184.5q-50 -25 -89 -36t-72 -11q-37 0 -98 12t-85 12q-37 0 -65 -21.5t-53 -70.5l-17 2q23 102 89 160.5t159 58.5q32 0 107.5 -12t117.5 -12q34 0 75 7t93 21l8 -14q-85 -63 -125 -156t-40 -229
q0 -109 23.5 -281.5t23.5 -236.5q0 -115 -51 -166t-166 -54q60 -66 120.5 -102.5t108.5 -36.5q61 0 89 36.5t28 115.5q0 114 -36 355.5t-36 367.5q0 195 76 292.5t231 102.5v-18q-73 -20 -100 -54t-27 -110q0 -127 38 -367.5t38 -355.5q0 -206 -94 -330.5t-248 -124.5
q-74 0 -201 47q-12 4 -19 7q-9 3 -30 11q-108 40 -156 40q-50 0 -86.5 -26t-66.5 -83l-12 4v4q0 113 69 190t166 77q16 0 38.5 -2.5t29.5 -2.5q74 0 102.5 35.5t28.5 132.5q0 141 -41 202t-135 61q-30 0 -66 -9t-80 -26zM705 1517q-36 33 -66 65t-55 64l131 127
q35 -44 64 -75.5t57 -57.5zM361 1517q-36 33 -66 65t-55 64l131 127q35 -44 64 -75.5t57 -57.5z" />
    <glyph glyph-name="Igrave" unicode="&#xcc;" horiz-adv-x="977" 
d="M53 629q17 83 83.5 130.5t166.5 47.5h6q8 132 51.5 231.5t128.5 184.5q-50 -25 -89 -36t-72 -11q-37 0 -98 12t-85 12q-37 0 -65 -21.5t-53 -70.5l-17 2q23 102 89 160.5t159 58.5q32 0 107.5 -12t117.5 -12q34 0 75 7t93 21l8 -14q-85 -63 -125 -156t-40 -229
q0 -109 23.5 -281.5t23.5 -236.5q0 -115 -51 -166t-166 -54q60 -66 120.5 -102.5t108.5 -36.5q61 0 89 36.5t28 115.5q0 114 -36 355.5t-36 367.5q0 195 76 292.5t231 102.5v-18q-73 -20 -100 -54t-27 -110q0 -127 38 -367.5t38 -355.5q0 -206 -94 -330.5t-248 -124.5
q-74 0 -201 47q-12 4 -19 7q-9 3 -30 11q-108 40 -156 40q-50 0 -86.5 -26t-66.5 -83l-12 4v4q0 113 69 190t166 77q16 0 38.5 -2.5t29.5 -2.5q74 0 102.5 35.5t28.5 132.5q0 141 -41 202t-135 61q-30 0 -66 -9t-80 -26zM654 1468q-111 60 -199.5 134t-157.5 163l146 53
q57 -85 129 -163t161 -150z" />
    <glyph glyph-name="Igrave" unicode="&#x41c;" horiz-adv-x="977" 
d="M53 629q17 83 83.5 130.5t166.5 47.5h6q8 132 51.5 231.5t128.5 184.5q-50 -25 -89 -36t-72 -11q-37 0 -98 12t-85 12q-37 0 -65 -21.5t-53 -70.5l-17 2q23 102 89 160.5t159 58.5q32 0 107.5 -12t117.5 -12q34 0 75 7t93 21l8 -14q-85 -63 -125 -156t-40 -229
q0 -109 23.5 -281.5t23.5 -236.5q0 -115 -51 -166t-166 -54q60 -66 120.5 -102.5t108.5 -36.5q61 0 89 36.5t28 115.5q0 114 -36 355.5t-36 367.5q0 195 76 292.5t231 102.5v-18q-73 -20 -100 -54t-27 -110q0 -127 38 -367.5t38 -355.5q0 -206 -94 -330.5t-248 -124.5
q-74 0 -201 47q-12 4 -19 7q-9 3 -30 11q-108 40 -156 40q-50 0 -86.5 -26t-66.5 -83l-12 4v4q0 113 69 190t166 77q16 0 38.5 -2.5t29.5 -2.5q74 0 102.5 35.5t28.5 132.5q0 141 -41 202t-135 61q-30 0 -66 -9t-80 -26zM654 1468q-111 60 -199.5 134t-157.5 163l146 53
q57 -85 129 -163t161 -150z" />
    <glyph glyph-name="Oacute" unicode="&#xd3;" horiz-adv-x="1434" 
d="M342 328q29 36 42 78t13 102v522q-82 -72 -124 -167.5t-42 -213.5q0 -91 28.5 -173t82.5 -148zM375 287q70 -68 140.5 -102.5t141.5 -37.5v979h-77v-497q0 -84 -41 -155t-164 -187zM709 147q131 8 244 92.5t184 229.5q-40 59 -96 88t-128 29q-47 0 -98.5 -25.5
t-105.5 -75.5v-338zM709 549q58 41 109 59.5t104 18.5q70 0 126.5 -24.5t110.5 -78.5q15 34 23 70t8 74q0 54 -14 101t-41 87q-47 -45 -103.5 -67.5t-122.5 -22.5q-48 0 -97 16t-103 49v-282zM709 895q51 -45 101.5 -66.5t104.5 -21.5q63 0 112.5 23t84.5 69
q-53 92 -152.5 148t-250.5 77v-229zM117 905q135 82 295.5 189t343.5 237q283 -32 458 -191t175 -378q0 -116 -56.5 -232t-171.5 -235q-153 -158 -309.5 -243t-292.5 -85q-116 0 -210 44t-167 132q-69 87 -104 188t-35 214q0 81 18.5 170.5t55.5 189.5zM600 1468l-82 37
q90 72 162 150t129 163l148 -53q-67 -87 -156 -161t-201 -136z" />
    <glyph glyph-name="Oacute" unicode="&#x423;" horiz-adv-x="1434" 
d="M342 328q29 36 42 78t13 102v522q-82 -72 -124 -167.5t-42 -213.5q0 -91 28.5 -173t82.5 -148zM375 287q70 -68 140.5 -102.5t141.5 -37.5v979h-77v-497q0 -84 -41 -155t-164 -187zM709 147q131 8 244 92.5t184 229.5q-40 59 -96 88t-128 29q-47 0 -98.5 -25.5
t-105.5 -75.5v-338zM709 549q58 41 109 59.5t104 18.5q70 0 126.5 -24.5t110.5 -78.5q15 34 23 70t8 74q0 54 -14 101t-41 87q-47 -45 -103.5 -67.5t-122.5 -22.5q-48 0 -97 16t-103 49v-282zM709 895q51 -45 101.5 -66.5t104.5 -21.5q63 0 112.5 23t84.5 69
q-53 92 -152.5 148t-250.5 77v-229zM117 905q135 82 295.5 189t343.5 237q283 -32 458 -191t175 -378q0 -116 -56.5 -232t-171.5 -235q-153 -158 -309.5 -243t-292.5 -85q-116 0 -210 44t-167 132q-69 87 -104 188t-35 214q0 81 18.5 170.5t55.5 189.5zM600 1468l-82 37
q90 72 162 150t129 163l148 -53q-67 -87 -156 -161t-201 -136z" />
    <glyph glyph-name="Ocircumflex" unicode="&#xd4;" horiz-adv-x="1434" 
d="M342 328q29 36 42 78t13 102v522q-82 -72 -124 -167.5t-42 -213.5q0 -91 28.5 -173t82.5 -148zM375 287q70 -68 140.5 -102.5t141.5 -37.5v979h-77v-497q0 -84 -41 -155t-164 -187zM709 147q131 8 244 92.5t184 229.5q-40 59 -96 88t-128 29q-47 0 -98.5 -25.5
t-105.5 -75.5v-338zM709 549q58 41 109 59.5t104 18.5q70 0 126.5 -24.5t110.5 -78.5q15 34 23 70t8 74q0 54 -14 101t-41 87q-47 -45 -103.5 -67.5t-122.5 -22.5q-48 0 -97 16t-103 49v-282zM709 895q51 -45 101.5 -66.5t104.5 -21.5q63 0 112.5 23t84.5 69
q-53 92 -152.5 148t-250.5 77v-229zM117 905q135 82 295.5 189t343.5 237q283 -32 458 -191t175 -378q0 -116 -56.5 -232t-171.5 -235q-153 -158 -309.5 -243t-292.5 -85q-116 0 -210 44t-167 132q-69 87 -104 188t-35 214q0 81 18.5 170.5t55.5 189.5zM672 1673
q-48 -61 -107.5 -112t-132.5 -93l-30 31q60 72 115 151t104 164h102q49 -85 104 -164t115 -151l-32 -31q-69 38 -128 89t-110 116z" />
    <glyph glyph-name="Ocircumflex" unicode="&#x424;" horiz-adv-x="1434" 
d="M342 328q29 36 42 78t13 102v522q-82 -72 -124 -167.5t-42 -213.5q0 -91 28.5 -173t82.5 -148zM375 287q70 -68 140.5 -102.5t141.5 -37.5v979h-77v-497q0 -84 -41 -155t-164 -187zM709 147q131 8 244 92.5t184 229.5q-40 59 -96 88t-128 29q-47 0 -98.5 -25.5
t-105.5 -75.5v-338zM709 549q58 41 109 59.5t104 18.5q70 0 126.5 -24.5t110.5 -78.5q15 34 23 70t8 74q0 54 -14 101t-41 87q-47 -45 -103.5 -67.5t-122.5 -22.5q-48 0 -97 16t-103 49v-282zM709 895q51 -45 101.5 -66.5t104.5 -21.5q63 0 112.5 23t84.5 69
q-53 92 -152.5 148t-250.5 77v-229zM117 905q135 82 295.5 189t343.5 237q283 -32 458 -191t175 -378q0 -116 -56.5 -232t-171.5 -235q-153 -158 -309.5 -243t-292.5 -85q-116 0 -210 44t-167 132q-69 87 -104 188t-35 214q0 81 18.5 170.5t55.5 189.5zM672 1673
q-48 -61 -107.5 -112t-132.5 -93l-30 31q60 72 115 151t104 164h102q49 -85 104 -164t115 -151l-32 -31q-69 38 -128 89t-110 116z" />
    <glyph glyph-name="apple" unicode="&#xf000;" horiz-adv-x="1618" 
d="M836 1216q-1 6 -1.5 14t-0.5 23q0 124 95 229.5t236 131.5q1 -10 1.5 -23t0.5 -39q0 -131 -103.5 -234.5t-203.5 -103.5h-8q-3 0 -7.5 1t-8.5 1zM1505 403q-114 -247 -205 -342.5t-204 -95.5q-50 0 -131.5 33t-122.5 33q-45 0 -131 -33t-127 -33q-64 0 -128.5 44
t-129.5 132q-102 140 -157.5 295.5t-55.5 300.5q0 219 125 356.5t323 137.5q68 0 155 -34t124 -34q34 0 121.5 35t152.5 35q110 0 198 -40t161 -124q-102 -65 -151.5 -145.5t-49.5 -182.5q0 -113 60 -200t173 -138z" />
    <glyph glyph-name="Ograve" unicode="&#xd2;" horiz-adv-x="1434" 
d="M342 328q29 36 42 78t13 102v522q-82 -72 -124 -167.5t-42 -213.5q0 -91 28.5 -173t82.5 -148zM375 287q70 -68 140.5 -102.5t141.5 -37.5v979h-77v-497q0 -84 -41 -155t-164 -187zM709 147q131 8 244 92.5t184 229.5q-40 59 -96 88t-128 29q-47 0 -98.5 -25.5
t-105.5 -75.5v-338zM709 549q58 41 109 59.5t104 18.5q70 0 126.5 -24.5t110.5 -78.5q15 34 23 70t8 74q0 54 -14 101t-41 87q-47 -45 -103.5 -67.5t-122.5 -22.5q-48 0 -97 16t-103 49v-282zM709 895q51 -45 101.5 -66.5t104.5 -21.5q63 0 112.5 23t84.5 69
q-53 92 -152.5 148t-250.5 77v-229zM117 905q135 82 295.5 189t343.5 237q283 -32 458 -191t175 -378q0 -116 -56.5 -232t-171.5 -235q-153 -158 -309.5 -243t-292.5 -85q-116 0 -210 44t-167 132q-69 87 -104 188t-35 214q0 81 18.5 170.5t55.5 189.5zM783 1468
q-111 60 -199.5 134t-157.5 163l146 53q57 -85 129 -163t161 -150z" />
    <glyph glyph-name="Ograve" unicode="&#x422;" horiz-adv-x="1434" 
d="M342 328q29 36 42 78t13 102v522q-82 -72 -124 -167.5t-42 -213.5q0 -91 28.5 -173t82.5 -148zM375 287q70 -68 140.5 -102.5t141.5 -37.5v979h-77v-497q0 -84 -41 -155t-164 -187zM709 147q131 8 244 92.5t184 229.5q-40 59 -96 88t-128 29q-47 0 -98.5 -25.5
t-105.5 -75.5v-338zM709 549q58 41 109 59.5t104 18.5q70 0 126.5 -24.5t110.5 -78.5q15 34 23 70t8 74q0 54 -14 101t-41 87q-47 -45 -103.5 -67.5t-122.5 -22.5q-48 0 -97 16t-103 49v-282zM709 895q51 -45 101.5 -66.5t104.5 -21.5q63 0 112.5 23t84.5 69
q-53 92 -152.5 148t-250.5 77v-229zM117 905q135 82 295.5 189t343.5 237q283 -32 458 -191t175 -378q0 -116 -56.5 -232t-171.5 -235q-153 -158 -309.5 -243t-292.5 -85q-116 0 -210 44t-167 132q-69 87 -104 188t-35 214q0 81 18.5 170.5t55.5 189.5zM783 1468
q-111 60 -199.5 134t-157.5 163l146 53q57 -85 129 -163t161 -150z" />
    <glyph glyph-name="Uacute" unicode="&#xda;" horiz-adv-x="1554" 
d="M483 258q54 -46 125 -68t166 -22h14v1092q-38 -39 -56.5 -86.5t-18.5 -108.5v-416q0 -133 -50 -217t-180 -174zM522 500v325q0 102 40.5 187t127.5 166q-170 -89 -261 -236t-91 -332q0 -96 28.5 -176t86.5 -145q36 34 52.5 84.5t16.5 126.5zM836 172q78 5 152 32.5
t147 78.5v254q-35 20 -70 30.5t-70 10.5q-42 0 -81.5 -10.5t-77.5 -30.5v-365zM836 793v-211q37 19 74 29t75 10t75 -10t75 -29v211q-36 -20 -74 -29.5t-76 -9.5t-75 9.5t-74 29.5zM1137 221q-126 -132 -246 -193t-252 -61q-224 0 -371 150.5t-147 378.5q0 211 130.5 389
t375.5 301q-54 -16 -100 -24.5t-85 -8.5q-20 0 -61 4t-62 4q-105 0 -168.5 -46t-103.5 -152l-22 -2v6q0 166 76.5 263t205.5 97q45 0 154.5 -24.5t175.5 -24.5q51 0 87 11.5t64 37.5h48v-489q38 -21 76 -31t77 -10q38 0 74 10t72 31v243l-86 60l-68 -80l-35 26l205 240
l186 -125l101 84l16 -14q-41 -53 -62.5 -105.5t-21.5 -99.5v-805q0 -51 9.5 -81.5t29.5 -51.5l61 57l27 -32l-186 -187h-37q-62 53 -96 115.5t-41 138.5zM794 1468l-82 37q90 72 162 150t129 163l148 -53q-67 -87 -156 -161t-201 -136z" />
    <glyph glyph-name="Uacute" unicode="&#x42a;" horiz-adv-x="1554" 
d="M483 258q54 -46 125 -68t166 -22h14v1092q-38 -39 -56.5 -86.5t-18.5 -108.5v-416q0 -133 -50 -217t-180 -174zM522 500v325q0 102 40.5 187t127.5 166q-170 -89 -261 -236t-91 -332q0 -96 28.5 -176t86.5 -145q36 34 52.5 84.5t16.5 126.5zM836 172q78 5 152 32.5
t147 78.5v254q-35 20 -70 30.5t-70 10.5q-42 0 -81.5 -10.5t-77.5 -30.5v-365zM836 793v-211q37 19 74 29t75 10t75 -10t75 -29v211q-36 -20 -74 -29.5t-76 -9.5t-75 9.5t-74 29.5zM1137 221q-126 -132 -246 -193t-252 -61q-224 0 -371 150.5t-147 378.5q0 211 130.5 389
t375.5 301q-54 -16 -100 -24.5t-85 -8.5q-20 0 -61 4t-62 4q-105 0 -168.5 -46t-103.5 -152l-22 -2v6q0 166 76.5 263t205.5 97q45 0 154.5 -24.5t175.5 -24.5q51 0 87 11.5t64 37.5h48v-489q38 -21 76 -31t77 -10q38 0 74 10t72 31v243l-86 60l-68 -80l-35 26l205 240
l186 -125l101 84l16 -14q-41 -53 -62.5 -105.5t-21.5 -99.5v-805q0 -51 9.5 -81.5t29.5 -51.5l61 57l27 -32l-186 -187h-37q-62 53 -96 115.5t-41 138.5zM794 1468l-82 37q90 72 162 150t129 163l148 -53q-67 -87 -156 -161t-201 -136z" />
    <glyph glyph-name="Ucircumflex" unicode="&#xdb;" horiz-adv-x="1554" 
d="M483 258q54 -46 125 -68t166 -22h14v1092q-38 -39 -56.5 -86.5t-18.5 -108.5v-416q0 -133 -50 -217t-180 -174zM522 500v325q0 102 40.5 187t127.5 166q-170 -89 -261 -236t-91 -332q0 -96 28.5 -176t86.5 -145q36 34 52.5 84.5t16.5 126.5zM836 172q78 5 152 32.5
t147 78.5v254q-35 20 -70 30.5t-70 10.5q-42 0 -81.5 -10.5t-77.5 -30.5v-365zM836 793v-211q37 19 74 29t75 10t75 -10t75 -29v211q-36 -20 -74 -29.5t-76 -9.5t-75 9.5t-74 29.5zM1137 221q-126 -132 -246 -193t-252 -61q-224 0 -371 150.5t-147 378.5q0 211 130.5 389
t375.5 301q-54 -16 -100 -24.5t-85 -8.5q-20 0 -61 4t-62 4q-105 0 -168.5 -46t-103.5 -152l-22 -2v6q0 166 76.5 263t205.5 97q45 0 154.5 -24.5t175.5 -24.5q51 0 87 11.5t64 37.5h48v-489q38 -21 76 -31t77 -10q38 0 74 10t72 31v243l-86 60l-68 -80l-35 26l205 240
l186 -125l101 84l16 -14q-41 -53 -62.5 -105.5t-21.5 -99.5v-805q0 -51 9.5 -81.5t29.5 -51.5l61 57l27 -32l-186 -187h-37q-62 53 -96 115.5t-41 138.5zM866 1673q-48 -61 -107.5 -112t-132.5 -93l-30 31q60 72 115 151t104 164h102q49 -85 104 -164t115 -151l-32 -31
q-69 38 -128 89t-110 116z" />
    <glyph glyph-name="Ucircumflex" unicode="&#x42b;" horiz-adv-x="1554" 
d="M483 258q54 -46 125 -68t166 -22h14v1092q-38 -39 -56.5 -86.5t-18.5 -108.5v-416q0 -133 -50 -217t-180 -174zM522 500v325q0 102 40.5 187t127.5 166q-170 -89 -261 -236t-91 -332q0 -96 28.5 -176t86.5 -145q36 34 52.5 84.5t16.5 126.5zM836 172q78 5 152 32.5
t147 78.5v254q-35 20 -70 30.5t-70 10.5q-42 0 -81.5 -10.5t-77.5 -30.5v-365zM836 793v-211q37 19 74 29t75 10t75 -10t75 -29v211q-36 -20 -74 -29.5t-76 -9.5t-75 9.5t-74 29.5zM1137 221q-126 -132 -246 -193t-252 -61q-224 0 -371 150.5t-147 378.5q0 211 130.5 389
t375.5 301q-54 -16 -100 -24.5t-85 -8.5q-20 0 -61 4t-62 4q-105 0 -168.5 -46t-103.5 -152l-22 -2v6q0 166 76.5 263t205.5 97q45 0 154.5 -24.5t175.5 -24.5q51 0 87 11.5t64 37.5h48v-489q38 -21 76 -31t77 -10q38 0 74 10t72 31v243l-86 60l-68 -80l-35 26l205 240
l186 -125l101 84l16 -14q-41 -53 -62.5 -105.5t-21.5 -99.5v-805q0 -51 9.5 -81.5t29.5 -51.5l61 57l27 -32l-186 -187h-37q-62 53 -96 115.5t-41 138.5zM866 1673q-48 -61 -107.5 -112t-132.5 -93l-30 31q60 72 115 151t104 164h102q49 -85 104 -164t115 -151l-32 -31
q-69 38 -128 89t-110 116z" />
    <glyph glyph-name="Ugrave" unicode="&#xd9;" horiz-adv-x="1554" 
d="M483 258q54 -46 125 -68t166 -22h14v1092q-38 -39 -56.5 -86.5t-18.5 -108.5v-416q0 -133 -50 -217t-180 -174zM522 500v325q0 102 40.5 187t127.5 166q-170 -89 -261 -236t-91 -332q0 -96 28.5 -176t86.5 -145q36 34 52.5 84.5t16.5 126.5zM836 172q78 5 152 32.5
t147 78.5v254q-35 20 -70 30.5t-70 10.5q-42 0 -81.5 -10.5t-77.5 -30.5v-365zM836 793v-211q37 19 74 29t75 10t75 -10t75 -29v211q-36 -20 -74 -29.5t-76 -9.5t-75 9.5t-74 29.5zM1137 221q-126 -132 -246 -193t-252 -61q-224 0 -371 150.5t-147 378.5q0 211 130.5 389
t375.5 301q-54 -16 -100 -24.5t-85 -8.5q-20 0 -61 4t-62 4q-105 0 -168.5 -46t-103.5 -152l-22 -2v6q0 166 76.5 263t205.5 97q45 0 154.5 -24.5t175.5 -24.5q51 0 87 11.5t64 37.5h48v-489q38 -21 76 -31t77 -10q38 0 74 10t72 31v243l-86 60l-68 -80l-35 26l205 240
l186 -125l101 84l16 -14q-41 -53 -62.5 -105.5t-21.5 -99.5v-805q0 -51 9.5 -81.5t29.5 -51.5l61 57l27 -32l-186 -187h-37q-62 53 -96 115.5t-41 138.5zM977 1468q-111 60 -199.5 134t-157.5 163l146 53q57 -85 129 -163t161 -150z" />
    <glyph glyph-name="Ugrave" unicode="&#x429;" horiz-adv-x="1554" 
d="M483 258q54 -46 125 -68t166 -22h14v1092q-38 -39 -56.5 -86.5t-18.5 -108.5v-416q0 -133 -50 -217t-180 -174zM522 500v325q0 102 40.5 187t127.5 166q-170 -89 -261 -236t-91 -332q0 -96 28.5 -176t86.5 -145q36 34 52.5 84.5t16.5 126.5zM836 172q78 5 152 32.5
t147 78.5v254q-35 20 -70 30.5t-70 10.5q-42 0 -81.5 -10.5t-77.5 -30.5v-365zM836 793v-211q37 19 74 29t75 10t75 -10t75 -29v211q-36 -20 -74 -29.5t-76 -9.5t-75 9.5t-74 29.5zM1137 221q-126 -132 -246 -193t-252 -61q-224 0 -371 150.5t-147 378.5q0 211 130.5 389
t375.5 301q-54 -16 -100 -24.5t-85 -8.5q-20 0 -61 4t-62 4q-105 0 -168.5 -46t-103.5 -152l-22 -2v6q0 166 76.5 263t205.5 97q45 0 154.5 -24.5t175.5 -24.5q51 0 87 11.5t64 37.5h48v-489q38 -21 76 -31t77 -10q38 0 74 10t72 31v243l-86 60l-68 -80l-35 26l205 240
l186 -125l101 84l16 -14q-41 -53 -62.5 -105.5t-21.5 -99.5v-805q0 -51 9.5 -81.5t29.5 -51.5l61 57l27 -32l-186 -187h-37q-62 53 -96 115.5t-41 138.5zM977 1468q-111 60 -199.5 134t-157.5 163l146 53q57 -85 129 -163t161 -150z" />
    <glyph glyph-name="dotlessi" unicode="&#x131;" horiz-adv-x="426" 
d="M299 200q5 -20 16.5 -34.5t31.5 -23.5l34 26l31 -31l-185 -162q-68 35 -96.5 90.5t-28.5 165.5v537l-59 70l154 135l153 -146l-51 -59v-568z" />
    <glyph glyph-name="circumflex" unicode="&#x2c6;" 
d="M512 1280q-48 -61 -107.5 -112t-132.5 -93l-30 31q60 72 115 151t104 164h102q49 -85 104 -164t115 -151l-32 -31q-69 38 -128 89t-110 116z" />
    <glyph glyph-name="tilde" unicode="&#x2dc;" 
d="M729 1290l29 56l41 -17l-47 -98q-20 -41 -47.5 -58.5t-71.5 -17.5q-38 0 -140 29.5t-163 29.5q-14 0 -21 -0.5t-12 -1.5l-33 -61l-41 16l43 86q26 52 52 70t69 18q38 0 138.5 -28.5t160.5 -28.5q11 0 21.5 1.5t21.5 4.5z" />
    <glyph glyph-name="macron" unicode="&#xaf;" 
d="M223 1171l19 132h534l-20 -132h-533z" />
    <glyph glyph-name="breve" unicode="&#x2d8;" 
d="M227 1380h62q18 -67 70 -97t153 -30t153.5 30.5t67.5 96.5h64q-20 -130 -92.5 -197t-192.5 -67q-119 0 -192 68t-93 196z" />
    <glyph glyph-name="dotaccent" unicode="&#x2d9;" 
d="M506 1116q-33 30 -64.5 63.5t-64.5 73.5l139 136q40 -50 70.5 -82.5t58.5 -57.5z" />
    <glyph glyph-name="ring" unicode="&#x2da;" 
d="M264 1303q0 104 72 175.5t176 71.5t176 -71.5t72 -175.5q0 -105 -72 -176.5t-176 -71.5t-176 71.5t-72 176.5zM365 1303q0 -62 43 -106t104 -44t105.5 44t44.5 106q0 61 -44.5 105t-105.5 44q-62 0 -104.5 -43.5t-42.5 -105.5z" />
    <glyph glyph-name="cedilla" unicode="&#xb8;" 
d="M301 -420l39 101l254 -48q19 17 29 35.5t10 38.5q0 49 -49 76t-140 27h-18q4 19 7 44t3 44v137h58v-160q119 0 188.5 -45t69.5 -121q0 -52 -28.5 -97t-90.5 -89z" />
    <glyph glyph-name="hungarumlaut" unicode="&#x2dd;" 
d="M645 1075l-78 37q80 75 141.5 152.5t106.5 160.5l131 -53q-59 -90 -133.5 -163t-167.5 -134zM367 1075l-68 37q77 74 138.5 151.5t109.5 161.5l123 -53q-59 -88 -134 -161.5t-169 -135.5z" />
    <glyph glyph-name="ogonek" unicode="&#x2db;" 
d="M543 -449l-201 158q7 96 62.5 173t170.5 149h64q-73 -56 -109 -113t-36 -115q0 -51 25.5 -81.5t72.5 -36.5l53 61l33 -25q-34 -39 -68 -81.5t-67 -88.5z" />
    <glyph glyph-name="caron" unicode="&#x2c7;" 
d="M512 1217q51 65 110 115.5t128 88.5l30 -30q-61 -72 -115.5 -151t-103.5 -165h-100q-49 86 -104 165t-115 151l30 30q70 -39 130 -90t110 -114z" />
    <glyph glyph-name="Lslash" unicode="&#x141;" horiz-adv-x="1190" 
d="M344 121q147 107 215 225.5t68 265.5q0 9 -1 28t-1 30l-107 -68v-29q0 -109 -42 -219t-132 -233zM125 -6q128 97 178.5 191t50.5 239q0 11 -1 28.5t-1 24.5l-225 -145v92l215 139q-9 91 -13.5 152.5t-4.5 95.5q0 121 40.5 216t127.5 179q-46 -30 -88 -44.5t-82 -14.5
q-38 0 -103 18.5t-92 18.5q-36 0 -66 -21.5t-55 -64.5l-22 12q22 107 84.5 163t156.5 56q51 0 138.5 -25.5t123.5 -25.5t78 11t90 34l11 -16q-87 -67 -127.5 -143.5t-40.5 -174.5q0 -34 4.5 -107.5t13.5 -188.5l107 67q-9 100 -12 144.5t-3 74.5q0 181 79.5 263.5
t254.5 82.5h27l2 -26q-96 -10 -140.5 -56.5t-44.5 -136.5q0 -37 12 -184q2 -21 3 -31l229 149v-94l-227 -147q0 -8 1 -24.5t1 -24.5q0 -173 -75 -305.5t-236 -245.5q95 31 169 46t128 15q42 0 83 -9t99 -34q34 -14 75 -42t52 -28q7 0 13.5 3t12.5 10l35 30l35 -28l-227 -219
q-87 74 -181.5 109.5t-203.5 35.5q-101 0 -212.5 -30.5t-232.5 -90.5z" />
    <glyph glyph-name="lslash" unicode="&#x142;" horiz-adv-x="612" 
d="M266 1194q46 50 93 75.5t102 28.5l4 -8q-45 -33 -68.5 -79.5t-23.5 -102.5v-332l186 123v-84l-186 -121v-458l133 -93l49 43l29 -32q-49 -46 -93.5 -89t-87.5 -88q-49 51 -118 91.5t-166 74.5q30 24 43.5 59t13.5 95v256l-158 -100v82l158 100v485q0 29 -18 63.5
t-52 69.5l7 9q34 -8 67 -24.5t66 -43.5h20z" />
    <glyph glyph-name="Scaron" unicode="&#x160;" horiz-adv-x="1489" 
d="M788 907l68 119q-82 59 -167 92t-154 33q-75 0 -120.5 -38t-45.5 -99q0 -59 52 -93t144 -34q29 0 76 4t147 16zM690 612q76 10 130 14.5t91 4.5q127 0 198 -45.5t71 -124.5q0 -67 -57.5 -126.5t-192.5 -129.5q27 -10 84 -31.5t86 -32.5q95 75 140.5 154t45.5 170
q0 132 -91.5 202t-264.5 70q-45 0 -90 -3.5t-93 -11.5zM250 848q-26 -23 -38.5 -46t-12.5 -46q0 -70 75.5 -113t202.5 -43q43 0 78 2t66 6l61 107q-52 -4 -94 -6t-64 -2q-104 0 -174 36t-100 105zM858 231q70 47 103.5 84t33.5 68q0 35 -26.5 49t-98.5 14q-56 0 -212 -14
q-47 -4 -72 -6l-56 -104q57 -11 137 -33t191 -58zM590 96q-105 44 -199.5 67t-167.5 23q-65 0 -101 -24t-36 -68q0 -45 47 -72.5t125 -27.5q66 0 153.5 26.5t178.5 75.5zM668 72q-137 -63 -240.5 -93t-181.5 -30q-104 0 -171 53.5t-67 132.5q0 93 81.5 152t213.5 59
q30 0 73 -4t99 -12l49 94h-32q-191 0 -305.5 74t-114.5 194q0 65 39.5 112.5t121.5 82.5v12q0 70 37 138t111 134l188 168q4 -1 12 -4q272 -103 375 -131l43 82l45 -24l-194 -351q36 3 53 3.5t31 0.5q227 0 360 -105.5t133 -283.5q0 -153 -120.5 -286t-389.5 -275
q-25 13 -210 90q-26 11 -39 17zM799 1610q51 65 110 115.5t128 88.5l30 -30q-61 -72 -115.5 -151t-103.5 -165h-100q-49 86 -104 165t-115 151l30 30q70 -39 130 -90t110 -114z" />
    <glyph glyph-name="scaron" unicode="&#x161;" horiz-adv-x="758" 
d="M508 152v268l-111 65l-213 -295q34 13 66.5 19t64.5 6q47 0 95 -16t98 -47zM242 571l108 -63l180 260q-33 -6 -60 -9t-46 -3q-46 0 -91 12t-91 37v-234zM10 16l240 351l-189 110v328q68 30 128.5 72.5t111.5 97.5q72 -41 137.5 -62.5t118.5 -21.5q48 0 76.5 19.5
t28.5 52.5q0 17 -25 47.5t-25 46.5q0 20 15 34.5t35 14.5q31 0 50 -22.5t19 -59.5q0 -30 -13.5 -62.5t-45.5 -76.5l-174 -252l180 -117v-387q-62 -20 -123.5 -57.5t-122.5 -94.5q-46 34 -94 51t-98 17q-47 0 -94 -13.5t-99 -41.5zM379 1217q51 65 110 115.5t128 88.5l30 -30
q-61 -72 -115.5 -151t-103.5 -165h-100q-49 86 -104 165t-115 151l30 30q70 -39 130 -90t110 -114z" />
    <glyph glyph-name="Zcaron" unicode="&#x17d;" horiz-adv-x="1110" 
d="M-37 -2q70 80 145 194.5t222 374.5h-232l31 68h236q13 25 28 48t33 46h-252l31 68h268q64 86 167 190t261 240q-129 -77 -245 -113.5t-230 -36.5q-72 0 -140 13t-134 38l-64 -63l-37 29q50 56 99.5 114t99.5 119q106 -49 194 -71.5t170 -22.5q90 0 189.5 19.5t206.5 58.5
l10 -15q-49 -60 -113.5 -173t-171.5 -326h230l-31 -68h-236q-15 -28 -31 -51.5t-32 -42.5h254l-31 -68h-266q-64 -93 -175 -204.5t-296 -268.5q162 79 288.5 114.5t241.5 35.5q78 0 151 -18.5t140 -55.5l70 76l37 -29q-80 -95 -125.5 -151.5t-77.5 -98.5q-125 60 -228 87.5
t-196 27.5q-96 0 -209 -25.5t-236 -74.5zM610 1610q51 65 110 115.5t128 88.5l30 -30q-61 -72 -115.5 -151t-103.5 -165h-100q-49 86 -104 165t-115 151l30 30q70 -39 130 -90t110 -114z" />
    <glyph glyph-name="zcaron" unicode="&#x17e;" horiz-adv-x="600" 
d="M37 375l285 297l-160 157l-107 -75l-28 37l247 180l150 -133q18 -17 37 -25.5t40 -9.5l1 -12l-237 -246q122 -5 189.5 -63.5t67.5 -159.5q0 -86 -52 -161t-146 -126q-19 -10 -54 -28q-149 -78 -149 -150q0 -33 21 -56.5t48 -23.5q12 0 32.5 5t29.5 5q15 0 24 -8t9 -21
q0 -16 -19 -29.5t-45 -13.5q-53 0 -96 44t-43 100q0 34 15 67t44 62q19 18 57 52q136 122 136 214q0 70 -39.5 108.5t-112.5 38.5q-18 0 -51.5 -6t-93.5 -20zM301 1217q51 65 110 115.5t128 88.5l30 -30q-61 -72 -115.5 -151t-103.5 -165h-100q-49 86 -104 165t-115 151
l30 30q70 -39 130 -90t110 -114z" />
    <glyph glyph-name="brokenbar" unicode="&#xa6;" 
d="M438 408h150v-758h-150v758zM438 1432h150v-758h-150v758z" />
    <glyph glyph-name="Eth" unicode="&#xd0;" horiz-adv-x="1546" 
d="M836 268q93 -6 186.5 -22.5t189.5 -44.5q3 48 5 96t2 94q0 410 -76.5 544t-278.5 134h-28v-373h180l-12 -80h-168v-348zM613 271q20 2 43.5 3.5t48.5 1.5q20 0 41.5 -1.5t41.5 -4.5v346h-94v-84q0 -99 -19 -156.5t-62 -104.5zM694 862v-166h94v373h-43q-26 -35 -38.5 -85
t-12.5 -122zM647 856q0 68 10.5 118.5t32.5 88.5q-89 -29 -127.5 -81.5t-38.5 -145.5v-140h123v160zM524 573q0 -76 -22.5 -148.5t-65.5 -135.5q-30 -44 -111 -111t-255 -192l-15 16q134 102 190 238.5t56 375.5h-301l12 80h295q32 120 102 208t186 155q-85 -2 -177 -6
t-101 -4q-126 0 -200 73t-74 199q0 20 0.5 30t1.5 19l12 2q16 -57 71 -91t134 -34q32 0 224 16.5t354 16.5q183 0 278.5 -36.5t165.5 -125.5q80 -100 121 -288.5t41 -456.5q0 -41 -1.5 -86.5t-5.5 -96.5q-84 -29 -164 -82t-163 -135q-124 46 -249.5 69.5t-246.5 23.5
q-124 0 -260 -43t-282 -127l-19 26q68 46 197 127t184 121q111 78 161 161.5t50 190.5v94h-123v-43z" />
    <glyph glyph-name="Eth" unicode="&#x420;" horiz-adv-x="1546" 
d="M836 268q93 -6 186.5 -22.5t189.5 -44.5q3 48 5 96t2 94q0 410 -76.5 544t-278.5 134h-28v-373h180l-12 -80h-168v-348zM613 271q20 2 43.5 3.5t48.5 1.5q20 0 41.5 -1.5t41.5 -4.5v346h-94v-84q0 -99 -19 -156.5t-62 -104.5zM694 862v-166h94v373h-43q-26 -35 -38.5 -85
t-12.5 -122zM647 856q0 68 10.5 118.5t32.5 88.5q-89 -29 -127.5 -81.5t-38.5 -145.5v-140h123v160zM524 573q0 -76 -22.5 -148.5t-65.5 -135.5q-30 -44 -111 -111t-255 -192l-15 16q134 102 190 238.5t56 375.5h-301l12 80h295q32 120 102 208t186 155q-85 -2 -177 -6
t-101 -4q-126 0 -200 73t-74 199q0 20 0.5 30t1.5 19l12 2q16 -57 71 -91t134 -34q32 0 224 16.5t354 16.5q183 0 278.5 -36.5t165.5 -125.5q80 -100 121 -288.5t41 -456.5q0 -41 -1.5 -86.5t-5.5 -96.5q-84 -29 -164 -82t-163 -135q-124 46 -249.5 69.5t-246.5 23.5
q-124 0 -260 -43t-282 -127l-19 26q68 46 197 127t184 121q111 78 161 161.5t50 190.5v94h-123v-43z" />
    <glyph glyph-name="eth" unicode="&#xf0;" horiz-adv-x="788" 
d="M291 233q54 -23 106 -44t103 -39v493q-2 60 -14 111t-35 98l-160 -76v-543zM397 -25q-77 61 -167 104t-187 64q32 25 44.5 60t12.5 104v471q79 23 157 55.5t157 73.5q-21 31 -46.5 59t-58.5 56l-203 -84l-49 47l193 84q-45 33 -91.5 62.5t-95.5 56.5l147 79q8 -3 21 -10
q132 -71 185 -116l215 92l51 -51l-209 -88q108 -89 160.5 -204t52.5 -263v-492q-89 -27 -161 -67t-128 -93z" />
    <glyph glyph-name="eth" unicode="&#x440;" horiz-adv-x="788" 
d="M291 233q54 -23 106 -44t103 -39v493q-2 60 -14 111t-35 98l-160 -76v-543zM397 -25q-77 61 -167 104t-187 64q32 25 44.5 60t12.5 104v471q79 23 157 55.5t157 73.5q-21 31 -46.5 59t-58.5 56l-203 -84l-49 47l193 84q-45 33 -91.5 62.5t-95.5 56.5l147 79q8 -3 21 -10
q132 -71 185 -116l215 92l51 -51l-209 -88q108 -89 160.5 -204t52.5 -263v-492q-89 -27 -161 -67t-128 -93z" />
    <glyph glyph-name="Yacute" unicode="&#xdd;" horiz-adv-x="1380" 
d="M539 250h90v870l-90 -41v-829zM676 250h67q100 0 174 75t101 205q-41 35 -84 52.5t-88 17.5q-51 0 -91.5 -14.5t-78.5 -46.5v-289zM1028 578q8 53 11 87t3 62q0 24 -2 54.5t-8 76.5q-47 -36 -93 -54t-93 -18q-43 0 -85 13.5t-85 40.5v-250q40 28 81.5 40.5t92.5 12.5
q42 0 86.5 -16.5t91.5 -48.5zM1024 903q-21 130 -81 199t-150 69q-29 0 -58 -7t-59 -21v-248q40 -33 81.5 -49.5t84.5 -16.5q46 0 90.5 18t91.5 56zM330 252v80q0 92 -56.5 166.5t-164.5 126.5v14q12 2 25.5 3t37.5 1q38 0 77 -10.5t81 -32.5q0 5 1 16.5t1 16.5
q0 95 -53.5 161.5t-163.5 108.5v15q22 6 45 9t45 3q27 0 58.5 -7t65.5 -20l1 172q0 98 -44.5 143.5t-140.5 45.5h-26v16q41 23 81.5 34t84.5 11q96 0 164.5 -52t93.5 -145q113 78 202 115t162 37q170 0 269.5 -126.5t99.5 -344.5q0 -295 -142 -449.5t-411 -154.5h-348
q-146 0 -222.5 -52.5t-76.5 -152.5q0 -76 51.5 -124t134.5 -48q27 0 52 4t44 12q24 10 70 30q238 101 344 101q98 0 158.5 -48.5t60.5 -125.5q0 -38 -23.5 -63t-60.5 -25q-35 0 -57.5 22.5t-22.5 57.5q0 22 16.5 51.5t16.5 34.5q0 17 -8.5 25t-26.5 8q-24 0 -151 -67
q-43 -23 -67 -35q-11 -6 -30 -16q-155 -83 -260 -83q-124 0 -207 79.5t-83 199.5q0 118 80 187.5t223 74.5zM673 1468l-82 37q90 72 162 150t129 163l148 -53q-67 -87 -156 -161t-201 -136z" />
    <glyph glyph-name="Yacute" unicode="&#x42d;" horiz-adv-x="1380" 
d="M539 250h90v870l-90 -41v-829zM676 250h67q100 0 174 75t101 205q-41 35 -84 52.5t-88 17.5q-51 0 -91.5 -14.5t-78.5 -46.5v-289zM1028 578q8 53 11 87t3 62q0 24 -2 54.5t-8 76.5q-47 -36 -93 -54t-93 -18q-43 0 -85 13.5t-85 40.5v-250q40 28 81.5 40.5t92.5 12.5
q42 0 86.5 -16.5t91.5 -48.5zM1024 903q-21 130 -81 199t-150 69q-29 0 -58 -7t-59 -21v-248q40 -33 81.5 -49.5t84.5 -16.5q46 0 90.5 18t91.5 56zM330 252v80q0 92 -56.5 166.5t-164.5 126.5v14q12 2 25.5 3t37.5 1q38 0 77 -10.5t81 -32.5q0 5 1 16.5t1 16.5
q0 95 -53.5 161.5t-163.5 108.5v15q22 6 45 9t45 3q27 0 58.5 -7t65.5 -20l1 172q0 98 -44.5 143.5t-140.5 45.5h-26v16q41 23 81.5 34t84.5 11q96 0 164.5 -52t93.5 -145q113 78 202 115t162 37q170 0 269.5 -126.5t99.5 -344.5q0 -295 -142 -449.5t-411 -154.5h-348
q-146 0 -222.5 -52.5t-76.5 -152.5q0 -76 51.5 -124t134.5 -48q27 0 52 4t44 12q24 10 70 30q238 101 344 101q98 0 158.5 -48.5t60.5 -125.5q0 -38 -23.5 -63t-60.5 -25q-35 0 -57.5 22.5t-22.5 57.5q0 22 16.5 51.5t16.5 34.5q0 17 -8.5 25t-26.5 8q-24 0 -151 -67
q-43 -23 -67 -35q-11 -6 -30 -16q-155 -83 -260 -83q-124 0 -207 79.5t-83 199.5q0 118 80 187.5t223 74.5zM673 1468l-82 37q90 72 162 150t129 163l148 -53q-67 -87 -156 -161t-201 -136z" />
    <glyph glyph-name="yacute" unicode="&#xfd;" horiz-adv-x="801" 
d="M360 741l256 226q62 -67 93.5 -151t31.5 -183q0 -132 -72 -239t-253 -232q-24 -17 -126 -77t-159 -112q-27 -25 -41 -52t-14 -54q0 -47 39.5 -75t107.5 -28q62 0 116.5 43t70.5 43t26 -9.5t10 -26.5q0 -41 -63.5 -71t-157.5 -30q-98 0 -152.5 38.5t-54.5 107.5
q0 30 14 63t54 92q57 85 72.5 112.5t15.5 39.5v547q0 30 -9 51t-30 39l-59 -51l-31 34l191 187q63 -34 93.5 -89t30.5 -134v-9zM360 182q101 76 152 172t51 207q0 77 -20 134t-60 96l-123 -107v-502zM329 1075l-82 37q90 72 162 150t129 163l148 -53q-67 -87 -156 -161
t-201 -136z" />
    <glyph glyph-name="yacute" unicode="&#x44d;" horiz-adv-x="801" 
d="M360 741l256 226q62 -67 93.5 -151t31.5 -183q0 -132 -72 -239t-253 -232q-24 -17 -126 -77t-159 -112q-27 -25 -41 -52t-14 -54q0 -47 39.5 -75t107.5 -28q62 0 116.5 43t70.5 43t26 -9.5t10 -26.5q0 -41 -63.5 -71t-157.5 -30q-98 0 -152.5 38.5t-54.5 107.5
q0 30 14 63t54 92q57 85 72.5 112.5t15.5 39.5v547q0 30 -9 51t-30 39l-59 -51l-31 34l191 187q63 -34 93.5 -89t30.5 -134v-9zM360 182q101 76 152 172t51 207q0 77 -20 134t-60 96l-123 -107v-502zM329 1075l-82 37q90 72 162 150t129 163l148 -53q-67 -87 -156 -161
t-201 -136z" />
    <glyph glyph-name="Thorn" unicode="&#xde;" horiz-adv-x="1323" 
d="M655 408v-119q110 -22 193 -47t151 -58v209q-38 34 -81.5 50t-96.5 16q-46 0 -86.5 -12.5t-79.5 -38.5zM655 670v-219q37 24 81 36.5t93 12.5q41 0 83 -12.5t87 -36.5v221q-37 -25 -79 -37t-91 -12q-50 0 -92.5 11.5t-81.5 35.5zM999 731q-20 118 -104 191t-205 77
l-35 -18v-248q25 -31 72.5 -49t103.5 -18q53 0 97.5 17.5t70.5 47.5zM522 -227h86v1177l-86 -55v-1122zM305 512v229l-151 -100zM305 -285v365h-20q-50 0 -108.5 -20t-133.5 -62l-10 25q39 84 110 146t168 97q-30 78 -100.5 155.5t-192.5 166.5l-2 8l289 192v271
q0 73 -43.5 114t-120.5 41q-17 0 -38.5 -3.5t-63.5 -14.5v31q58 52 115.5 77t117.5 25q117 0 183.5 -75.5t66.5 -209.5v-104l86 59v328h47v-295l217 154q191 -77 273 -194.5t82 -317.5v-457l-299 -250q-96 43 -160.5 63.5t-112.5 24.5v-340q-69 3 -110.5 3.5t-77.5 0.5
q-30 0 -114 -2q-31 -1 -48 -2z" />
    <glyph glyph-name="Thorn" unicode="&#x42e;" horiz-adv-x="1323" 
d="M655 408v-119q110 -22 193 -47t151 -58v209q-38 34 -81.5 50t-96.5 16q-46 0 -86.5 -12.5t-79.5 -38.5zM655 670v-219q37 24 81 36.5t93 12.5q41 0 83 -12.5t87 -36.5v221q-37 -25 -79 -37t-91 -12q-50 0 -92.5 11.5t-81.5 35.5zM999 731q-20 118 -104 191t-205 77
l-35 -18v-248q25 -31 72.5 -49t103.5 -18q53 0 97.5 17.5t70.5 47.5zM522 -227h86v1177l-86 -55v-1122zM305 512v229l-151 -100zM305 -285v365h-20q-50 0 -108.5 -20t-133.5 -62l-10 25q39 84 110 146t168 97q-30 78 -100.5 155.5t-192.5 166.5l-2 8l289 192v271
q0 73 -43.5 114t-120.5 41q-17 0 -38.5 -3.5t-63.5 -14.5v31q58 52 115.5 77t117.5 25q117 0 183.5 -75.5t66.5 -209.5v-104l86 59v328h47v-295l217 154q191 -77 273 -194.5t82 -317.5v-457l-299 -250q-96 43 -160.5 63.5t-112.5 24.5v-340q-69 3 -110.5 3.5t-77.5 0.5
q-30 0 -114 -2q-31 -1 -48 -2z" />
    <glyph glyph-name="thorn" unicode="&#xfe;" horiz-adv-x="801" 
d="M530 156v536q0 25 -28 59.5t-68 53.5l-110 -109v-467q53 -14 105 -32.5t101 -40.5zM135 1120q0 33 -17 66.5t-50 66.5l6 9q34 -8 67 -24.5t66 -43.5h10q46 50 93 75.5t102 28.5l4 -8q-44 -32 -68 -79.5t-24 -102.5v-342q59 54 106 105t86 102q99 -33 150 -116t51 -212
v-459q-56 -31 -113 -79t-125 -121q-34 22 -72 41t-85 39v-113q0 -62 22 -116.5t76 -121.5h-6q-58 0 -105 30t-100 101q-45 -46 -81.5 -67t-72.5 -21h-4q47 54 65.5 96.5t18.5 94.5v1171z" />
    <glyph glyph-name="thorn" unicode="&#x44e;" horiz-adv-x="801" 
d="M530 156v536q0 25 -28 59.5t-68 53.5l-110 -109v-467q53 -14 105 -32.5t101 -40.5zM135 1120q0 33 -17 66.5t-50 66.5l6 9q34 -8 67 -24.5t66 -43.5h10q46 50 93 75.5t102 28.5l4 -8q-44 -32 -68 -79.5t-24 -102.5v-342q59 54 106 105t86 102q99 -33 150 -116t51 -212
v-459q-56 -31 -113 -79t-125 -121q-34 22 -72 41t-85 39v-113q0 -62 22 -116.5t76 -121.5h-6q-58 0 -105 30t-100 101q-45 -46 -81.5 -67t-72.5 -21h-4q47 54 65.5 96.5t18.5 94.5v1171z" />
    <glyph glyph-name="minus" unicode="&#x2212;" horiz-adv-x="1706" 
d="M254 682h1198v-141h-1198v141z" />
    <glyph glyph-name="multiply" unicode="&#xd7;" horiz-adv-x="1706" 
d="M391 1178l469 -469l469 469l98 -99l-469 -469l469 -469l-98 -96l-469 467l-469 -467l-98 96l469 469l-469 469z" />
    <glyph glyph-name="multiply" unicode="&#x427;" horiz-adv-x="1706" 
d="M391 1178l469 -469l469 469l98 -99l-469 -469l469 -469l-98 -96l-469 467l-469 -467l-98 96l469 469l-469 469z" />
    <glyph glyph-name="onesuperior" unicode="&#xb9;" horiz-adv-x="414" 
d="M98 582q23 19 30 31t7 28v418q0 30 -12.5 51t-40.5 39l-51 -39l-17 18l148 117q57 -37 78.5 -71.5t21.5 -88.5v-464l51 -37l52 41l18 -19l-145 -123z" />
    <glyph glyph-name="twosuperior" unicode="&#xb2;" horiz-adv-x="627" 
d="M0 484q12 62 53.5 120t126.5 127q13 11 42 33q78 62 114 102q34 39 52 78.5t18 77.5q0 39 -18.5 72t-53.5 57l-225 -158l-86 78l233 174l287 -164q1 -8 1.5 -15.5t0.5 -23.5q0 -80 -37 -138.5t-121 -110.5q-28 -19 -88 -51q-153 -84 -209 -158q68 26 134 39.5t132 13.5
q61 0 110 -11.5t89 -35.5l-96 -107q-58 24 -114.5 35.5t-111.5 11.5q-54 0 -112 -11.5t-121 -34.5z" />
    <glyph glyph-name="threesuperior" unicode="&#xb3;" horiz-adv-x="627" 
d="M0 647l92 82l254 -197q33 32 49.5 70.5t16.5 85.5q0 83 -59.5 133.5t-157.5 50.5q-6 0 -19 -1t-20 -1v31q109 5 167 54.5t58 138.5q0 30 -13 47.5t-36 17.5q-16 0 -39 -13l-2 -1l-160 -107l-76 74l189 131l270 -125q2 -7 3 -15.5t1 -25.5q0 -62 -40.5 -109t-121.5 -79
q96 -28 144.5 -76t48.5 -115q0 -86 -91.5 -145t-244.5 -68z" />
    <glyph glyph-name="onehalf" unicode="&#xbd;" horiz-adv-x="1333" 
d="M739 -10q10 56 49.5 111t120.5 122q12 9 35 26q78 59 113 99q33 37 50 73.5t17 72.5q0 35 -16.5 66t-50.5 58l-217 -151l-82 72l225 161l272 -151q1 -6 1.5 -14t0.5 -23q0 -75 -35 -129.5t-116 -103.5q-25 -16 -78 -44q-151 -79 -205 -151q59 23 121.5 34t132.5 11
q65 0 109.5 -9.5t79.5 -29.5l-90 -100q-55 23 -108 34t-107 11q-56 0 -111 -11.5t-111 -33.5zM53 -18l926 1269h98l-932 -1269h-92zM94 625q21 17 28 28.5t7 26.5v391q0 28 -11.5 46.5t-39.5 35.5l-49 -35l-17 19l142 106q55 -34 75.5 -65.5t20.5 -83.5v-432l49 -35l47 37
l21 -15l-140 -117z" />
    <glyph glyph-name="onequarter" unicode="&#xbc;" horiz-adv-x="1333" 
d="M803 307h250v244q0 9 -7.5 19t-20.5 19l-226 -272zM1008 72l22 20q14 14 18.5 23t4.5 20v88h-258l-33 96l311 383q48 -23 71 -53t23 -69v-273h111l27 -84h-138v-110l50 -33l36 29l17 -19l-123 -100zM53 -18l926 1269h98l-932 -1269h-92zM94 625q21 17 28 28.5t7 26.5v391
q0 28 -11.5 46.5t-39.5 35.5l-49 -35l-17 19l142 106q55 -34 75.5 -65.5t20.5 -83.5v-432l49 -35l47 37l21 -15l-140 -117z" />
    <glyph glyph-name="threequarters" unicode="&#xbe;" horiz-adv-x="1536" 
d="M1006 307h249v244q0 9 -7.5 19.5t-21.5 18.5l-225 -272zM1210 72l23 20q14 14 18 23t4 20v88h-258l-32 96l311 383q48 -23 71 -53.5t23 -70.5v-271h111l26 -84h-137v-110l49 -33l37 29l17 -19l-123 -100zM256 -18l926 1269h98l-932 -1269h-92zM0 686l88 78l242 -184
q35 33 51 68t16 77q0 76 -58 123t-153 47q-15 0 -23 -0.5t-15 -1.5l-1 29q107 6 164.5 53.5t57.5 128.5q0 28 -15.5 45.5t-38.5 17.5q-12 0 -30 -11q-5 -3 -9 -5l-151 -100l-72 69l180 123l258 -118q3 -16 4 -23.5t1 -14.5q0 -58 -38.5 -101.5t-117.5 -74.5
q91 -24 137.5 -68.5t46.5 -107.5q0 -81 -86.5 -136.5t-232.5 -66.5z" />
    <glyph glyph-name="franc" unicode="&#x20a3;" horiz-adv-x="1972" 
d="M588 1063v-651q0 -205 -47 -321.5t-158 -203.5q165 51 242 164.5t77 304.5v740q-23 -13 -50.5 -21t-63.5 -12zM393 729h-170q-69 0 -116.5 -22.5t-83.5 -73.5h-17q11 127 99.5 204.5t222.5 77.5h65v197q8 -1 16.5 -1.5t26.5 -0.5q118 0 234.5 53t259.5 172
q59 -30 120 -45.5t121 -15.5q51 0 102 11.5t105 35.5l8 -6q-22 -122 -98.5 -188t-193.5 -66q-48 0 -97 12t-100 37v-195h289l-64 -186h-225v-330q0 -238 -93.5 -360t-324.5 -193l-269 -82q-21 -7 -40.5 -10.5t-38.5 -3.5q-50 0 -131.5 32t-112.5 32q-41 0 -65.5 -24
t-38.5 -77h-16v17q0 128 60 203t163 75q70 0 174 -67l3 -2q15 -9 39 -25q64 -41 83 -41q43 0 73.5 76.5t30.5 197.5v582zM1503 973q61 -34 89.5 -73.5t31.5 -94.5l191 168l133 -160l-135 -125l-113 125l-74 -59v-533l103 -82l55 47l29 -32q-49 -46 -93.5 -89t-87.5 -88
q-52 57 -116 98t-142 68q31 24 44.5 59t13.5 95v416q0 30 -9.5 51t-29.5 37l-33 -27l-31 33z" />
    <glyph glyph-name="Gbreve" unicode="&#x11e;" horiz-adv-x="1370" 
d="M721 66q117 0 214 52.5t163 151.5q-43 24 -86 35.5t-88 11.5q-42 0 -91 -10.5t-112 -34.5v-206zM721 492v-173q56 21 106 31t97 10q53 0 99.5 -11.5t88.5 -35.5q17 33 25 70t8 80q0 18 -0.5 26.5t-1.5 15.5q-63 -31 -117.5 -47t-99.5 -16q-48 0 -98.5 12.5t-106.5 37.5z
M721 745v-202q56 -31 106 -45.5t99 -14.5q51 0 102 17.5t105 52.5q-14 97 -90.5 158t-184.5 61q-32 0 -66 -6.5t-71 -20.5zM671 68l1 655q-23 -6 -43.5 -15.5t-42.5 -23.5v-158q0 -49 -6.5 -72.5t-22.5 -39.5q-15 -17 -53.5 -51t-130.5 -113q69 -82 144 -127.5t154 -54.5z
M586 750l327 264l-327 131v-395zM377 967q-62 -54 -93.5 -141t-31.5 -203q0 -103 24 -186t70 -142q17 10 24 31t7 82v559zM748 1325q93 -57 184 -85t182 -28q33 0 63.5 2.5t63.5 8.5l6 -11l-293 -233q179 -46 268 -149t89 -263q0 -106 -57.5 -215t-159.5 -194
q-107 -90 -251 -140.5t-294 -50.5q-219 0 -361.5 143t-142.5 361q0 172 95 331t274 285zM454 1773h62q18 -67 70 -97t153 -30t153.5 30.5t67.5 96.5h64q-20 -130 -92.5 -197t-192.5 -67q-119 0 -192 68t-93 196z" />
    <glyph glyph-name="gbreve" unicode="&#x11f;" horiz-adv-x="862" 
d="M102 150l1 686q44 7 110 36.5t193 100.5l290 -148l148 103v-215l-150 24v-489q0 -31 4.5 -55.5t12.5 -40.5q19 -36 55 -94q65 -108 65 -142q0 -29 -14.5 -51t-48.5 -43l-176 -107q-61 22 -120 32.5t-120 10.5t-119.5 -10.5t-111.5 -32.5l-47 41l211 254zM514 743l-231 76
v-581l118 -86l113 129v462zM707 -154v21q-100 96 -146.5 175.5t-50.5 160.5l-266 -316q49 10 90.5 14.5t79.5 4.5q69 0 141.5 -15t151.5 -45zM147 1380h62q18 -67 70 -97t153 -30t153.5 30.5t67.5 96.5h64q-20 -130 -92.5 -197t-192.5 -67q-119 0 -192 68t-93 196z" />
    <glyph glyph-name="Idotaccent" unicode="&#x130;" horiz-adv-x="977" 
d="M53 629q17 83 83.5 130.5t166.5 47.5h6q8 132 51.5 231.5t128.5 184.5q-50 -25 -89 -36t-72 -11q-37 0 -98 12t-85 12q-37 0 -65 -21.5t-53 -70.5l-17 2q23 102 89 160.5t159 58.5q32 0 107.5 -12t117.5 -12q34 0 75 7t93 21l8 -14q-85 -63 -125 -156t-40 -229
q0 -109 23.5 -281.5t23.5 -236.5q0 -115 -51 -166t-166 -54q60 -66 120.5 -102.5t108.5 -36.5q61 0 89 36.5t28 115.5q0 114 -36 355.5t-36 367.5q0 195 76 292.5t231 102.5v-18q-73 -20 -100 -54t-27 -110q0 -127 38 -367.5t38 -355.5q0 -206 -94 -330.5t-248 -124.5
q-74 0 -201 47q-12 4 -19 7q-9 3 -30 11q-108 40 -156 40q-50 0 -86.5 -26t-66.5 -83l-12 4v4q0 113 69 190t166 77q16 0 38.5 -2.5t29.5 -2.5q74 0 102.5 35.5t28.5 132.5q0 141 -41 202t-135 61q-30 0 -66 -9t-80 -26zM537 1509q-33 30 -64.5 63.5t-64.5 73.5l139 136
q40 -50 70.5 -82.5t58.5 -57.5z" />
    <glyph glyph-name="Scedilla" unicode="&#x15e;" horiz-adv-x="1489" 
d="M788 907l68 119q-82 59 -167 92t-154 33q-75 0 -120.5 -38t-45.5 -99q0 -59 52 -93t144 -34q29 0 76 4t147 16zM690 612q76 10 130 14.5t91 4.5q127 0 198 -45.5t71 -124.5q0 -67 -57.5 -126.5t-192.5 -129.5q27 -10 84 -31.5t86 -32.5q95 75 140.5 154t45.5 170
q0 132 -91.5 202t-264.5 70q-45 0 -90 -3.5t-93 -11.5zM250 848q-26 -23 -38.5 -46t-12.5 -46q0 -70 75.5 -113t202.5 -43q43 0 78 2t66 6l61 107q-52 -4 -94 -6t-64 -2q-104 0 -174 36t-100 105zM858 231q70 47 103.5 84t33.5 68q0 35 -26.5 49t-98.5 14q-56 0 -212 -14
q-47 -4 -72 -6l-56 -104q57 -11 137 -33t191 -58zM590 96q-105 44 -199.5 67t-167.5 23q-65 0 -101 -24t-36 -68q0 -45 47 -72.5t125 -27.5q66 0 153.5 26.5t178.5 75.5zM668 72q-137 -63 -240.5 -93t-181.5 -30q-104 0 -171 53.5t-67 132.5q0 93 81.5 152t213.5 59
q30 0 73 -4t99 -12l49 94h-32q-191 0 -305.5 74t-114.5 194q0 65 39.5 112.5t121.5 82.5v12q0 70 37 138t111 134l188 168q4 -1 12 -4q272 -103 375 -131l43 82l45 -24l-194 -351q36 3 53 3.5t31 0.5q227 0 360 -105.5t133 -283.5q0 -153 -120.5 -286t-389.5 -275
q-25 13 -210 90q-26 11 -39 17zM551 -420l39 101l254 -48q19 17 29 35.5t10 38.5q0 49 -49 76t-140 27h-18q4 19 7 44t3 44v137h58v-160q119 0 188.5 -45t69.5 -121q0 -52 -28.5 -97t-90.5 -89z" />
    <glyph glyph-name="scedilla" unicode="&#x15f;" horiz-adv-x="758" 
d="M508 152v268l-111 65l-213 -295q34 13 66.5 19t64.5 6q47 0 95 -16t98 -47zM242 571l108 -63l180 260q-33 -6 -60 -9t-46 -3q-46 0 -91 12t-91 37v-234zM10 16l240 351l-189 110v328q68 30 128.5 72.5t111.5 97.5q72 -41 137.5 -62.5t118.5 -21.5q48 0 76.5 19.5
t28.5 52.5q0 17 -25 47.5t-25 46.5q0 20 15 34.5t35 14.5q31 0 50 -22.5t19 -59.5q0 -30 -13.5 -62.5t-45.5 -76.5l-174 -252l180 -117v-387q-62 -20 -123.5 -57.5t-122.5 -94.5q-46 34 -94 51t-98 17q-47 0 -94 -13.5t-99 -41.5zM168 -420l39 101l254 -48q19 17 29 35.5
t10 38.5q0 49 -49 76t-140 27h-18q4 19 7 44t3 44v137h58v-160q119 0 188.5 -45t69.5 -121q0 -52 -28.5 -97t-90.5 -89z" />
    <glyph glyph-name="Cacute" unicode="&#x106;" horiz-adv-x="1208" 
d="M651 170v979l-84 -70v-381q0 -108 -45 -190.5t-157 -175.5q55 -62 127.5 -103t158.5 -59zM332 365q13 18 18.5 45t5.5 77v23v481l400 336q99 -57 199 -87t194 -30h10l-182 -198q-53 23 -122 49t-157 55v-954q20 -3 41.5 -4.5t44.5 -1.5q105 0 201.5 44t200.5 140l14 -8
q-92 -189 -227 -277t-332 -88q-262 0 -431 171t-169 437q0 218 112.5 387t303.5 238l4 -8q-127 -97 -185.5 -209t-58.5 -256q0 -114 28.5 -204t86.5 -158zM604 1468l-82 37q90 72 162 150t129 163l148 -53q-67 -87 -156 -161t-201 -136z" />
    <glyph glyph-name="cacute" unicode="&#x107;" horiz-adv-x="578" 
d="M340 973l205 -142l-90 -135l-166 111v-582l157 -84l86 66l27 -33q-43 -32 -103 -81t-137 -116q-65 60 -134.5 95.5t-141.5 46.5q31 23 44 58t13 95v533q72 31 132 73t108 95zM243 1075l-82 37q90 72 162 150t129 163l148 -53q-67 -87 -156 -161t-201 -136z" />
    <glyph glyph-name="Ccaron" unicode="&#x10c;" horiz-adv-x="1208" 
d="M651 170v979l-84 -70v-381q0 -108 -45 -190.5t-157 -175.5q55 -62 127.5 -103t158.5 -59zM332 365q13 18 18.5 45t5.5 77v23v481l400 336q99 -57 199 -87t194 -30h10l-182 -198q-53 23 -122 49t-157 55v-954q20 -3 41.5 -4.5t44.5 -1.5q105 0 201.5 44t200.5 140l14 -8
q-92 -189 -227 -277t-332 -88q-262 0 -431 171t-169 437q0 218 112.5 387t303.5 238l4 -8q-127 -97 -185.5 -209t-58.5 -256q0 -114 28.5 -204t86.5 -158zM676 1610q51 65 110 115.5t128 88.5l30 -30q-61 -72 -115.5 -151t-103.5 -165h-100q-49 86 -104 165t-115 151l30 30
q70 -39 130 -90t110 -114z" />
    <glyph glyph-name="ccaron" unicode="&#x10d;" horiz-adv-x="578" 
d="M340 973l205 -142l-90 -135l-166 111v-582l157 -84l86 66l27 -33q-43 -32 -103 -81t-137 -116q-65 60 -134.5 95.5t-141.5 46.5q31 23 44 58t13 95v533q72 31 132 73t108 95zM315 1217q51 65 110 115.5t128 88.5l30 -30q-61 -72 -115.5 -151t-103.5 -165h-100
q-49 86 -104 165t-115 151l30 30q70 -39 130 -90t110 -114z" />
    <glyph glyph-name="dcroat" unicode="&#x111;" horiz-adv-x="788" 
d="M291 233q86 -35 129 -52t80 -31v550l-142 115l-67 -51v-531zM397 -25q-78 61 -169.5 104t-184.5 64q32 27 44.5 61t12.5 103v471q63 17 109.5 39t83.5 51l-47 41h-254l12 70h154l-101 86v199l353 -277h364l-8 -72h-268l188 -147v-633q-89 -27 -161 -67t-128 -93z" />
    <glyph glyph-name="periodcentered" unicode="&#x2219;" horiz-adv-x="473" 
d="M100 635q0 54 41.5 95.5t96.5 41.5q56 0 95.5 -40t39.5 -97q0 -55 -40.5 -95t-94.5 -40q-53 0 -95.5 41.5t-42.5 93.5z" />
    <glyph glyph-name="sfthyphen" unicode="&#xad;" horiz-adv-x="635" 
d="M115 399l-21 -57h-39l82 225h377l25 68h39l-82 -236h-381z" />
  </font>
</defs>
</svg>
